<svg width="86" height="88" viewBox="0 0 86 88" fill="none" xmlns="http://www.w3.org/2000/svg">
<path fill-rule="evenodd" clip-rule="evenodd" d="M8.3942 30.6216L12.5856 30.4174L12.6139 30.991L9.43272 33.3769L12.7218 33.2158L12.7492 33.7521L8.55774 33.9597L8.52951 33.3844L11.7148 30.9993L8.42242 31.1612L8.3942 30.6216Z" fill="#213F9A"/>
<path fill-rule="evenodd" clip-rule="evenodd" d="M10.2332 36.8262C10.1477 36.6436 10.0688 36.3638 9.99577 35.9894C9.95592 35.7761 9.91275 35.6291 9.87041 35.5419C9.82642 35.4564 9.76748 35.3909 9.69276 35.3435C9.61556 35.2995 9.5342 35.2804 9.44372 35.2871C9.30674 35.2937 9.19467 35.3494 9.10916 35.4614C9.02283 35.571 8.98547 35.7271 8.99626 35.9288C9.00539 36.1289 9.05769 36.304 9.15399 36.4543C9.2478 36.6079 9.37232 36.7174 9.52756 36.783C9.64627 36.8312 9.81811 36.8494 10.0456 36.837L10.2332 36.8262ZM9.08841 36.93C8.91491 36.7473 8.79121 36.5672 8.7165 36.3945C8.64013 36.2185 8.59696 36.0284 8.58533 35.825C8.56956 35.4888 8.6368 35.2232 8.79121 35.038C8.94396 34.8471 9.14735 34.7483 9.40138 34.7309C9.5508 34.7259 9.68695 34.7525 9.81396 34.8131C9.94015 34.8762 10.0439 34.9608 10.1236 35.0679C10.2033 35.1742 10.2664 35.2937 10.3112 35.4315C10.3436 35.5328 10.376 35.6856 10.4125 35.8914C10.4839 36.3074 10.5578 36.6128 10.6366 36.8079C10.7072 36.8054 10.7529 36.8054 10.7711 36.8054C10.9803 36.7938 11.1256 36.7374 11.207 36.6361C11.3165 36.4966 11.3639 36.2957 11.3497 36.0334C11.3381 35.7877 11.2867 35.6125 11.1962 35.4971C11.1065 35.3875 10.9513 35.3078 10.7321 35.2622L10.7745 34.7525C10.9928 34.7857 11.1696 34.8546 11.3091 34.9525C11.4469 35.0513 11.5548 35.1991 11.6386 35.3958C11.72 35.5926 11.7673 35.8225 11.7798 36.0882C11.7931 36.348 11.774 36.5647 11.7233 36.7274C11.6694 36.8959 11.5996 37.018 11.5108 37.101C11.422 37.1823 11.3091 37.2429 11.1688 37.2811C11.0824 37.3027 10.9239 37.3193 10.6956 37.3301L10.0099 37.3683C9.53088 37.3899 9.22954 37.4173 9.10501 37.4463C8.978 37.4754 8.86012 37.5268 8.74555 37.5974L8.71899 37.0545C8.82193 36.9964 8.94562 36.9524 9.08841 36.93Z" fill="#213F9A"/>
<path fill-rule="evenodd" clip-rule="evenodd" d="M8.78171 38.2774L11.8168 38.1097L11.8425 38.5771L11.41 38.6003C11.7562 38.807 11.9404 39.125 11.9637 39.5492C11.9737 39.7318 11.9496 39.9078 11.8931 40.0655C11.835 40.2224 11.7562 40.3461 11.6532 40.4267C11.5503 40.5097 11.4258 40.5703 11.2813 40.6076C11.1867 40.6317 11.0206 40.6516 10.784 40.6624L8.91703 40.7662L8.8888 40.2473L10.7342 40.1452C10.9443 40.1344 11.0995 40.1037 11.2016 40.0597C11.3029 40.0141 11.3834 39.9377 11.439 39.8314C11.4955 39.7277 11.5187 39.6015 11.5113 39.4637C11.5005 39.2429 11.4191 39.0544 11.2722 38.9C11.1244 38.7481 10.8554 38.6825 10.4678 38.7041L8.8091 38.7962L8.78171 38.2774Z" fill="#213F9A"/>
<path fill-rule="evenodd" clip-rule="evenodd" d="M12.5584 41.4119L13.1544 41.3787L13.1851 41.8992L12.5874 41.9324L12.5584 41.4119ZM7.75177 41.0292L8.19507 41.0998C8.17432 41.2102 8.16518 41.2907 8.1685 41.3488C8.17432 41.4559 8.21416 41.5323 8.28639 41.5813C8.35861 41.6286 8.53294 41.6444 8.81187 41.6286L12.0005 41.4459L12.0296 41.9648L8.83097 42.1483C8.4574 42.1698 8.19507 42.135 8.04149 42.0478C7.84474 41.9324 7.73765 41.7299 7.72022 41.4401C7.71358 41.2982 7.72188 41.1604 7.75177 41.0292Z" fill="#213F9A"/>
<path fill-rule="evenodd" clip-rule="evenodd" d="M12.6382 42.7147L13.2301 42.6765L13.26 43.1962L12.6689 43.2319L12.6382 42.7147ZM9.04194 42.9281L12.0753 42.7471L12.1077 43.2668L9.07266 43.4469L9.04194 42.9281Z" fill="#213F9A"/>
<path fill-rule="evenodd" clip-rule="evenodd" d="M9.12382 44.3066L12.1564 44.1099L12.1863 44.5781L11.7562 44.6046C12.1024 44.8097 12.2909 45.1226 12.3199 45.5485C12.3299 45.7328 12.3083 45.9047 12.2535 46.0624C12.1971 46.2218 12.1207 46.3421 12.0169 46.4276C11.9156 46.5115 11.7928 46.5713 11.6492 46.6153C11.5537 46.6385 11.3885 46.6601 11.1519 46.6759L9.28487 46.7971L9.2525 46.2766L11.0971 46.1562C11.3063 46.1462 11.4615 46.1122 11.5628 46.0665C11.6649 46.0192 11.7421 45.9428 11.7969 45.8333C11.8517 45.7295 11.8741 45.6033 11.8675 45.4672C11.8517 45.2472 11.7695 45.0587 11.6201 44.9085C11.4707 44.7549 11.2017 44.6959 10.8132 44.7175L9.15703 44.8271L9.12382 44.3066Z" fill="#213F9A"/>
<path fill-rule="evenodd" clip-rule="evenodd" d="M10.9414 47.8793C10.5446 47.9134 10.2599 48.0163 10.0913 48.189C9.92198 48.365 9.84727 48.5692 9.86553 48.8099C9.88628 49.0515 9.99337 49.2424 10.1876 49.3902C10.3835 49.5355 10.6749 49.5928 11.0634 49.5604C11.4337 49.5288 11.706 49.4234 11.882 49.2424C12.0555 49.0615 12.1335 48.8539 12.1136 48.619C12.0945 48.3882 11.9866 48.1998 11.7873 48.0545C11.5889 47.9067 11.3067 47.8503 10.9414 47.8793ZM9.08685 47.6004L9.05281 48.1093C8.90172 48.1425 8.79463 48.2105 8.73237 48.3118C8.64769 48.4496 8.61449 48.6298 8.63275 48.8514C8.65101 49.0922 8.71411 49.2756 8.8212 49.396C8.92663 49.5189 9.06775 49.5977 9.24292 49.6276C9.34917 49.6475 9.56917 49.6417 9.90372 49.6119C9.62147 49.406 9.4654 49.1353 9.438 48.7991C9.40314 48.3782 9.52766 48.0379 9.80908 47.7847C10.0888 47.5298 10.4408 47.3821 10.8609 47.3497C11.1498 47.3273 11.4221 47.3555 11.6744 47.4427C11.926 47.5265 12.1285 47.666 12.278 47.8552C12.4274 48.0437 12.5137 48.2736 12.5353 48.5476C12.5644 48.9079 12.4457 49.215 12.1759 49.4749L12.5403 49.445L12.5801 49.9207L9.96266 50.1407C9.48947 50.178 9.15243 50.1564 8.94738 50.0742C8.74233 49.9921 8.57298 49.8526 8.44265 49.6525C8.31148 49.45 8.23262 49.1976 8.20854 48.8888C8.17783 48.5243 8.23428 48.2247 8.38038 47.9831C8.52317 47.7482 8.75976 47.617 9.08685 47.6004Z" fill="#213F9A"/>
<path fill-rule="evenodd" clip-rule="evenodd" d="M14.4599 54.4569L14.5744 55.0065L12.2043 55.5079C11.7917 55.595 11.453 55.6166 11.1907 55.5726C10.9276 55.5295 10.6959 55.4033 10.4901 55.1899C10.2875 54.9749 10.1431 54.6669 10.0575 54.2685C9.97702 53.8799 9.97702 53.5487 10.0559 53.2723C10.1364 52.9967 10.2908 52.7825 10.5199 52.6239C10.7491 52.4654 11.0811 52.3392 11.5153 52.2462L13.8879 51.7464L14.0033 52.2952L11.6332 52.7941C11.277 52.8705 11.0205 52.9568 10.8669 53.0622C10.7125 53.1652 10.6063 53.308 10.5498 53.4889C10.4917 53.6724 10.4884 53.8833 10.5382 54.1174C10.6237 54.52 10.7756 54.7873 10.9931 54.9218C11.2081 55.0529 11.5751 55.0662 12.0898 54.96L14.4599 54.4569Z" fill="#213F9A"/>
<path fill-rule="evenodd" clip-rule="evenodd" d="M10.7679 56.6649L13.5871 55.5267L13.7606 55.9609L13.3605 56.1236C13.754 56.2083 14.0321 56.4465 14.1906 56.8425C14.2596 57.0119 14.2928 57.1821 14.2911 57.3522C14.2878 57.5216 14.2504 57.6586 14.1799 57.7723C14.1101 57.8827 14.013 57.9807 13.8885 58.0637C13.8071 58.1176 13.656 58.1882 13.4352 58.277L11.7018 58.9768L11.5076 58.4954L13.2219 57.803C13.4153 57.7233 13.5539 57.6469 13.6353 57.5706C13.7175 57.4942 13.7664 57.3946 13.7855 57.2784C13.8046 57.1605 13.788 57.0335 13.7357 56.9081C13.6527 56.7006 13.5157 56.5503 13.3273 56.454C13.1372 56.3561 12.8616 56.3801 12.5013 56.5262L10.9613 57.1489L10.7679 56.6649Z" fill="#213F9A"/>
<path fill-rule="evenodd" clip-rule="evenodd" d="M15.3093 58.1341L15.843 57.8743L16.0697 58.3425L15.5359 58.599L15.3093 58.1341ZM12.0658 59.7015L14.8012 58.3774L15.0287 58.8456L12.2941 60.1688L12.0658 59.7015Z" fill="#213F9A"/>
<path fill-rule="evenodd" clip-rule="evenodd" d="M13.0217 61.5811L15.1145 59.0857L15.3818 59.568L14.1075 61.0241C13.9705 61.1818 13.8228 61.3379 13.6667 61.4931C13.8302 61.4558 14.0295 61.4176 14.2669 61.3844L16.2194 61.0805L16.4784 61.5479L13.2566 62.002L13.0217 61.5811Z" fill="#213F9A"/>
<path fill-rule="evenodd" clip-rule="evenodd" d="M15.781 62.7142L16.739 64.1371C16.9399 63.9727 17.0603 63.8142 17.106 63.6515C17.1774 63.4032 17.1408 63.1675 16.9931 62.95C16.8594 62.7516 16.6809 62.6329 16.4593 62.5822C16.2368 62.5382 16.0102 62.5822 15.781 62.7142ZM16.0459 64.597L16.2899 65.0777C15.9853 65.1814 15.698 65.1881 15.4282 65.0943C15.1559 64.998 14.9218 64.8037 14.7226 64.5082C14.471 64.1371 14.3855 63.7644 14.4669 63.3916C14.5466 63.0205 14.7931 62.6976 15.2008 62.4237C15.625 62.1373 16.0284 62.0244 16.4111 62.0875C16.7938 62.1497 17.1035 62.3581 17.3417 62.7084C17.57 63.0513 17.6431 63.4057 17.5601 63.7752C17.4737 64.1471 17.2247 64.47 16.8088 64.7514C16.7822 64.7689 16.7448 64.7938 16.6917 64.8253L15.4149 62.9284C15.1485 63.1293 14.9891 63.3518 14.9368 63.5925C14.8861 63.8358 14.9318 64.0599 15.0754 64.2732C15.1817 64.4318 15.3137 64.5397 15.4722 64.597C15.6291 64.651 15.8217 64.651 16.0459 64.597Z" fill="#213F9A"/>
<path fill-rule="evenodd" clip-rule="evenodd" d="M15.9677 66.1333L18.3519 64.248L18.6433 64.6158L18.2814 64.903C18.5246 64.8607 18.7048 64.859 18.821 64.8972C18.938 64.9329 19.0327 65.0018 19.109 65.0939C19.2178 65.2326 19.2842 65.4061 19.3108 65.6169L18.8243 65.7722C18.8044 65.6252 18.7546 65.504 18.6749 65.4061C18.6051 65.3156 18.5155 65.2566 18.4059 65.2259C18.2963 65.1977 18.1826 65.2035 18.0647 65.2508C17.8846 65.3181 17.7094 65.4202 17.5392 65.5547L16.2907 66.5409L15.9677 66.1333Z" fill="#213F9A"/>
<path fill-rule="evenodd" clip-rule="evenodd" d="M17.6847 66.8589L18.0907 67.1843C17.9587 67.3428 17.8964 67.5072 17.9047 67.6791C17.913 67.8526 17.9977 68.0219 18.1554 68.1996C18.3173 68.3764 18.4717 68.4752 18.622 68.4951C18.7706 68.5158 18.8926 68.481 18.9881 68.3963C19.0736 68.3166 19.1084 68.2178 19.0893 68.0975C19.0752 68.0169 18.9989 67.8434 18.8611 67.5861C18.6743 67.2391 18.5589 66.9875 18.5107 66.8348C18.4626 66.6754 18.4584 66.5268 18.4983 66.3915C18.539 66.252 18.6145 66.1308 18.7241 66.0287C18.8237 65.9424 18.9391 65.8793 19.0661 65.8494C19.1923 65.8162 19.3218 65.8162 19.4505 65.8428C19.5484 65.866 19.658 65.9125 19.7834 65.9897C19.9087 66.0636 20.0249 66.1624 20.132 66.2786C20.2939 66.4571 20.4101 66.6364 20.4832 66.8165C20.5537 66.9983 20.5762 67.1627 20.5471 67.3047C20.518 67.4466 20.4425 67.5969 20.3188 67.7538L19.9261 67.425C20.0266 67.2988 20.0714 67.1677 20.0615 67.0282C20.0523 66.8887 19.9801 66.741 19.8431 66.5932C19.6821 66.4156 19.5385 66.3151 19.4139 66.2927C19.2861 66.2711 19.1848 66.2927 19.1068 66.3633C19.057 66.4073 19.0271 66.4654 19.0163 66.5343C19.003 66.599 19.0138 66.6804 19.0478 66.7709C19.0686 66.8232 19.14 66.9651 19.2595 67.2009C19.4347 67.5396 19.5484 67.7803 19.6016 67.9323C19.6522 68.0817 19.6622 68.2236 19.6306 68.3664C19.5999 68.5092 19.5185 68.6387 19.389 68.7541C19.2604 68.8687 19.1068 68.9409 18.9283 68.9683C18.7473 68.9957 18.563 68.9683 18.3721 68.8803C18.182 68.7956 18.0068 68.6653 17.8433 68.486C17.576 68.1904 17.4324 67.9132 17.4133 67.6434C17.3942 67.381 17.4847 67.1179 17.6847 66.8589Z" fill="#213F9A"/>
<path fill-rule="evenodd" clip-rule="evenodd" d="M21.691 67.1957L22.1045 66.7707L22.4772 67.1343L22.0629 67.5585L21.691 67.1957ZM19.1757 69.775L21.2967 67.6L21.6686 67.962L19.5467 70.1378L19.1757 69.775Z" fill="#213F9A"/>
<path fill-rule="evenodd" clip-rule="evenodd" d="M21.3028 71.1187L21.0554 71.5089C20.9251 71.4358 20.8164 71.3594 20.7309 71.2822C20.5906 71.1569 20.5009 71.0365 20.4635 70.9228C20.4262 70.809 20.4229 70.7036 20.4552 70.6007C20.4884 70.5002 20.6072 70.3358 20.8147 70.1067L21.9802 68.8034L21.6963 68.5493L21.9628 68.2513L22.2484 68.5062L22.7498 67.945L23.3409 68.0587L22.6327 68.8507L23.0221 69.1977L22.7556 69.499L22.3663 69.1479L21.1791 70.4736C21.0828 70.5824 21.0264 70.6588 21.0106 70.7036C20.9982 70.7459 20.9982 70.7899 21.0106 70.8364C21.0247 70.8829 21.0621 70.9319 21.1194 70.9817C21.1617 71.0207 21.2231 71.0697 21.3028 71.1187Z" fill="#213F9A"/>
<path fill-rule="evenodd" clip-rule="evenodd" d="M20.6406 72.7109L20.893 72.295C20.9652 72.3888 21.0324 72.461 21.0997 72.5133C21.1893 72.5847 21.2757 72.6287 21.352 72.6395C21.4317 72.6528 21.5081 72.6453 21.5853 72.6204C21.6434 72.603 21.7646 72.5333 21.9481 72.4154C21.9722 72.3988 22.0103 72.3764 22.0626 72.3473L23.0289 69.2334L23.4706 69.5804L22.8837 71.3594C22.8114 71.5827 22.7234 71.8127 22.6238 72.0484C22.8173 71.9007 23.0148 71.7645 23.2207 71.6384L24.832 70.6513L25.2405 70.9709L22.4121 72.6777C22.1075 72.8628 21.8875 72.984 21.7555 73.0397C21.577 73.116 21.4176 73.1492 21.2757 73.1376C21.132 73.126 20.9951 73.0695 20.8647 72.9683C20.7859 72.9052 20.7112 72.8205 20.6406 72.7109Z" fill="#213F9A"/>
<path fill-rule="evenodd" clip-rule="evenodd" d="M26.1573 73.4041C25.9581 73.737 25.8809 74.03 25.9265 74.284C25.9747 74.5389 26.1108 74.7331 26.3341 74.8668C26.555 74.9988 26.7891 75.0262 27.0364 74.9482C27.283 74.8693 27.5105 74.6584 27.7155 74.3197C27.9073 73.9968 27.9803 73.7071 27.933 73.453C27.8849 73.1982 27.7512 73.0039 27.5296 72.8728C27.3087 72.7383 27.0738 72.7109 26.8272 72.7873C26.5815 72.8628 26.3582 73.0695 26.1573 73.4041ZM25.6991 73.1268C25.9888 72.6453 26.3391 72.368 26.75 72.3C27.0921 72.241 27.4241 72.3116 27.7512 72.5083C28.1115 72.7225 28.3365 73.0172 28.4261 73.3891C28.515 73.7644 28.4353 74.1554 28.187 74.5721C27.987 74.905 27.7769 75.1399 27.5594 75.2711C27.3419 75.4031 27.1053 75.4629 26.8472 75.4529C26.589 75.4413 26.3449 75.3682 26.1166 75.2312C25.7464 75.0104 25.5198 74.7132 25.4318 74.3405C25.3463 73.9719 25.4342 73.5676 25.6991 73.1268Z" fill="#213F9A"/>
<path fill-rule="evenodd" clip-rule="evenodd" d="M28.0739 76.2556L29.2867 73.9146L28.88 73.7004L29.0634 73.3451L29.4719 73.5584L29.6213 73.2695C29.7143 73.0877 29.8006 72.9632 29.8778 72.891C29.9849 72.798 30.1119 72.7416 30.2622 72.7241C30.4133 72.7108 30.5893 72.7548 30.791 72.8586C30.9221 72.9242 31.0566 73.0172 31.1978 73.1259L30.9238 73.4895C30.8358 73.4206 30.7503 73.3683 30.6631 73.3243C30.5237 73.2521 30.4091 73.2305 30.3203 73.2587C30.2315 73.2878 30.1443 73.3841 30.0596 73.5485L29.9309 73.7942L30.4622 74.0706L30.2771 74.4259L29.7458 74.1503L28.5338 76.4947L28.0739 76.2556Z" fill="#213F9A"/>
<path fill-rule="evenodd" clip-rule="evenodd" d="M32.5748 75.9421L33.5975 76.3339C33.9354 76.4626 34.1994 76.4924 34.3903 76.4202C34.5796 76.3497 34.7182 76.2011 34.8029 75.9769C34.8668 75.8142 34.8784 75.6548 34.8402 75.5079C34.8004 75.3601 34.719 75.2389 34.5978 75.1517C34.5181 75.0911 34.3604 75.0198 34.1213 74.9268L33.1094 74.5416L32.5748 75.9421ZM31.2656 77.7999L32.7615 73.8783L34.255 74.4511C34.5181 74.5491 34.7132 74.6371 34.8427 74.7159C35.0254 74.823 35.1648 74.9459 35.2628 75.0853C35.3574 75.2281 35.4172 75.3917 35.4346 75.5876C35.4529 75.7777 35.4247 75.9719 35.35 76.167C35.2229 76.4999 35.0079 76.7407 34.7058 76.8918C34.4028 77.0395 33.9727 77.0071 33.4132 76.7921L32.3988 76.4044L31.7886 77.9967L31.2656 77.7999Z" fill="#213F9A"/>
<path fill-rule="evenodd" clip-rule="evenodd" d="M35.5297 77.7335C35.4201 78.1054 35.4209 78.4126 35.5305 78.6451C35.6418 78.8808 35.8202 79.0336 36.0701 79.1083C36.3183 79.1788 36.5524 79.1456 36.7708 79.0087C36.9899 78.8692 37.156 78.6085 37.268 78.2258C37.3743 77.8655 37.3726 77.5667 37.2597 77.3351C37.1485 77.0985 36.9708 76.9457 36.7243 76.8752C36.4744 76.798 36.2411 76.8312 36.0211 76.9681C35.8036 77.1051 35.6384 77.3625 35.5297 77.7335ZM35.0158 77.5841C35.1744 77.0453 35.4425 76.6892 35.8236 76.5174C36.1398 76.3771 36.4802 76.3588 36.843 76.4642C37.2506 76.5846 37.5411 76.8087 37.723 77.1483C37.9023 77.4878 37.9247 77.8871 37.7885 78.3528C37.6773 78.7272 37.5362 79.0045 37.3585 79.1863C37.1825 79.3698 36.9675 79.4877 36.716 79.5424C36.4636 79.5997 36.2088 79.5881 35.9522 79.5134C35.538 79.3922 35.2433 79.1622 35.0673 78.8285C34.8888 78.489 34.8722 78.0764 35.0158 77.5841Z" fill="#213F9A"/>
<path fill-rule="evenodd" clip-rule="evenodd" d="M37.8821 79.0473L38.4018 79.0772C38.3877 79.2831 38.4325 79.4516 38.5388 79.5869C38.6459 79.7206 38.8144 79.8127 39.0469 79.8625C39.2793 79.9115 39.4628 79.904 39.5948 79.8351C39.7301 79.7646 39.8089 79.6658 39.8363 79.5396C39.8612 79.4242 39.8322 79.3238 39.7458 79.2383C39.6861 79.1793 39.5242 79.083 39.2635 78.9543C38.9099 78.78 38.6675 78.6455 38.5388 78.5426C38.4085 78.4455 38.3205 78.3309 38.2723 78.1939C38.2225 78.0569 38.2142 77.915 38.2466 77.7697C38.2748 77.6352 38.3313 77.5207 38.4176 77.4219C38.5023 77.3239 38.606 77.2475 38.7281 77.1919C38.8202 77.1546 38.9373 77.1263 39.0842 77.1164C39.2287 77.1048 39.3789 77.1189 39.535 77.1512C39.7699 77.2027 39.97 77.2799 40.1335 77.3853C40.2971 77.4933 40.4091 77.6111 40.4689 77.7448C40.5287 77.8768 40.5536 78.042 40.5453 78.2437L40.0322 78.2006C40.0439 78.0462 40.0032 77.9092 39.9144 77.7996C39.8247 77.6908 39.6811 77.6153 39.4827 77.5763C39.2486 77.5223 39.0742 77.5256 38.9572 77.5804C38.8418 77.6352 38.7729 77.7141 38.7497 77.8162C38.7364 77.8818 38.7438 77.9474 38.7746 78.008C38.8044 78.0669 38.8592 78.1292 38.9414 78.1823C38.9879 78.213 39.1265 78.2869 39.3631 78.4073C39.701 78.5824 39.936 78.7136 40.0638 78.8041C40.1933 78.8937 40.2863 79.0091 40.3419 79.1403C40.3992 79.2748 40.4091 79.4242 40.3718 79.5961C40.3361 79.7646 40.2514 79.9115 40.1202 80.0402C39.9907 80.168 39.8222 80.251 39.6188 80.2917C39.4146 80.3324 39.1954 80.3274 38.9589 80.2776C38.5695 80.1938 38.2898 80.0493 38.1212 79.8459C37.9502 79.6376 37.8697 79.3752 37.8821 79.0473Z" fill="#213F9A"/>
<path fill-rule="evenodd" clip-rule="evenodd" d="M42.0019 80.278L42.0077 80.7379C41.8583 80.7487 41.7254 80.7437 41.6134 80.7271C41.4249 80.6997 41.2854 80.6457 41.19 80.5727C41.097 80.4971 41.0364 80.4091 41.009 80.3087C40.9816 80.2082 40.9907 80.0048 41.0364 79.6985L41.2987 77.9701L40.921 77.912L40.9816 77.5144L41.3593 77.5725L41.4706 76.8278L42.0284 76.6012L41.8707 77.6522L42.3879 77.7286L42.3281 78.1254L41.8109 78.0465L41.5436 79.8023C41.5212 79.9501 41.5171 80.0439 41.5287 80.0862C41.5403 80.131 41.566 80.1684 41.6026 80.2024C41.6399 80.2323 41.6972 80.2514 41.7719 80.2647C41.8292 80.273 41.9064 80.278 42.0019 80.278Z" fill="#213F9A"/>
<path fill-rule="evenodd" clip-rule="evenodd" d="M42.5408 79.9937L43.053 79.9074C43.0862 80.1091 43.1684 80.2643 43.302 80.3714C43.4365 80.4777 43.6225 80.5308 43.8591 80.5242C44.099 80.5225 44.275 80.4685 44.3879 80.3714C44.5016 80.2726 44.5572 80.1589 44.5572 80.0294C44.5531 79.9107 44.5016 79.8235 44.3978 79.7579C44.3265 79.7156 44.148 79.6575 43.8632 79.5919C43.4805 79.5014 43.2149 79.4234 43.0663 79.3586C42.9185 79.2906 42.8031 79.1951 42.7267 79.0747C42.6479 78.9543 42.608 78.8174 42.6047 78.6696C42.6039 78.5335 42.6321 78.4073 42.6927 78.2919C42.755 78.174 42.8372 78.0777 42.9434 77.9988C43.0231 77.9357 43.1319 77.8868 43.2713 77.8436C43.4108 77.7996 43.5602 77.7772 43.7204 77.7722C43.9612 77.7697 44.1737 77.7996 44.3572 77.8652C44.5398 77.9308 44.6759 78.0237 44.7648 78.1391C44.8536 78.2537 44.915 78.4131 44.9524 78.6073L44.4443 78.6829C44.4186 78.5276 44.348 78.4073 44.2368 78.3184C44.1247 78.2346 43.967 78.1939 43.7644 78.1956C43.5262 78.1989 43.3568 78.2437 43.2556 78.3226C43.1543 78.4015 43.1053 78.4944 43.1061 78.5982C43.1078 78.6671 43.1294 78.7277 43.1734 78.78C43.2174 78.8331 43.2846 78.8771 43.3743 78.9128C43.4282 78.9328 43.581 78.9734 43.8375 79.0357C44.2069 79.1287 44.4643 79.2026 44.6112 79.2632C44.7565 79.3229 44.8735 79.4109 44.9574 79.528C45.0429 79.6434 45.0877 79.7911 45.0894 79.9663C45.0927 80.139 45.0454 80.3 44.9466 80.4536C44.8478 80.6063 44.7025 80.7267 44.5141 80.8147C44.3231 80.8994 44.1098 80.9451 43.869 80.9492C43.4706 80.9558 43.1642 80.8803 42.9534 80.7159C42.7417 80.5574 42.6039 80.3166 42.5408 79.9937Z" fill="#213F9A"/>
<path fill-rule="evenodd" clip-rule="evenodd" d="M48.8494 78.4369C48.6867 78.5606 48.4293 78.6918 48.0765 78.8395C47.8781 78.9242 47.7394 78.9981 47.6647 79.0554C47.5875 79.1127 47.5361 79.1865 47.5095 79.2679C47.4804 79.3534 47.4771 79.4364 47.5004 79.5236C47.5352 79.6572 47.6141 79.7527 47.7394 79.8183C47.8648 79.8797 48.025 79.8847 48.2201 79.8324C48.4144 79.7809 48.5762 79.6929 48.7049 79.5726C48.8336 79.4472 48.9158 79.3036 48.9473 79.1401C48.9714 79.0139 48.9548 78.8395 48.8975 78.6212L48.8494 78.4369ZM49.1839 79.5402C49.0386 79.7444 48.8875 79.9005 48.7315 80.0117C48.5771 80.123 48.3994 80.2018 48.2018 80.2566C47.8773 80.3388 47.605 80.3272 47.3883 80.2151C47.1716 80.103 47.0322 79.9229 46.9666 79.6797C46.9284 79.5335 46.9276 79.3949 46.9633 79.2579C46.9989 79.1243 47.0595 79.0047 47.1484 78.906C47.2364 78.8038 47.3435 78.7183 47.468 78.6453C47.5601 78.5922 47.7021 78.5291 47.8955 78.4543C48.2882 78.2983 48.5729 78.1638 48.7481 78.0467C48.7315 77.977 48.7215 77.9355 48.7165 77.9156C48.6634 77.7114 48.5787 77.581 48.4608 77.5262C48.304 77.4432 48.0964 77.4382 47.8432 77.5038C47.6066 77.5669 47.4431 77.6541 47.3518 77.767C47.2604 77.8766 47.2148 78.0467 47.2164 78.2676L46.7051 78.3307C46.6968 78.1115 46.7267 77.9206 46.7931 77.767C46.8636 77.6134 46.9848 77.4748 47.1625 77.3544C47.3377 77.2357 47.5535 77.1402 47.8083 77.0721C48.0615 77.0066 48.2766 76.985 48.4509 77.0007C48.6236 77.0173 48.7614 77.0605 48.8577 77.1319C48.9556 77.2025 49.0386 77.3013 49.1034 77.4308C49.1416 77.5096 49.1906 77.6632 49.2487 77.8824L49.4222 78.549C49.5442 79.0089 49.6314 79.3019 49.6845 79.4198C49.7376 79.5335 49.8123 79.6431 49.9045 79.7369L49.3782 79.8764C49.2993 79.7859 49.2346 79.673 49.1839 79.5402Z" fill="#213F9A"/>
<path fill-rule="evenodd" clip-rule="evenodd" d="M50.5264 79.5338L49.5128 76.6665L49.9553 76.5129L50.0989 76.918C50.2002 76.5303 50.4517 76.2622 50.8527 76.1227C51.0278 76.0596 51.1988 76.0347 51.3674 76.0455C51.535 76.0546 51.6728 76.097 51.7824 76.1742C51.8887 76.248 51.9833 76.3502 52.0597 76.478C52.1112 76.5635 52.1759 76.7162 52.254 76.9404L52.8766 78.7028L52.3884 78.8771L51.7708 77.1313C51.7002 76.9354 51.6305 76.7926 51.5575 76.7113C51.4836 76.6233 51.3898 76.571 51.2719 76.5469C51.1532 76.522 51.0286 76.5328 50.8983 76.5793C50.6875 76.6523 50.5322 76.7818 50.4268 76.9678C50.3222 77.1546 50.3346 77.4269 50.4625 77.7946L51.017 79.3595L50.5264 79.5338Z" fill="#213F9A"/>
<path fill-rule="evenodd" clip-rule="evenodd" d="M53.294 76.8942C53.4517 77.2528 53.6443 77.4827 53.8734 77.5915C54.1026 77.7019 54.3201 77.7119 54.5268 77.6222C54.7343 77.5317 54.8746 77.3682 54.9468 77.1374C55.0174 76.9025 54.9767 76.6127 54.8248 76.2674C54.6579 75.8872 54.4604 75.6406 54.2337 75.5286C54.0079 75.414 53.7871 75.4065 53.5704 75.502C53.3579 75.595 53.2201 75.7585 53.1529 75.991C53.0856 76.2234 53.1329 76.5247 53.294 76.8942ZM55.4109 77.6189L55.2565 77.2686C55.2 77.6247 54.9975 77.8771 54.653 78.0298C54.4288 78.1294 54.1964 78.1552 53.9531 78.117C53.7116 78.078 53.4916 77.97 53.2923 77.7974C53.0914 77.6247 52.9304 77.3956 52.805 77.11C52.683 76.8311 52.6191 76.558 52.6133 76.2915C52.6075 76.025 52.6705 75.7917 52.805 75.5875C52.9387 75.3841 53.1213 75.233 53.3529 75.1301C53.5231 75.0562 53.6891 75.0263 53.8527 75.0363C54.0146 75.0504 54.1632 75.0961 54.296 75.1741L53.6908 73.7944L54.1648 73.5868L55.8534 77.4271L55.4109 77.6189Z" fill="#213F9A"/>
<path fill-rule="evenodd" clip-rule="evenodd" d="M59.0297 75.745L57.1601 72.5523L55.9556 73.2587L55.7057 72.832L58.603 71.1319L58.8528 71.561L57.6433 72.2675L59.5136 75.4628L59.0297 75.745Z" fill="#213F9A"/>
<path fill-rule="evenodd" clip-rule="evenodd" d="M60.345 72.8094L61.7496 71.8307C61.5861 71.6331 61.4217 71.5127 61.2598 71.4688C61.0116 71.404 60.7775 71.4422 60.5608 71.5949C60.3657 71.7319 60.2454 71.912 60.203 72.1337C60.1607 72.3554 60.2072 72.5828 60.345 72.8094ZM62.2228 72.5139L62.7001 72.2616C62.8089 72.5637 62.818 72.8535 62.73 73.1266C62.6387 73.3972 62.4469 73.6346 62.1564 73.8388C61.7878 74.0954 61.4184 74.1883 61.044 74.1111C60.6729 74.0406 60.345 73.7998 60.0619 73.3947C59.7697 72.9738 59.6526 72.5745 59.7074 72.191C59.7631 71.8083 59.9664 71.4937 60.3134 71.2504C60.6505 71.0138 61.0041 70.9375 61.376 71.0138C61.748 71.091 62.0767 71.3376 62.3648 71.7477C62.3814 71.7743 62.4079 71.8133 62.4411 71.8614L60.5642 73.1739C60.7717 73.4346 60.995 73.5923 61.2374 73.6379C61.479 73.6844 61.7048 73.6346 61.9156 73.4902C62.0709 73.3814 62.1771 73.2461 62.2311 73.0876C62.2842 72.9307 62.2817 72.7381 62.2228 72.5139Z" fill="#213F9A"/>
<path fill-rule="evenodd" clip-rule="evenodd" d="M61.5255 68.9892L64.1187 72.2908L63.7088 72.6128L61.1155 69.3112L61.5255 68.9892Z" fill="#213F9A"/>
<path fill-rule="evenodd" clip-rule="evenodd" d="M63.88 70.1557L65.1618 69.0176C64.9758 68.8424 64.799 68.7411 64.6338 68.7171C64.3781 68.6789 64.1507 68.7469 63.9539 68.9238C63.7754 69.0831 63.6783 69.2749 63.6609 69.4991C63.6434 69.729 63.7182 69.9449 63.88 70.1557ZM65.7113 69.6435L66.1563 69.3347C66.3008 69.6252 66.3423 69.9092 66.2842 70.1881C66.2277 70.4737 66.065 70.7302 65.8002 70.9659C65.464 71.2665 65.1062 71.3976 64.7276 71.3669C64.3482 71.3379 63.9946 71.1378 63.6683 70.7692C63.3271 70.3848 63.1644 70.0021 63.1761 69.6136C63.1869 69.2251 63.3512 68.8931 63.6683 68.61C63.9755 68.3393 64.3175 68.2181 64.6969 68.2522C65.0746 68.287 65.4308 68.4921 65.7636 68.8673C65.7836 68.8897 65.8135 68.9238 65.8525 68.9719L64.1399 70.4886C64.3748 70.7277 64.618 70.8564 64.8646 70.8755C65.1078 70.8946 65.327 70.8174 65.5204 70.6488C65.6624 70.5226 65.7512 70.3749 65.7869 70.2105C65.8218 70.0495 65.796 69.8594 65.7113 69.6435Z" fill="#213F9A"/>
<path fill-rule="evenodd" clip-rule="evenodd" d="M67.777 67.3647L68.178 67.0426C68.393 67.3216 68.4909 67.6154 68.4752 67.9185C68.4577 68.2206 68.334 68.4913 68.1024 68.7378C67.8127 69.0392 67.4823 69.1894 67.1079 69.187C66.7352 69.1853 66.3657 69.0068 65.998 68.6548C65.7606 68.429 65.5904 68.1907 65.4891 67.9434C65.3878 67.6935 65.3695 67.4444 65.436 67.1954C65.5015 66.9497 65.6252 66.7297 65.807 66.5387C66.0387 66.298 66.2877 66.1618 66.5534 66.1228C66.8207 66.0838 67.0855 66.1502 67.3503 66.3212L67.0573 66.7355C66.8755 66.6317 66.7053 66.5869 66.5459 66.6043C66.3873 66.6201 66.2479 66.6907 66.1291 66.8168C65.9465 67.007 65.8676 67.2253 65.8884 67.4743C65.91 67.7209 66.0652 67.9832 66.3574 68.2596C66.6521 68.5402 66.9219 68.6888 67.1643 68.7029C67.4084 68.7171 67.6168 68.6316 67.7928 68.4489C67.9331 68.3011 68.007 68.1335 68.0103 67.9508C68.0169 67.7649 67.938 67.5706 67.777 67.3647Z" fill="#213F9A"/>
<path fill-rule="evenodd" clip-rule="evenodd" d="M68.2268 66.237C68.5306 66.4778 68.8104 66.5965 69.0702 66.5824C69.3284 66.5716 69.5384 66.4653 69.702 66.2586C69.8647 66.0594 69.9228 65.8336 69.878 65.5754C69.8348 65.3205 69.6571 65.0665 69.3458 64.8183C69.0536 64.5817 68.7772 64.4705 68.5182 64.4846C68.26 64.497 68.0491 64.6008 67.8897 64.8034C67.7262 65.0076 67.6664 65.2367 67.7088 65.4882C67.7519 65.7456 67.9246 65.9921 68.2268 66.237ZM67.8922 66.6538C67.4539 66.301 67.2281 65.9149 67.214 65.499C67.2057 65.1537 67.3186 64.8308 67.556 64.5361C67.8208 64.2081 68.1438 64.0238 68.5248 63.989C68.9075 63.9508 69.2852 64.0811 69.6621 64.3858C69.9659 64.629 70.1693 64.8698 70.2681 65.1022C70.3694 65.3355 70.3968 65.5787 70.352 65.8336C70.3063 66.0876 70.2001 66.3209 70.0332 66.5268C69.7634 66.8621 69.4396 67.0481 69.0602 67.0838C68.6809 67.1187 68.2932 66.9775 67.8922 66.6538Z" fill="#213F9A"/>
<path fill-rule="evenodd" clip-rule="evenodd" d="M71.2479 64.9185L68.6736 63.2997L68.9218 62.9054L69.283 63.132C69.2091 62.971 69.1767 62.8016 69.185 62.6157C69.1917 62.4355 69.2506 62.2546 69.361 62.0819C69.4814 61.8885 69.6192 61.7565 69.7769 61.6826C69.9338 61.6087 70.099 61.5921 70.2725 61.6311C70.1015 61.236 70.1189 60.8757 70.3273 60.5478C70.4883 60.2879 70.6834 60.1335 70.9126 60.0829C71.1409 60.0331 71.4032 60.1045 71.6962 60.2879L73.462 61.3987L73.1872 61.8353L71.5667 60.8159C71.3907 60.7063 71.2562 60.6407 71.1633 60.6233C71.0686 60.6017 70.974 60.6158 70.8802 60.6615C70.7855 60.7063 70.7075 60.7802 70.6419 60.8807C70.5282 61.0608 70.4925 61.2534 70.5373 61.4501C70.5813 61.6469 70.7349 61.827 71.0014 61.9947L72.4957 62.9328L72.2176 63.3761L70.5473 62.3235C70.353 62.1989 70.1862 62.1458 70.0434 62.1549C69.9006 62.1666 69.7794 62.2546 69.6756 62.4181C69.5984 62.5418 69.5577 62.6763 69.5561 62.8232C69.5553 62.9685 69.6026 63.1021 69.6964 63.2283C69.791 63.3537 69.9562 63.4915 70.1903 63.6384L71.5236 64.4777L71.2479 64.9185Z" fill="#213F9A"/>
<path fill-rule="evenodd" clip-rule="evenodd" d="M73.8089 60.76L71.0295 59.5239L71.218 59.1014L71.609 59.2724C71.511 59.1246 71.4537 58.9594 71.4363 58.7768C71.4189 58.5933 71.4521 58.4082 71.5343 58.2214C71.6272 58.0139 71.7451 57.8628 71.8896 57.7673C72.034 57.6744 72.1951 57.6312 72.3727 57.6469C72.1469 57.28 72.1137 56.9189 72.2706 56.5628C72.3943 56.2838 72.5661 56.1045 72.7853 56.0215C73.0036 55.9393 73.2726 55.97 73.5897 56.1095L75.4958 56.9571L75.2857 57.4311L73.5358 56.6541C73.3481 56.5686 73.2062 56.5254 73.1091 56.5188C73.0119 56.5146 72.9223 56.542 72.8343 56.596C72.7488 56.6566 72.6815 56.7388 72.6326 56.8475C72.5437 57.0443 72.5363 57.2393 72.6093 57.4278C72.6815 57.6137 72.86 57.7723 73.1456 57.8993L74.7602 58.6157L74.5485 59.0914L72.7446 58.2937C72.5346 58.199 72.3586 58.1666 72.2216 58.199C72.0805 58.2297 71.9742 58.331 71.8962 58.5087C71.8364 58.6423 71.8149 58.7826 71.8364 58.9271C71.8547 59.0707 71.9194 59.1985 72.0315 59.3098C72.1436 59.4202 72.3254 59.5322 72.5786 59.6426L74.0189 60.2844L73.8089 60.76Z" fill="#213F9A"/>
<path fill-rule="evenodd" clip-rule="evenodd" d="M76.0258 54.326L75.59 54.233C75.8764 54.5385 75.9776 54.8897 75.8955 55.2915C75.8573 55.4691 75.79 55.6277 75.6912 55.7671C75.5916 55.9066 75.4837 56.0054 75.3658 56.0577C75.2479 56.1092 75.1118 56.1366 74.9582 56.1366C74.8545 56.1366 74.6967 56.115 74.4825 56.0718L72.6379 55.6858L72.745 55.1736L74.3937 55.5189C74.6594 55.572 74.837 55.6011 74.9333 55.6011C75.0728 55.5953 75.1923 55.5488 75.2886 55.46C75.3857 55.3712 75.4505 55.2508 75.4812 55.1005C75.5136 54.9469 75.5053 54.7959 75.4555 54.6464C75.4065 54.4953 75.3202 54.3775 75.1981 54.2928C75.0761 54.2114 74.8877 54.145 74.6336 54.0902L73.0389 53.7565L73.146 53.2484L76.1213 53.8686L76.0258 54.326Z" fill="#213F9A"/>
<path fill-rule="evenodd" clip-rule="evenodd" d="M76.3157 53.1192L73.2897 52.8319L73.3337 52.3662L73.7646 52.4086C73.4524 52.152 73.3171 51.8117 73.357 51.3875C73.3744 51.2032 73.4242 51.0363 73.5031 50.8885C73.5836 50.7416 73.6807 50.6312 73.7945 50.5673C73.909 50.5009 74.0394 50.4569 74.1888 50.4403C74.2859 50.4286 74.452 50.4386 74.6894 50.4594L76.5498 50.6378L76.5024 51.1509L74.6603 50.9799C74.4503 50.9599 74.2942 50.9657 74.1855 50.9956C74.0792 51.0263 73.9904 51.0919 73.9173 51.1849C73.8468 51.2837 73.8044 51.4016 73.7911 51.541C73.7704 51.7585 73.8227 51.9561 73.9447 52.1313C74.0701 52.304 74.3241 52.4086 74.7126 52.4443L76.3646 52.6028L76.3157 53.1192Z" fill="#213F9A"/>
<path fill-rule="evenodd" clip-rule="evenodd" d="M76.582 49.8221L73.5503 49.6354L73.5819 49.1165L76.6152 49.3033L76.582 49.8221ZM72.9858 49.6038L72.3947 49.5648L72.4263 49.0476L73.019 49.0841L72.9858 49.6038Z" fill="#213F9A"/>
<path fill-rule="evenodd" clip-rule="evenodd" d="M75.6627 46.3701L75.7548 45.8604C76.101 45.9376 76.3666 46.0928 76.5518 46.3344C76.736 46.5752 76.8199 46.8624 76.8025 47.1961C76.7792 47.617 76.6248 47.9449 76.3392 48.1865C76.0537 48.4264 75.6585 48.5335 75.1505 48.5036C74.8242 48.4878 74.5386 48.4156 74.2995 48.2952C74.0613 48.1699 73.8845 47.9939 73.7749 47.7656C73.6636 47.5315 73.6138 47.2866 73.6288 47.021C73.647 46.6897 73.7467 46.4216 73.9243 46.219C74.1011 46.0165 74.3469 45.8936 74.6557 45.8496L74.7055 46.3593C74.4996 46.3967 74.3402 46.4739 74.2315 46.5884C74.1219 46.7072 74.063 46.8516 74.053 47.0268C74.0389 47.2866 74.1211 47.5016 74.2971 47.6776C74.4755 47.8519 74.7636 47.9507 75.1662 47.9723C75.5738 47.9939 75.8743 47.9291 76.0669 47.7814C76.2595 47.6336 76.365 47.4344 76.3782 47.1803C76.389 46.977 76.3367 46.8018 76.2197 46.6607C76.1043 46.5179 75.9183 46.4191 75.6627 46.3701Z" fill="#213F9A"/>
<path fill-rule="evenodd" clip-rule="evenodd" d="M75.3964 43.456C75.4645 43.6494 75.5135 43.9342 75.5492 44.3144C75.5691 44.5311 75.5948 44.6838 75.6297 44.771C75.6629 44.8639 75.716 44.937 75.7874 44.9851C75.858 45.0399 75.9369 45.0665 76.0274 45.0723C76.1643 45.0781 76.2805 45.0316 76.3785 44.9295C76.4748 44.8324 76.5279 44.6796 76.5379 44.4771C76.5495 44.2762 76.513 44.0985 76.435 43.9375C76.3561 43.7756 76.244 43.6561 76.0962 43.5739C75.9825 43.5133 75.8132 43.4768 75.5857 43.4643L75.3964 43.456ZM76.5495 43.4701C76.7006 43.6718 76.8069 43.8636 76.8641 44.0438C76.9206 44.2239 76.9455 44.4165 76.9347 44.6215C76.9181 44.9586 76.8243 45.2159 76.6516 45.3845C76.4806 45.5604 76.2664 45.6393 76.0141 45.6252C75.8638 45.6202 75.7302 45.5762 75.6114 45.5048C75.4911 45.4284 75.3989 45.3355 75.3284 45.2201C75.2603 45.1055 75.2113 44.9793 75.1798 44.8374C75.1573 44.7336 75.1399 44.58 75.125 44.3725C75.0959 43.9516 75.0527 43.6395 74.9946 43.4361C74.9241 43.4311 74.8784 43.4261 74.8601 43.4261C74.6501 43.4162 74.499 43.4577 74.4094 43.5523C74.2865 43.6768 74.2201 43.8736 74.206 44.1351C74.1935 44.3783 74.2267 44.5634 74.3056 44.6838C74.3845 44.805 74.5314 44.898 74.7423 44.9636L74.6493 45.4666C74.4359 45.411 74.2649 45.3255 74.1387 45.2159C74.0109 45.0997 73.9163 44.942 73.8548 44.7386C73.7934 44.536 73.771 44.3011 73.7851 44.0379C73.7967 43.7756 73.8382 43.5648 73.9071 43.4045C73.976 43.2451 74.0591 43.1273 74.1545 43.0534C74.2525 42.9828 74.3712 42.9338 74.514 42.9106C74.6028 42.9006 74.7614 42.8981 74.9896 42.9089L75.6745 42.9438C76.1535 42.967 76.4565 42.972 76.5844 42.9546C76.7114 42.9388 76.8368 42.9006 76.9546 42.8433L76.9281 43.3871C76.8185 43.4344 76.6931 43.4643 76.5495 43.4701Z" fill="#213F9A"/>
<path fill-rule="evenodd" clip-rule="evenodd" d="M76.5851 40.9353L77.0442 40.8813C77.0674 41.0291 77.0765 41.1602 77.0707 41.2765C77.0616 41.4666 77.0234 41.6094 76.9603 41.7131C76.8964 41.8111 76.8159 41.8833 76.7171 41.9207C76.62 41.9589 76.4157 41.9705 76.1061 41.9539L74.3595 41.8717L74.342 42.2494L73.9402 42.2328L73.9593 41.8509L73.208 41.8144L72.9241 41.2839L73.985 41.3354L74.0083 40.8099L74.4093 40.8315L74.3844 41.352L76.1592 41.44C76.3078 41.4458 76.4016 41.44 76.444 41.4234C76.4871 41.4068 76.5228 41.3786 76.5486 41.3412C76.5768 41.3005 76.5901 41.2433 76.5951 41.1661C76.5975 41.1063 76.5951 41.0291 76.5851 40.9353Z" fill="#213F9A"/>
<path fill-rule="evenodd" clip-rule="evenodd" d="M77.0694 40.4431L74.0327 40.2987L74.0567 39.779L77.0934 39.9243L77.0694 40.4431ZM73.4706 40.2746L72.8779 40.243L72.902 39.7242L73.4931 39.7541L73.4706 40.2746Z" fill="#213F9A"/>
<path fill-rule="evenodd" clip-rule="evenodd" d="M75.6349 38.638C76.0226 38.6546 76.3189 38.5832 76.519 38.4188C76.7207 38.2578 76.827 38.0469 76.8394 37.7846C76.8519 37.5264 76.7647 37.3089 76.5771 37.1271C76.3912 36.9461 76.0981 36.849 75.6996 36.8316C75.3252 36.8125 75.0363 36.8864 74.8363 37.0507C74.6329 37.2151 74.5258 37.4235 74.515 37.6808C74.5034 37.9374 74.5889 38.159 74.7732 38.34C74.9583 38.5176 75.2464 38.6181 75.6349 38.638ZM75.61 39.1685C75.0471 39.1444 74.6379 38.9659 74.383 38.638C74.1697 38.3641 74.0725 38.0386 74.0883 37.6584C74.1091 37.2375 74.2602 36.898 74.5474 36.6465C74.8338 36.3883 75.2173 36.2746 75.6996 36.2953C76.089 36.3136 76.3953 36.3866 76.6128 36.5145C76.832 36.6465 76.998 36.8233 77.1101 37.0566C77.2238 37.2865 77.2753 37.538 77.262 37.8062C77.2429 38.2337 77.0901 38.5749 76.8062 38.8298C76.5207 39.0805 76.123 39.1959 75.61 39.1685Z" fill="#213F9A"/>
<path fill-rule="evenodd" clip-rule="evenodd" d="M77.2857 35.8113L74.249 35.6751L74.2722 35.2069L74.7022 35.2268C74.3793 34.9886 74.2266 34.6549 74.2465 34.2282C74.2548 34.0414 74.2946 33.8745 74.3668 33.7251C74.4416 33.5715 74.5337 33.4586 74.6416 33.3847C74.7529 33.3142 74.8807 33.2652 75.0285 33.2436C75.1264 33.2262 75.2933 33.2262 75.5316 33.2378L77.3986 33.32L77.3745 33.8397L75.5274 33.7575C75.3174 33.7458 75.1596 33.76 75.0559 33.7965C74.9496 33.8313 74.8633 33.8994 74.796 33.9966C74.7296 34.102 74.6939 34.2199 74.6881 34.3585C74.6773 34.5785 74.7379 34.7752 74.8708 34.9396C75.0019 35.1081 75.2617 35.2011 75.6511 35.2185L77.3089 35.2924L77.2857 35.8113Z" fill="#213F9A"/>
<path fill-rule="evenodd" clip-rule="evenodd" d="M76.5215 32.6105L76.4642 32.0933C76.6693 32.0717 76.8295 32.0003 76.9441 31.8725C77.0586 31.7438 77.12 31.5628 77.1317 31.3279C77.1425 31.0863 77.101 30.9086 77.0105 30.7883C76.9192 30.6712 76.8079 30.6048 76.6792 30.6007C76.563 30.594 76.47 30.643 76.3987 30.7426C76.3488 30.8115 76.2833 30.985 76.1994 31.2648C76.0882 31.6425 75.9935 31.9015 75.918 32.046C75.8424 32.1921 75.7403 32.2991 75.615 32.3672C75.4888 32.4378 75.3502 32.4718 75.2024 32.4652C75.0654 32.4602 74.9426 32.4228 74.8305 32.3556C74.7168 32.285 74.6246 32.1987 74.554 32.0875C74.4984 32.0028 74.4528 31.8915 74.4196 31.7479C74.383 31.6068 74.3689 31.459 74.3764 31.298C74.3872 31.0572 74.4312 30.8464 74.5084 30.6687C74.5839 30.4894 74.6827 30.3599 74.8056 30.2761C74.9251 30.1955 75.0845 30.1424 75.2821 30.1183L75.3286 30.633C75.1709 30.6463 75.0463 30.7094 74.9542 30.8132C74.8612 30.9228 74.8097 31.0755 74.8014 31.2789C74.7915 31.5188 74.8222 31.689 74.8961 31.7952C74.97 31.9015 75.058 31.9571 75.165 31.9596C75.2315 31.9621 75.2921 31.9463 75.346 31.9048C75.4033 31.8641 75.4523 31.8011 75.493 31.7106C75.5137 31.6616 75.5652 31.508 75.6449 31.2556C75.7569 30.8962 75.8499 30.643 75.918 30.4985C75.9861 30.3566 76.0807 30.2462 76.2027 30.1673C76.3248 30.0909 76.4734 30.0586 76.6485 30.0644C76.8195 30.071 76.9798 30.1291 77.1267 30.2387C77.2745 30.345 77.3849 30.4961 77.4579 30.6903C77.5335 30.8846 77.565 31.1037 77.5551 31.3436C77.536 31.7413 77.4413 32.041 77.2686 32.241C77.0951 32.4436 76.8469 32.5681 76.5215 32.6105Z" fill="#213F9A"/>
<path fill-rule="evenodd" clip-rule="evenodd" d="M0.698242 0L85.3024 0.0936468L85.2573 1.14562C84.7515 12.9416 84.3875 21.8413 84.1087 28.6572C83.4328 45.1801 83.2578 49.4573 82.7797 53.0633C82.4051 55.8663 82.0368 58.4342 79.9336 62.7312C74.8441 73.1483 66.0021 79.4761 58.3107 83.1823C54.4597 85.0379 50.877 86.2465 48.1581 86.9876C46.7984 87.3582 45.65 87.6131 44.787 87.7739C44.356 87.8542 43.9912 87.9119 43.7036 87.9486C43.4646 87.9792 43.2234 88.0031 43.0366 87.9997C42.8631 88.0029 42.6391 87.9797 42.4385 87.9552C42.1719 87.9227 41.8245 87.871 41.4072 87.7979C40.5716 87.6516 39.4383 87.4166 38.0839 87.0684C35.3761 86.3722 31.7678 85.219 27.8771 83.4063C20.1058 79.7858 11.1257 73.4941 6.02398 62.8783C4.2148 59.1125 3.90666 57.3896 3.25698 53.7565C3.23347 53.625 3.20952 53.4911 3.18503 53.3544M0.698242 0L0.739981 1.05112L0.698242 0ZM0.739981 1.05112L1.74907 1.01105L0.739981 1.05112ZM83.1943 2.11108L2.80013 2.02209C2.81224 2.32453 2.82682 2.68805 2.84368 3.10713C2.89844 4.46845 2.97718 6.41609 3.0731 8.76125C3.26495 13.4517 3.52553 19.7319 3.80048 26.0917C4.07544 32.452 4.36469 38.8901 4.61388 43.8969C4.73849 46.4008 4.85295 48.5437 4.95048 50.139C5.0505 51.775 5.1287 52.7514 5.17283 52.9965C5.19775 53.1356 5.22221 53.2723 5.24602 53.4054C5.88439 56.9753 6.15451 58.4858 7.84444 62.0034C12.6722 72.0493 21.203 78.0688 28.73 81.5755C32.4884 83.3265 35.9762 84.441 38.5869 85.1123C39.8919 85.4478 40.9735 85.6715 41.7555 85.8084C42.1469 85.8769 42.459 85.923 42.6834 85.9504C42.8342 85.9688 42.9198 85.9754 42.9569 85.9783C42.9846 85.9804 42.9854 85.9805 42.9662 85.9818L43.0257 85.9777L43.0853 85.9807C43.0843 85.9806 43.0856 85.9806 43.0896 85.9804C43.1123 85.9793 43.22 85.9743 43.4474 85.9452C43.6882 85.9144 44.014 85.8634 44.4172 85.7883C45.2225 85.6383 46.317 85.3959 47.6269 85.0389C50.2474 84.3246 53.7116 83.1563 57.4339 81.3627C64.8889 77.7705 73.2989 71.7104 78.1191 61.844C80.087 57.8234 80.4167 55.4967 80.7775 52.7978C81.2428 49.2881 81.4125 45.1401 82.082 28.7761C82.3532 22.1482 82.7063 13.5163 83.1943 2.11108ZM1.74907 1.01105C0.739981 1.05112 0.739966 1.05074 0.739981 1.05112L1.74907 1.01105ZM0.762226 1.60913C0.77677 1.97319 0.79816 2.50745 0.825546 3.1883L0.762226 1.60913ZM0.825546 3.1883C0.880318 4.55001 0.959076 6.49811 1.05502 8.8438L0.825546 3.1883ZM1.05502 8.8438C1.24691 13.5351 1.50756 19.817 1.78259 26.179L1.05502 8.8438ZM1.78259 26.179C2.05761 32.5405 2.34708 38.9838 2.59661 43.9973L1.78259 26.179ZM2.59661 43.9973C2.72135 46.5037 2.83625 48.6556 2.93448 50.2623L2.59661 43.9973ZM2.93448 50.2623C3.03015 51.8272 3.11422 52.9602 3.18503 53.3544L2.93448 50.2623Z" fill="#213F9A"/>
<path d="M46.1968 48.6897C46.1827 51.8302 46.1727 54.9574 46.1653 57.965L50.1716 48.7337C50.5202 47.9268 50.1243 47.4826 49.2875 47.7383L46.2516 48.6781C46.2342 48.6839 46.2142 48.6897 46.1968 48.6897Z" fill="#213F9A"/>
<path d="M41.7853 22.0361C41.7372 22.0536 41.65 22.0693 41.5222 22.0859H39.8693C39.8038 22.0859 39.7299 22.0693 39.6444 22.032C39.5614 21.9954 39.5207 21.944 39.5273 21.8784C39.5323 21.812 39.5406 21.7688 39.5539 21.7472C39.5672 21.7248 39.5979 21.7024 39.6444 21.685C39.6909 21.665 39.7332 21.6509 39.7706 21.6484C39.8079 21.6426 39.9565 21.6426 40.2114 21.6426H41.5072C41.6068 21.6426 41.6982 21.6567 41.7795 21.6875C41.8617 21.719 41.8957 21.7788 41.8808 21.8717C41.865 21.9631 41.8327 22.017 41.7853 22.0361Z" fill="#213F9A"/>
<path d="M44.8635 22.6033H46.6741V21.7582L44.8635 22.6033Z" fill="#213F9A"/>
<path fill-rule="evenodd" clip-rule="evenodd" d="M68.1996 50.6423C67.9613 52.4105 67.733 53.977 66.4131 56.6459C59.9727 69.6461 43.9889 72.5301 43.0243 72.4836C42.3212 72.5301 26.0111 69.9915 19.5575 56.7406C18.4317 54.4239 18.2427 53.3861 17.829 51.1153L17.7718 50.8016C17.4721 49.1596 16.1929 17.3514 16.1929 17.3514L69.8067 17.4079C69.4718 25.0981 69.2325 30.8661 69.0502 35.2597C68.6176 45.6864 68.5062 48.3726 68.1996 50.6423ZM38.1456 56.0005C38.6213 56.2794 39.0148 55.817 39.0139 54.9661V51.8813C39.0139 51.032 38.4046 50.0093 37.6566 49.6042L35.7556 48.5756C35.0084 48.1705 34.3974 48.5341 34.3974 49.3825V56.6571C34.3974 57.5114 34.9678 58.6022 35.6651 59.0862L41.0129 62.8152C41.7086 63.3 42.2781 62.9995 42.2781 62.1503V48.0883C42.2781 48.0468 42.2773 48.0011 42.2723 47.9579C42.2723 47.9432 42.2736 47.929 42.2749 47.9154C42.2761 47.903 42.2773 47.891 42.2773 47.8799V34.1956C42.2773 33.3472 41.6214 32.4166 40.8237 32.1377L35.8527 30.3736C35.0516 30.0897 34.3974 30.5488 34.3974 31.3997V39.0271C34.3974 39.8789 35.0259 40.8651 35.7938 41.2246L37.6151 42.0688C38.3847 42.4299 39.0114 42.0282 39.0114 41.1806V38.0957C39.0114 37.2456 38.6179 36.3881 38.1456 36.193C37.6641 35.9954 37.2698 36.5325 37.2698 37.3735V37.3934C37.2698 38.2393 37.1403 38.7922 36.7044 38.6868C36.2852 38.5888 36.1383 37.7412 36.1383 36.8928V34.7178C36.1383 33.8702 36.7858 33.4269 37.5711 33.7357L38.8163 34.223C39.6066 34.5343 40.2533 35.4816 40.2533 36.3291V44.233C40.2533 44.7942 39.9794 45.147 39.5759 45.2242L33.124 42.063L33.1555 26.393L31.291 25.7721L31.2536 41.1449C31.2536 41.1449 25.3562 38.2485 25.0856 38.1165C24.7535 37.9114 24.2405 37.1892 24.2247 36.3433V30.2698C24.2247 29.4239 24.8822 28.9648 25.6808 29.2546L27.0846 29.7634C27.8824 30.0565 28.4502 30.8792 28.5017 31.8712V33.6129C28.417 34.6655 28.2377 34.9893 27.8724 34.8357C27.3004 34.6008 27.2083 33.925 27.2083 33.1662C27.2083 32.4 26.8165 31.6321 26.34 31.4379C25.861 31.2561 25.4666 31.7924 25.4666 32.6424V34.8855C25.4666 35.7356 26.0992 36.7201 26.8679 37.0788L28.8786 38.0144C29.6506 38.3763 30.1736 38.0476 30.0748 37.1228V29.966C30.1412 29.1226 29.6174 28.2044 28.8105 27.9438L24.2646 26.4536C23.4593 26.1896 22.7985 26.6728 22.5918 27.5195L22.6275 48.7582C22.7886 49.8615 23.4062 50.6983 23.9516 51.2321L28.8578 54.6432C29.7062 55.0757 30.1064 54.8134 30.0773 53.9292V47.1261C30.1064 46.198 29.6714 45.2433 28.9317 44.8241L26.814 43.6362C26.0768 43.2236 25.4666 43.5805 25.4666 44.4281V46.6687C25.4666 47.5146 25.861 48.4577 26.34 48.7607C26.8173 49.062 27.2141 48.6304 27.2141 47.7986C27.2141 46.9609 27.2332 46.2985 27.8757 46.6762C28.2377 46.8945 28.539 47.7662 28.539 48.6138V50.6219C28.539 51.4695 27.9596 51.7825 27.2473 51.3134L25.5206 50.1728C24.8091 49.7071 24.2305 48.6304 24.2305 47.782V41.7077C24.2305 40.8601 24.8457 40.4865 25.6003 40.8759L31.2453 43.8205L31.2113 58.5125C31.2511 59.6332 31.3267 60.5688 32.5412 61.57L42.3113 68.5258L42.2648 65.8544C42.2648 65.8544 34.2264 60.3571 33.7947 59.9736C33.2219 59.5685 33.0941 58.0078 33.0941 57.5047L33.1182 44.7942L38.8861 47.7952C39.6365 48.1829 40.2558 49.204 40.2558 50.0499V57.9547C40.2558 58.8023 39.6573 59.1351 38.9301 58.6985L37.4599 57.8119C36.7335 57.3686 36.1399 56.3176 36.1399 55.4642V53.026C36.1399 52.176 36.2586 51.5359 36.7078 51.8032C37.0149 51.99 37.2731 52.8185 37.2731 53.6669V53.9483C37.2731 54.7968 37.6649 55.7215 38.1456 56.0005ZM52.8646 44.6817C53.7006 44.421 54.104 44.871 53.7637 45.6804L48.679 57.6529C48.3386 58.4598 47.4429 59.48 46.6941 59.9291L46.1951 60.2247L46.1619 60.2405C46.1536 62.8239 46.1536 65.2911 46.1619 67.5624L44.0982 69.0675C44.1036 67.5985 44.1082 61.9251 44.1135 55.3847C44.1205 46.823 44.1286 36.7752 44.1413 32.7283C44.1455 31.5794 44.1496 30.4305 44.1555 29.2865C44.1561 28.5902 44.9581 28.3924 45.6977 28.21C45.8884 28.1629 46.0749 28.1169 46.2425 28.0637C46.2616 33.1359 46.2366 39.1745 46.2109 45.3259L50.2629 34.8601C50.575 34.0466 51.3952 33.1658 52.0809 32.9043C52.765 32.642 53.0589 33.0894 52.7334 33.8997L48.3917 44.7548C48.068 45.565 48.4864 46.0191 49.3207 45.7634L52.8646 44.6817ZM60.7727 35.8173L65.0878 34.3048C65.9055 34.0142 66.2957 34.4293 65.9462 35.2321L57.0054 55.5725C56.6543 56.3728 55.7818 57.4071 55.0753 57.8712C54.363 58.3311 54.0567 58.0522 54.3929 57.2486L62.1681 38.7154C62.5052 37.911 62.1026 37.4776 61.279 37.7566L56.9075 39.2392C56.0781 39.5215 55.6963 39.1031 56.0582 38.3045L59.9292 29.7829C60.2928 28.986 59.9259 28.6033 59.1123 28.9312L48.0771 33.3899C47.2652 33.7187 46.6052 33.5228 46.6052 32.9583C46.6052 32.3888 47.2727 31.6724 48.0879 31.3586C48.0879 31.3586 62.3275 25.8887 62.5367 25.8173C62.8671 25.6977 63.6657 25.9194 63.5296 26.6059C63.5097 26.7097 59.9126 34.8909 59.9126 34.8909C59.5606 35.6953 59.9491 36.1104 60.7727 35.8173ZM54.5506 41.073L58.6475 39.9208C59.4884 39.6834 59.8902 40.1433 59.5424 40.9477L51.538 59.3929C51.1902 60.1915 50.3235 61.2591 49.6104 61.768L48.9928 62.1996C48.2813 62.711 47.9841 62.4678 48.3261 61.6667L55.9677 44.006C56.3172 43.2015 55.9113 42.7408 55.0712 42.9774L51.4832 43.9894C50.6431 44.2243 50.2289 43.7627 50.5651 42.9583L54.5764 33.3883C54.9143 32.5805 55.7718 31.635 56.4774 31.2847C57.1872 30.9285 57.4828 31.3004 57.1299 32.0941L53.6566 40.0503C53.3062 40.8489 53.7114 41.3088 54.5506 41.073ZM35.2139 21.687H34.2111V21.2429H36.4724V23.4129H35.2139V21.687ZM41.9887 21.2043C41.87 21.1968 41.6749 21.1918 41.4001 21.1877H39.6942L39.3131 21.2026C39.2343 21.2043 39.1263 21.2184 38.9927 21.2433C38.8565 21.2682 38.7395 21.3014 38.6399 21.3421C38.5403 21.382 38.4622 21.4293 38.4066 21.4791C38.3493 21.5306 38.3128 21.5928 38.2937 21.6733C38.2738 21.7522 38.2638 21.8286 38.2638 21.9058C38.2638 21.9813 38.2738 22.0477 38.2896 22.1C38.3078 22.1515 38.3377 22.2038 38.3775 22.2561C38.4191 22.3101 38.4963 22.3566 38.6092 22.3981C38.7221 22.4363 38.8333 22.4678 38.9429 22.4852C39.0533 22.5043 39.1803 22.5184 39.3256 22.5242C39.4725 22.5359 39.7 22.5359 40.0121 22.5284H41.132L41.6268 22.5043L41.9082 22.4578C41.9123 22.4578 41.9082 22.4753 41.8957 22.5018C41.8833 22.5284 41.8825 22.5674 41.8908 22.6156C41.8982 22.6654 41.8924 22.7152 41.87 22.7592C41.8484 22.7999 41.8169 22.8331 41.7762 22.853C41.733 22.8704 41.6616 22.8912 41.5595 22.9094C41.4558 22.9285 41.3146 22.9385 41.132 22.9385H40.2388C39.998 22.9385 39.8328 22.9194 39.7423 22.8845C39.6518 22.853 39.5979 22.8214 39.5796 22.8024C39.5691 22.7877 39.5589 22.7722 39.5498 22.7527C39.546 22.7446 39.5424 22.7357 39.5389 22.726L39.519 22.6654L38.2705 22.6554L38.2638 22.7642C38.258 22.9011 38.2854 22.9916 38.3443 23.0439C38.4033 23.0929 38.4606 23.1336 38.5145 23.1635C38.5668 23.1967 38.6092 23.2158 38.6374 23.2274L38.6522 23.2325L38.6977 23.2481C38.7251 23.2572 38.7589 23.2678 38.7993 23.2789C38.8215 23.2868 38.8415 23.2934 38.8595 23.299C38.8907 23.3087 38.9156 23.3153 38.9341 23.3202L38.9562 23.3262C38.9757 23.3318 39.0158 23.3375 39.0765 23.3461L39.1405 23.3552L39.2333 23.3659C39.268 23.3701 39.3007 23.3739 39.3311 23.3771C39.3528 23.3793 39.3734 23.3812 39.3928 23.3826L39.399 23.3831C39.4705 23.3881 39.6043 23.3977 39.7955 23.4017H41.3528L41.6882 23.3934C41.7385 23.3934 41.789 23.3914 41.84 23.3887C41.863 23.3874 41.886 23.3861 41.9092 23.3847L41.9456 23.3826C42.0166 23.3784 42.093 23.3694 42.1712 23.3602L42.2137 23.3552L42.2332 23.3527C42.3189 23.3415 42.3858 23.3328 42.432 23.322C42.4843 23.3146 42.5491 23.2963 42.6246 23.2722C42.7035 23.2456 42.7666 23.2216 42.8147 23.1967C42.8662 23.1751 42.9102 23.1477 42.9492 23.1145C42.9891 23.0821 43.0214 23.0489 43.0447 23.0157C43.0679 22.9833 43.0912 22.9509 43.1111 22.9128C43.131 22.8729 43.1518 22.8024 43.1717 22.6986L43.1833 21.9938L43.1368 21.685C43.1294 21.6268 43.1078 21.582 43.0696 21.5447C43.0322 21.5056 42.9766 21.4683 42.9027 21.4293C42.828 21.3861 42.7442 21.3529 42.6479 21.3197C42.5524 21.2873 42.4486 21.2649 42.3349 21.2491C42.2212 21.23 42.1066 21.2159 41.9887 21.2043ZM47.8961 21.1945V22.6033H48.4357V23.0789L47.8961 23.0856V23.3977L46.6741 23.4019V23.0789H43.5378V22.4713L46.5346 21.1945H47.8961ZM48.843 21.8997V22.0316H50.036V21.9793C50.0326 21.9544 50.0384 21.9104 50.0567 21.8482C50.0717 21.7851 50.1024 21.7469 50.1455 21.7311C50.1895 21.7137 50.246 21.7004 50.3199 21.6871C50.3937 21.6755 50.4942 21.6705 50.622 21.6705H51.7527C51.8855 21.6705 51.9901 21.6705 52.0657 21.6755C52.1404 21.678 52.2151 21.6921 52.2857 21.7195C52.3579 21.7411 52.3845 21.81 52.3654 21.9163L52.3479 21.9935C52.3347 22.0366 52.3039 22.069 52.2591 22.0906C52.2126 22.113 52.1421 22.1296 52.0499 22.1404C51.9578 22.152 51.8324 22.157 51.6738 22.1628L51.326 22.1736L50.6685 22.1894C50.4751 22.196 50.2916 22.2068 50.1148 22.2226C49.9388 22.2342 49.7985 22.25 49.6989 22.2666C49.6057 22.282 49.5161 22.3024 49.4307 22.3218L49.4108 22.3263C49.3212 22.3546 49.2324 22.387 49.1502 22.4293C49.0655 22.4683 49.0057 22.5156 48.9725 22.5638C48.9368 22.6111 48.9086 22.6551 48.8837 22.6958C48.8605 22.7373 48.848 22.7863 48.848 22.8452V23.3997H53.6081V22.934H50.2551C50.2327 22.9307 50.2053 22.929 50.1763 22.9232C50.1649 22.9219 50.1546 22.9202 50.145 22.9181C50.1307 22.915 50.1183 22.9111 50.1073 22.9066C50.0907 22.8983 50.0816 22.885 50.0816 22.8585C50.0783 22.8452 50.0799 22.8344 50.0841 22.8211C50.0872 22.8137 50.0907 22.807 50.0948 22.7993C50.0985 22.7925 50.1026 22.7849 50.1073 22.7755C50.1173 22.7539 50.1406 22.7323 50.1787 22.7124C50.2161 22.6933 50.2692 22.6767 50.3381 22.6626C50.4062 22.6534 50.5191 22.6443 50.6735 22.6377L51.7469 22.6028C52.1155 22.5945 52.3579 22.5845 52.4741 22.5762C52.5878 22.5679 52.7107 22.553 52.8361 22.5355C52.9639 22.5156 53.0635 22.4907 53.1374 22.4642C53.2113 22.4359 53.2752 22.4036 53.3292 22.3712C53.3848 22.3388 53.4296 22.3056 53.4645 22.2724C53.5018 22.2392 53.5292 22.2002 53.55 22.1487C53.5724 22.1005 53.5824 22.0316 53.5865 21.9387C53.5865 21.8698 53.584 21.8233 53.5799 21.8017C53.5732 21.7793 53.5641 21.7411 53.5492 21.6871C53.5317 21.6315 53.5135 21.5933 53.4944 21.5717C53.4745 21.5526 53.4363 21.5228 53.3806 21.4879C53.3259 21.4522 53.2686 21.419 53.2096 21.3908C53.149 21.3667 53.081 21.3418 53.0029 21.3227C52.9266 21.3011 52.8344 21.282 52.7281 21.2687C52.6227 21.2538 52.4899 21.2397 52.3305 21.2264C52.1719 21.2156 52.04 21.2106 51.9378 21.2106H50.4718C50.3556 21.2106 50.2186 21.2156 50.0634 21.2239C49.9073 21.2322 49.7803 21.2438 49.6798 21.2538C49.5819 21.2646 49.4748 21.2878 49.3619 21.3144C49.2498 21.3418 49.1419 21.3825 49.0447 21.4406C48.9443 21.5003 48.8854 21.5668 48.8688 21.6373C48.8513 21.712 48.843 21.7992 48.843 21.8997Z" fill="#213F9A"/>
<path fill-rule="evenodd" clip-rule="evenodd" d="M9.56897 12.2166C9.56897 12.2166 9.44943 12.2863 9.44196 12.3677C9.43366 12.4499 9.41124 12.513 9.34317 12.5644C9.2751 12.63 9.19125 12.713 9.14725 12.9338C9.10077 13.1505 8.99866 13.4676 8.90485 13.6204C8.81436 13.7731 8.60433 13.9815 8.52713 14.0421C8.45241 14.1019 8.44494 14.2721 8.51385 14.3601C8.58275 14.4472 8.70727 14.6382 8.82432 14.7618C8.9339 14.8797 9.02024 14.9727 9.02024 15.0333C9.02024 15.0931 8.99866 15.2284 9.10077 15.3778C9.2062 15.5281 9.29917 15.6343 9.48513 15.6294C9.67606 15.6194 10.0222 15.3911 10.0762 15.2035C10.1285 15.0159 10.1966 14.9943 10.2049 14.8631C10.2123 14.7369 10.3394 14.4879 10.356 14.3268C10.3701 14.1716 10.3958 13.8611 10.3344 13.7026C10.2638 13.5432 10.18 13.1912 10.18 13.0675C10.18 12.9471 10.0762 12.6084 9.98488 12.4549C9.89356 12.3013 9.86285 12.2614 9.76157 12.2166C9.65282 12.1701 9.56897 12.2166 9.56897 12.2166Z" fill="#213F9A"/>
<path fill-rule="evenodd" clip-rule="evenodd" d="M13.2823 4.96673C13.2823 4.96673 12.9818 5.04062 12.8614 5.17178C12.7443 5.30046 12.6995 5.42996 12.7983 5.58935C12.8946 5.75206 13.1519 5.92805 13.1968 6.05258C13.2399 6.17876 13.2599 6.45188 13.1968 6.54569C13.1287 6.64448 13.1187 6.86281 13.0789 6.92507C13.0324 6.99065 12.6563 7.2563 12.4197 7.3443C12.1832 7.43146 11.8627 7.3775 11.6792 7.62655C11.4925 7.87228 11.6253 8.18458 11.8835 8.28337C12.1408 8.37884 12.1184 8.36721 12.2056 8.34646C12.2902 8.32321 12.5941 8.22526 12.6563 8.25846C12.7211 8.29084 12.8406 8.33567 12.8116 8.41038C12.7759 8.4851 12.6364 8.71256 12.6032 8.81052C12.5708 8.9093 12.355 9.25963 12.3666 9.31442C12.3766 9.36921 12.3027 9.36008 12.2695 9.44558C12.2363 9.5286 11.6685 10.1454 11.4701 10.3164C11.2808 10.4858 10.5038 11.0602 10.3742 11.1042C10.2472 11.1424 10.0746 11.252 10.1601 11.3491C10.2472 11.4487 10.2663 11.5085 10.2663 11.5085C10.2663 11.5085 10.7088 11.5201 10.8682 11.4703C11.0301 11.4155 11.3879 11.2072 11.4925 11.0494C11.6037 10.8876 11.871 10.5962 11.9781 10.6169C12.0844 10.6393 12.1832 10.7265 12.2056 10.812C12.2247 10.8959 12.3259 11.252 12.6256 11.3383C12.9261 11.4255 13.0656 11.4255 13.2275 11.1997C13.3902 10.9756 13.7248 10.1902 13.885 9.90798C14.046 9.62656 14.359 9.07949 14.4669 9.07949C14.5732 9.07949 14.6379 9.12846 14.6288 9.20816C14.6172 9.28204 14.4113 9.61494 14.315 9.74776C14.2179 9.8756 14.046 10.0508 14.0344 10.196C14.0261 10.348 14.056 10.6601 14.1448 10.7589C14.2278 10.8519 14.2403 10.9208 14.1755 11.027C14.1108 11.1358 13.5073 11.8489 13.3777 11.9717C13.2474 12.1029 13.1852 12.2739 13.2707 12.4599C13.357 12.6417 13.3686 12.6417 13.4965 12.6002C13.626 12.5545 13.7779 12.4067 13.9373 12.2415C14.1008 12.0797 14.2511 11.9302 14.315 12.0058C14.3797 12.0797 14.4113 12.1386 14.3797 12.3727C14.3449 12.6085 14.2727 12.997 14.2179 13.0626C14.1639 13.129 14.0759 13.2377 14.0908 13.4187C14.1008 13.6022 14.1008 14.1401 14.056 14.341C14.0153 14.5461 13.8949 14.7063 13.8725 14.8682C13.8509 15.0325 13.7978 15.2683 13.9157 15.3779C14.0344 15.4866 14.1448 15.524 14.2403 15.4426C14.3374 15.353 14.691 15.0649 14.8081 14.7943C14.9276 14.5261 14.9185 14.4929 14.9716 14.4091C15.0239 14.3211 15.0912 14.248 15.0912 14.1617C15.0912 14.0745 15.0912 13.9317 15.1659 13.8288C15.2414 13.7192 15.2522 13.6022 15.2522 13.5474C15.2522 13.4942 15.2738 13.2759 15.2738 13.1057C15.2738 12.9339 15.3269 12.5155 15.2738 12.3627C15.2199 12.2141 15.131 12.1162 15.1875 11.8489C15.2414 11.5799 15.2846 11.3275 15.3917 11.1781C15.4963 11.027 15.6391 10.8793 15.5868 10.7041C15.5303 10.5356 15.2954 10.4858 15.2954 10.3803C15.2954 10.2716 15.4365 10.1122 15.4365 9.98186C15.4365 9.85402 15.3269 9.56513 15.3269 9.47547C15.3269 9.3883 15.7769 9.04296 15.8441 8.9724C15.9081 8.89353 15.8549 8.78644 15.7769 8.70177C15.7038 8.61377 15.4042 8.33567 15.0488 8.42034C14.6911 8.50502 14.5732 8.69097 14.2926 8.92591C14.0153 9.16748 13.5944 9.57675 13.5072 9.61494C13.4209 9.65976 13.2599 9.68135 13.2599 9.58256C13.2599 9.48958 13.6368 9.19737 13.7878 9.06786C13.9373 8.9367 14.3797 8.6835 14.6479 8.44442C14.9185 8.20367 15.2414 8.01174 15.5204 7.87228C15.8018 7.73281 15.9521 7.75439 16.0824 7.65561C16.2086 7.55765 16.2326 7.49705 16.2086 7.292C16.1845 7.08778 15.9728 7.13095 15.8749 7.13095C15.7769 7.13095 15.3917 7.26709 15.2414 7.3692C15.0912 7.45969 14.8214 7.73281 14.735 7.74443C14.6479 7.75439 14.4237 7.91959 14.3698 7.95695C14.315 8.00178 14.0651 8.27175 14.0261 8.14971C13.9829 8.03333 14.1008 7.79922 14.2403 7.61576C14.3797 7.43146 14.7774 7.06287 14.9824 6.84952C15.1875 6.63368 15.2414 6.47263 15.1003 6.15137C14.9617 5.82843 14.8081 5.67901 14.6819 5.64248C14.5524 5.60927 14.4462 5.58935 14.3698 5.46981C14.2926 5.35276 14.1448 5.17178 13.8634 5.07382C13.5845 4.97504 13.2823 4.96673 13.2823 4.96673Z" fill="#213F9A"/>
<path fill-rule="evenodd" clip-rule="evenodd" d="M16.7271 7.31209C16.7271 7.31209 16.5553 7.35526 16.5553 7.5462C16.5553 7.7446 16.5653 8.0667 16.5553 8.44476C16.542 8.82248 16.5337 9.36042 16.5337 9.60448C16.5337 9.85436 16.4988 10.8007 16.5229 10.995C16.542 11.1892 16.5553 11.816 16.4598 11.963C16.3627 12.1165 16.0904 12.4345 15.9078 12.4345C15.7251 12.4345 15.53 12.608 15.5956 12.7267C15.6604 12.8487 15.9634 12.9425 16.0821 12.9865C16.2 13.0297 16.4067 13.1285 16.4598 13.2538C16.5105 13.385 16.4988 13.5253 16.6076 13.6125C16.7172 13.6963 16.8251 13.742 16.9314 13.6531C17.0384 13.5668 17.3522 13.3203 17.4585 13.0629C17.5648 12.8022 17.598 12.4146 17.598 12.2867C17.598 12.1597 17.6752 12.0285 17.6752 11.9107C17.6752 11.7878 17.544 11.459 17.544 11.2731C17.544 11.0938 17.5008 10.1242 17.4817 9.9382C17.4585 9.75806 17.427 9.19771 17.427 8.93704C17.427 8.68301 17.4884 8.41072 17.3821 8.15005C17.275 7.89486 17.2427 7.7114 17.1024 7.53873C16.9629 7.36938 16.7271 7.31209 16.7271 7.31209Z" fill="#213F9A"/>
<path fill-rule="evenodd" clip-rule="evenodd" d="M26.2567 6.94582C26.3165 6.99148 26.4053 7.12099 26.4792 7.30113C26.5515 7.47878 26.5955 7.70126 26.5224 7.78843C26.4518 7.87477 26.3763 8.06736 26.4635 8.18815C26.5515 8.30188 26.715 8.30188 26.8777 8.24792C27.0388 8.18815 27.1616 8.26369 27.2604 8.17902C27.3633 8.09393 27.5344 7.8482 27.6057 7.77681C27.6763 7.70708 27.7211 7.5784 27.6165 7.4929C27.5202 7.4049 27.3185 7.20317 27.3185 7.20317C27.3185 7.20317 27.2878 7.05706 27.1309 6.9176C26.9757 6.76983 26.7864 6.67187 26.7864 6.55731C26.7864 6.44192 26.7864 6.27174 26.7308 6.15469C26.6727 6.04261 26.5705 6.05922 26.5705 6.05922C26.5705 6.05922 26.1837 6.29664 26.2161 6.58969C26.2443 6.88605 26.1986 6.90432 26.2567 6.94582Z" fill="#213F9A"/>
<path fill-rule="evenodd" clip-rule="evenodd" d="M26.2257 11.2247C26.1701 11.1467 26.0862 11.062 26.0862 10.9508C26.0862 10.8329 26.2572 10.7216 26.2572 10.7216C26.2572 10.7216 26.4847 10.6478 26.6167 10.6328C26.7445 10.617 26.6275 10.9034 26.6275 10.9034L26.3984 11.1782C26.3984 11.1782 26.2846 11.2953 26.2257 11.2247ZM28.4239 12.7862C28.282 12.5546 28.0222 12.3844 28.0222 12.3844C28.0222 12.3844 27.9358 12.225 27.7208 12.225C27.5041 12.225 26.4449 12.2143 26.4449 12.2143C26.4449 12.2143 26.3286 12.113 26.3419 12.0673C26.3544 12.0258 26.7304 11.7793 26.8151 11.7394C26.9031 11.6937 26.9894 11.5352 27.0741 11.4547C27.1613 11.3658 27.4327 11.0495 27.5207 10.9948C27.6062 10.9342 27.6644 10.8055 27.7631 10.6776C27.8636 10.5465 27.8636 10.4469 27.7905 10.3738C27.7208 10.3024 27.7349 10.0832 27.5622 9.98861C27.3887 9.88235 27.2211 9.88235 26.9172 10.0036C26.6167 10.1165 26.2722 10.2177 26.2722 10.2177C26.2722 10.2177 26.1858 10.1306 26.2 10.0434C26.2157 9.96122 26.586 9.60176 26.7869 9.38509C26.9894 9.16676 27.1181 9.16676 27.1903 9.1128C27.2609 9.05635 27.3323 8.85545 27.2758 8.73923C27.2211 8.6255 26.9753 8.55327 26.9753 8.55327C26.9753 8.55327 26.3004 8.81062 26.2157 8.83802C26.1269 8.86956 25.6836 8.99741 25.5815 9.05635C25.4827 9.1128 25.2386 9.16676 25.0942 9.16676C24.9497 9.16676 24.7215 9.12525 24.5621 9.28215C24.4068 9.44071 24.362 9.47059 24.3894 9.57187C24.4201 9.67066 24.5488 9.81262 24.636 9.90394C24.7215 9.98861 24.7505 10.0733 24.9622 10.0733C25.1764 10.0733 25.3225 9.91639 25.3225 9.91639C25.3225 9.91639 25.6097 9.72711 25.7525 9.72711C25.8953 9.72711 25.9534 9.81262 25.8571 9.9305C25.7525 10.0434 25.5666 10.2609 25.4503 10.4137C25.3383 10.573 25.1506 10.9034 25.0801 10.964C25.0095 11.0163 24.9091 11.2521 25.0095 11.3932C25.1091 11.5352 25.2943 11.4547 25.4221 11.6672C25.5541 11.8805 25.623 12.0391 25.6404 12.181C25.6545 12.3296 25.623 12.9315 25.623 13.1009C25.623 13.271 25.6977 13.7417 25.4097 13.7633C25.1249 13.7799 24.46 13.7633 24.46 13.7633C24.46 13.7633 24.2184 13.7193 24.2308 13.8339C24.2483 13.9493 24.3761 14.0066 24.4915 14.034C24.6069 14.0647 24.9622 14.2498 25.0095 14.3345C25.051 14.425 25.2071 14.4084 25.3225 14.4084C25.437 14.4084 25.3848 14.3345 25.54 14.3494C25.6977 14.366 25.7973 14.366 25.7973 14.366C25.7973 14.366 26.0273 14.2075 26.0273 14.1087C26.0273 14.0066 26.0862 13.2893 26.0862 13.1158C26.0862 12.9423 26.1269 12.7265 26.3286 12.6683C26.5279 12.6152 27.0451 12.5845 27.2028 12.6858C27.3638 12.7862 27.5788 12.802 27.4917 12.9863C27.4037 13.1714 27.4037 13.2428 27.2609 13.3034C27.1181 13.3574 26.9031 13.5915 26.83 13.6488C26.7603 13.7027 26.4449 13.8613 26.4449 13.9626C26.4449 14.0647 26.2846 14.1352 26.3286 14.2075C26.3701 14.2772 26.3701 14.3494 26.5569 14.3204C26.7445 14.2946 26.9753 14.2075 27.1762 14.1087C27.3763 14.0066 27.7349 13.8513 27.8943 13.8513C28.0512 13.8513 28.1517 13.8895 28.282 13.8339C28.4107 13.7799 28.5933 13.5475 28.6107 13.3723C28.624 13.2055 28.5676 13.0162 28.4239 12.7862Z" fill="#213F9A"/>
<path fill-rule="evenodd" clip-rule="evenodd" d="M24.8782 13.016C24.9628 12.943 25.0234 12.9156 24.9628 12.8135C24.9097 12.713 24.7927 12.7263 24.7927 12.7263C24.7927 12.7263 24.4772 12.8442 24.2622 12.9588C24.0472 13.0708 23.9011 13.1439 23.7732 13.1314C23.6437 13.1165 23.4304 13.2053 23.2992 13.29C23.1714 13.3722 22.9555 13.4187 22.8269 13.4759C22.6965 13.5332 22.5388 13.7026 22.3213 13.7632C22.1079 13.8196 21.7203 13.7632 21.5791 13.7906C21.4322 13.8196 21.3193 14.0064 21.3193 14.1509C21.3193 14.2945 21.3044 14.5244 21.1599 14.6249C21.0155 14.7262 21.1466 14.9528 21.233 15.069C21.3193 15.1861 21.5194 15.284 21.692 15.1861C21.8655 15.0831 22.1221 14.8407 22.2383 14.8407C22.3503 14.8407 22.3362 14.7535 22.4965 14.6249C22.6542 14.497 22.6965 14.497 22.9555 14.2945C23.2154 14.0903 23.3573 13.9632 23.4578 13.9383C23.5582 13.9051 23.7201 13.8611 23.8479 13.7026C23.975 13.5473 24.2041 13.4187 24.3768 13.2717C24.5494 13.1314 24.7927 13.0849 24.8782 13.016Z" fill="#213F9A"/>
<path fill-rule="evenodd" clip-rule="evenodd" d="M40.7495 9.2984C40.7495 9.50593 40.5644 9.62631 40.4988 9.80894C40.4324 9.9924 40.3933 10.5204 40.3933 10.7429C40.3933 10.9637 40.5253 11.1472 40.6573 11.3555C40.7877 11.5689 40.7744 11.8204 40.9346 12.2737C41.0898 12.7344 41.0508 12.9336 41.0259 13.1802C41.0002 13.4317 40.6822 13.5222 40.4207 13.5363C40.1559 13.5504 40.0272 13.328 39.8587 13.2101C39.6827 13.0897 39.7126 12.7892 39.7126 12.7892C39.7126 12.7892 39.7375 11.9209 39.7126 11.6071C39.6827 11.2916 39.7782 10.7296 39.7649 10.4913C39.7525 10.2556 39.882 9.79649 40.1061 9.42956C40.3269 9.06263 40.6424 8.99705 40.6424 8.99705C40.6424 8.99705 40.6972 8.98294 40.7354 9.05018C40.7744 9.11244 40.7495 9.08837 40.7495 9.2984ZM39.0634 9.97829C39.0634 9.97829 38.9754 10.0646 38.9049 9.86207C38.8343 9.66117 39.1066 9.54993 39.1066 9.54993C39.1066 9.54993 39.2203 9.66117 39.2361 9.80728C39.2502 9.94924 39.0634 9.97829 39.0634 9.97829ZM39.1805 11.6295C39.1614 11.7432 39.0792 11.7432 39.0369 11.7025C38.9896 11.656 38.9223 11.5141 38.9049 11.3447C38.8916 11.1704 38.963 11.0376 38.963 11.0376L39.0634 11.0102C39.0634 11.0102 39.0875 10.9994 39.1788 11.1181C39.2643 11.2351 39.1954 11.5141 39.1805 11.6295ZM38.5919 10.1186C38.5189 10.2531 38.533 10.7537 38.533 10.9255C38.533 11.0027 38.4549 11.0625 38.3977 11.1828C38.3304 11.3223 38.2723 11.5249 38.1901 11.6411C38.0291 11.8586 37.6389 12.3849 37.4953 12.4546C37.3508 12.5269 37.2404 12.5916 37.1981 12.3467C37.1541 12.1027 37.4845 11.9159 37.5426 11.8586C37.6007 11.7997 37.6563 11.6295 37.7427 11.5141C37.8298 11.3987 38.0299 11.2268 38.103 11.1123C38.1743 10.9977 38.0888 10.8674 37.9876 10.7694C37.8863 10.6657 37.8298 10.7694 37.7136 10.6972C37.6007 10.6217 37.6148 10.5378 37.7136 10.4083C37.8132 10.283 38.044 10.0198 38.1453 9.91935C38.2466 9.81724 38.362 9.75 38.362 9.75C38.362 9.75 38.4309 9.71679 38.562 9.79068C38.6924 9.86207 38.6616 9.9924 38.5919 10.1186ZM37.428 9.76245C37.4421 9.64789 37.7427 9.53333 37.7427 9.53333C37.7427 9.53333 37.7999 9.5931 37.7999 9.64789C37.7999 9.70268 37.7427 9.76245 37.6862 9.87784C37.6323 9.9924 37.5144 10.1045 37.5144 10.1045L37.3575 10.0198C37.3575 10.0198 37.4114 9.87784 37.428 9.76245ZM36.6103 9.70268C36.6244 9.89113 36.6244 10.0372 36.5663 10.1186C36.5091 10.2066 36.3497 10.3685 36.2218 10.351C36.0931 10.3369 36.0765 10.2398 36.0068 10.1493C35.9338 10.0646 35.835 10.1792 35.7204 10.1493C35.6034 10.1186 35.6183 9.96335 35.6747 9.86207C35.7345 9.76245 36.0068 9.49348 36.1488 9.40299C36.294 9.31915 36.4543 9.20459 36.4543 9.20459C36.4543 9.20459 36.5091 9.20459 36.5796 9.30338C36.6518 9.40299 36.5954 9.51756 36.6103 9.70268ZM41.2575 9.41877C41.4045 9.17221 41.7199 8.95803 41.7199 8.95803C41.7199 8.95803 41.8777 8.88747 41.6776 8.61352C41.475 8.34289 41.1629 8.14033 40.8848 8.28561C40.6142 8.42839 40.1833 8.79947 40.0405 8.7397C39.8977 8.6874 39.8695 8.57035 39.8977 8.45579C39.9235 8.34289 40.0679 8.14033 40.0679 7.81167C40.0679 7.4821 39.9094 7.19404 39.7384 7.16498C39.5657 7.13676 39.4943 7.23554 39.4229 7.30528C39.349 7.37999 39.2502 7.49704 39.2502 7.49704C39.2502 7.49704 39.2361 7.81167 39.2967 7.85401C39.349 7.89801 39.3382 8.19844 39.2967 8.30138C39.2502 8.401 39.1954 8.62763 39.0792 8.57035C38.963 8.50975 39.0203 8.42839 39.0203 8.313C39.0203 8.19844 39.134 8.11136 38.8916 7.95197C38.6467 7.7959 38.5189 7.75024 38.4167 8.01174C38.3188 8.26983 38.274 8.42839 38.274 8.42839C38.274 8.42839 38.2158 8.98792 38.0166 9.04271C37.8132 9.10082 37.6862 9.10082 37.6862 8.98792C37.6862 8.87336 37.8298 8.57035 37.8415 8.42839C37.8589 8.28561 37.8132 8.11136 38.0008 7.94035C38.1901 7.76933 38.6176 7.59583 38.777 7.4215C38.9348 7.25215 39.2203 7.07948 39.2203 7.07948C39.2203 7.07948 39.5516 6.96325 39.5516 6.81881C39.5516 6.67685 39.5242 6.57889 39.2095 6.67685C38.8916 6.77564 38.5753 6.93503 38.3902 7.13676C38.2009 7.33931 38.0291 7.50867 37.7999 7.52278C37.5683 7.53523 37.4695 7.43644 37.5144 7.27871C37.5567 7.12015 37.9585 6.9508 38.1453 6.83624C38.3329 6.72085 38.5189 6.51912 38.533 6.28917C38.5487 6.05922 38.562 5.94382 38.3188 5.7147C38.0722 5.4806 37.785 5.31457 37.6148 5.22657C37.4421 5.13857 37.0968 5.0265 37.0229 5.17095C36.9548 5.31457 36.925 5.31457 37.0096 5.44075C37.0968 5.57192 37.1699 5.90066 37.0536 6.10238C36.9382 6.30328 36.6676 6.9068 36.4103 7.19404C36.1488 7.4821 35.7636 7.7793 35.7636 7.91378C35.7636 8.04163 35.7063 8.15444 35.9205 8.09974C36.1371 8.04163 36.2924 7.81167 36.4252 7.81167C36.5522 7.81167 36.6676 7.92789 36.6676 8.09974C36.6676 8.26983 36.4103 8.58695 36.2525 8.59774C36.0931 8.61352 35.8748 8.87336 35.6905 9.06014C35.5054 9.24361 34.7134 10.0522 34.7134 10.0522C34.7134 10.0522 33.953 10.9122 33.7812 11.0268C33.6077 11.143 33.4906 11.2127 33.4084 11.2127C33.3237 11.2127 33.1096 11.2401 33.1096 11.2401C33.1096 11.2401 32.8912 11.2708 32.8912 11.4153C32.8912 11.5589 32.9078 11.7025 32.8663 11.7432C32.819 11.7855 32.7609 11.842 32.8912 11.9839C33.0191 12.1325 33.1793 12.1699 33.3785 12.1591C33.5819 12.1433 33.7239 12.0479 33.8268 11.9441C33.9256 11.842 33.9978 11.6295 34.1107 11.4975C34.2261 11.3663 34.657 10.8118 34.657 10.8118C34.657 10.8118 34.7583 10.7694 34.8869 10.669C35.0156 10.5669 35.1019 10.3369 35.2007 10.3685C35.3028 10.395 35.4456 10.4664 35.3327 10.669C35.2132 10.8674 35.1891 11.0683 35.1891 11.1828C35.1891 11.2982 35.3751 11.3447 35.2472 11.4709C35.1161 11.5988 34.8297 11.9707 34.8297 11.9707C34.8297 11.9707 34.5416 12.2039 34.3814 12.2164C34.2261 12.2305 34.0418 12.4339 34.1257 12.5485C34.212 12.6605 34.5109 12.7344 34.657 12.7477C34.8006 12.7618 34.8869 12.6904 35.0604 12.5592C35.2331 12.4339 35.2638 12.2587 35.346 12.1433C35.4307 12.0288 35.7636 11.8154 35.7636 11.8154C35.7636 11.8154 35.8914 11.7997 36.0068 11.5988C36.1214 11.3987 36.2218 10.9554 36.3654 10.9695C36.5091 10.9836 36.5954 11.1264 36.5215 11.3837C36.4543 11.6411 36.3223 11.7997 36.1778 11.842C36.035 11.8893 36.0658 12.0719 36.1214 12.1433C36.1778 12.2164 36.4941 12.2903 36.4817 12.4928C36.4675 12.6904 36.3754 12.7767 36.2525 12.7917C36.1214 12.8058 35.9338 12.8058 35.8034 12.9038C35.6747 13.01 35.7345 13.0631 35.8034 13.2375C35.8748 13.4085 36.0218 13.7953 36.0218 13.7953C36.0218 13.7953 35.9919 13.9381 36.1488 13.9381C36.3073 13.9381 36.5863 13.8402 36.7473 13.67C36.905 13.4948 37.2271 13.3803 37.2271 13.3803C37.2271 13.3803 37.5683 13.147 37.6713 13.01C37.7709 12.8656 37.8132 12.9652 37.9153 12.9038C38.0166 12.849 38.2466 12.7344 38.3329 12.5485C38.4167 12.3592 38.4035 12.0479 38.4035 12.0479C38.4035 12.0479 38.3902 11.7025 38.533 11.7166C38.6774 11.7291 38.7588 11.9026 38.7588 12.0288C38.7588 12.1591 38.7314 12.2438 38.8634 12.4605C38.9896 12.6738 39.134 12.8938 39.134 13.1254V14.8737C39.134 15.3884 39.1954 16.5216 39.1954 16.8553V17.8722C39.1954 18.0864 39.1066 18.274 38.948 18.4467C38.792 18.6194 38.5919 18.6758 38.6924 18.8327C38.792 18.9938 38.8634 19.076 39.0369 19.0353C39.2095 18.9938 39.31 18.9058 39.4096 18.9224C39.5101 18.9332 39.6952 18.7779 39.7384 18.6758C39.7832 18.5754 39.8363 18.2607 39.8363 18.2607L39.7832 17.057C39.7832 17.057 39.8247 16.6353 39.7956 16.4087C39.7691 16.1804 39.6952 15.8193 39.6952 15.8193L39.7226 14.0145C39.7226 14.0145 39.7832 13.7953 39.9094 13.8294C40.0405 13.851 40.0405 13.9539 40.4988 14.0145C40.9603 14.0701 41.0317 14.1839 41.1297 14.1241C41.2301 14.0701 41.4194 13.851 41.475 13.6642C41.5307 13.4815 41.5489 13.2956 41.6195 13.1636C41.6892 13.0349 41.8054 12.9652 41.6469 12.6738C41.4892 12.3899 40.8009 11.6295 40.757 11.143C40.7154 10.6524 40.757 10.307 40.8848 10.0372C41.0176 9.76245 41.1147 9.66117 41.2575 9.41877Z" fill="#213F9A"/>
<path fill-rule="evenodd" clip-rule="evenodd" d="M49.5995 12.934C49.5837 12.9863 49.4924 13.0793 49.3862 13.0519C49.2841 13.0236 49.2973 12.9207 49.2973 12.7754C49.2973 12.6293 49.4011 12.5986 49.4011 12.5986L49.5348 12.6185C49.5348 12.6185 49.651 12.7347 49.651 12.7754C49.651 12.8161 49.612 12.8825 49.5995 12.934ZM51.8194 13.8339C51.6459 13.8339 51.7247 14.0613 51.6193 14.1825C51.5139 14.3021 51.3312 14.3494 51.0174 14.5246C50.7028 14.6939 50.3998 14.8525 50.1748 14.8525C49.9548 14.8525 49.9424 14.7205 49.8859 14.5785C49.8353 14.4299 50.0171 14.2481 50.0993 14.0248C50.1748 13.7973 50.2545 13.5915 50.2545 13.5915C50.2545 13.5915 50.4537 13.286 50.8082 13.1797C51.1594 13.0793 51.3428 12.7621 51.5537 12.6293C51.7629 12.499 51.8833 12.274 51.87 12.1105C51.8551 11.9353 51.7355 11.7518 51.5537 11.58C51.3711 11.4115 51.1486 11.4513 51.0307 11.541C50.9103 11.6348 51.0174 11.9104 51.0174 12.064C51.0174 12.225 50.834 12.46 50.7659 12.6185C50.7028 12.7754 50.4762 13.0236 50.3467 13.0793C50.2155 13.1307 50.2686 12.8443 50.2686 12.7887C50.2686 12.7347 50.3857 12.3462 50.3857 12.3462C50.3857 12.3462 50.599 12.1702 50.7028 11.9718C50.8082 11.7767 50.5683 11.673 50.4537 11.673C50.335 11.673 50.2412 11.7767 50.1624 11.7518C50.0835 11.7278 50.0171 11.5684 49.9133 11.5144C49.8095 11.4646 49.7058 11.673 49.6244 11.7394C49.5464 11.8008 49.2558 12.0432 49.0857 12.1852C48.9163 12.3288 48.7959 12.6293 48.7196 12.748C48.6423 12.8709 48.4962 12.9041 48.3518 12.9473C48.2065 12.9863 48.087 13.2104 48.0098 13.3524C47.9317 13.501 47.9052 13.628 47.9052 13.628C47.9052 13.628 48.087 13.8787 48.1683 13.9542C48.2472 14.0364 48.3651 13.9982 48.3651 13.9982C48.3651 13.9982 48.5369 13.9542 48.654 13.7218C48.7735 13.4835 48.8906 13.4835 49.1529 13.4835C49.4161 13.4835 49.5207 13.5499 49.5207 13.7334C49.5207 13.9169 49.167 14.009 49.167 14.009C49.167 14.009 49.0724 14.102 49.0342 14.2556C48.9952 14.4175 49.2841 14.4415 49.348 14.5453C49.4161 14.6549 49.2683 14.7836 49.4418 15.1248C49.612 15.4709 49.8859 15.4817 50.1375 15.4942C50.3857 15.5083 50.4645 15.4427 50.7808 15.3364C51.093 15.2327 50.8198 15.3721 51.4225 15.0218C52.0294 14.6657 52.0402 14.6275 52.2759 14.4415C52.5142 14.2556 52.4461 14.1402 52.3681 13.9841C52.2909 13.8289 51.9879 13.8339 51.8194 13.8339Z" fill="#213F9A"/>
<path fill-rule="evenodd" clip-rule="evenodd" d="M50.017 6.56813C50.2411 6.65862 50.2801 6.62209 50.5184 6.54074C50.7533 6.46104 51.1584 6.31577 51.2929 6.30747C51.4216 6.29003 51.7113 6.22528 51.7113 6.22528C51.7113 6.22528 51.8425 6.0908 51.781 5.88326C51.7113 5.67904 51.7113 5.7413 51.4979 5.62176C51.2929 5.50637 51.1335 5.49059 51.0837 5.42999C51.0306 5.36109 50.8853 5.46486 50.7658 5.51965C50.6479 5.56614 50.5815 5.61014 50.4138 5.61014C50.2411 5.61014 49.8742 5.59685 49.8742 5.59685C49.8742 5.59685 49.6766 5.82099 49.5994 5.92227C49.5197 6.03185 49.6118 6.03185 49.6509 6.17298C49.6915 6.31577 49.797 6.47516 50.017 6.56813Z" fill="#213F9A"/>
<path fill-rule="evenodd" clip-rule="evenodd" d="M53.18 7.32694C53.1294 7.09283 53.1294 7.05132 52.9036 6.8305C52.6853 6.60885 52.5134 6.59474 52.5134 6.59474C52.5134 6.59474 52.3175 6.51837 52.2362 6.73753C52.1548 6.96167 52.2901 7.10445 52.1548 7.27381C52.0286 7.44897 51.9581 7.53863 51.9581 7.64489C51.9581 7.75031 51.763 7.91884 51.6858 8.03672C51.6077 8.15493 51.3047 8.44466 51.1586 8.52352C51.0175 8.60156 50.8971 8.65219 50.8855 8.53763C50.8722 8.41726 50.7925 8.21968 50.9361 8.07823C51.0839 7.93212 51.3047 7.82669 51.4608 7.69386C51.6185 7.56934 51.8186 7.48633 51.7356 7.34105C51.6575 7.1966 51.5687 7.26301 51.4351 7.35516C51.3047 7.44897 51.176 7.62828 51.0557 7.51455C50.9361 7.39335 50.7801 6.98574 50.4538 6.92016C50.1259 6.85707 49.9541 6.95088 50.0329 7.09283C50.1134 7.23479 50.3459 7.59176 50.2023 7.80344C50.0578 8.01181 49.9922 8.14331 49.666 8.37907C49.3356 8.61318 49.0616 8.89045 48.7728 9.13949C48.4839 9.38771 48.2597 9.69238 47.9858 9.78452C47.706 9.87833 47.6006 9.78453 47.6006 9.67495C47.6006 9.57699 47.8405 8.99754 47.8554 8.86637C47.8654 8.73521 47.8272 8.49945 47.5782 8.81075C47.3258 9.12538 47.0676 9.49563 47.0419 9.69238C47.0103 9.88995 46.8294 10.3349 46.6567 10.491C46.4865 10.6495 46.2358 10.8081 46.3304 11.0713C46.4226 11.3311 46.5147 11.4108 46.699 11.5162C46.8817 11.6175 46.8941 11.7121 47.129 11.6175C47.3681 11.5312 47.4727 11.3834 47.6545 11.1261C47.8405 10.8637 48.0231 10.8637 48.0729 10.701C48.1294 10.5425 48.2597 10.3349 48.4681 10.1896C48.6781 10.0477 48.8624 9.99289 49.0467 9.73306C49.2302 9.47073 49.705 9.01829 49.7972 8.87966C49.8852 8.73521 50.0578 8.72193 50.1483 8.82736C50.2413 8.93113 50.2305 9.1395 50.0329 9.35036C49.8345 9.56121 49.6917 9.61185 49.6917 9.61185C49.6917 9.61185 49.5083 9.82271 49.6511 9.87833C49.7972 9.93063 49.9541 9.79615 49.9773 9.9655C50.0039 10.1373 50.0993 10.0834 49.9018 10.1373C49.705 10.1896 49.1804 10.2444 49.0201 10.3349C48.8624 10.4262 48.6781 10.8745 48.7611 11.0156C48.835 11.1642 48.9678 11.3311 49.1372 11.268C49.309 11.2024 49.4543 10.9783 49.534 10.9127C49.612 10.843 49.8221 10.7301 49.8221 10.843C49.8221 10.9642 49.8461 11.2273 50.0329 11.175C50.2156 11.1261 50.3857 10.9401 50.5053 10.7425C50.6215 10.5425 50.7925 10.2552 50.9486 10.3067C51.1105 10.3598 51.1337 10.4669 51.0175 10.5707C50.8971 10.6736 50.6373 11.0024 50.5991 11.0821C50.5551 11.1642 50.5053 11.2796 50.6605 11.268C50.8191 11.2522 51.3421 10.9127 51.7804 10.8189C52.2096 10.7301 52.276 10.584 52.3931 10.5209C52.5134 10.4528 52.6421 10.2287 52.3549 9.87833C52.0676 9.51888 51.9365 9.33375 51.7804 9.33375C51.6185 9.33375 51.5413 9.44084 51.3711 9.57699C51.1993 9.70317 50.9652 9.9381 50.8191 9.79615C50.6746 9.65087 50.6215 9.41677 50.8191 9.19097C51.0175 8.97263 51.8045 8.43137 52.0402 8.31349C52.276 8.19229 52.9459 7.89476 53.1045 7.75031C53.2614 7.60255 53.234 7.56934 53.18 7.32694Z" fill="#213F9A"/>
<path fill-rule="evenodd" clip-rule="evenodd" d="M74.0585 14.0205C73.929 14.1085 73.3977 14.267 73.2665 14.3102C73.1395 14.3492 72.966 14.3808 72.668 14.4688C72.365 14.5518 72.2197 14.5244 72.1084 14.4688C71.9914 14.409 72.0794 14.277 72.1508 14.1957C72.2197 14.1085 72.4222 14.0512 72.4222 14.0512C72.4222 14.0512 72.6231 14.0744 72.9519 14.0371C73.2814 13.9931 73.3412 13.9491 73.5297 13.8511C73.7115 13.7416 73.8725 13.6917 74.0709 13.7797C74.2743 13.8611 74.1871 13.9383 74.0585 14.0205ZM75.6217 10.2474C75.395 10.0831 75.0331 9.86225 74.8338 9.97432C74.6329 10.0831 74.5184 10.1304 74.4462 10.1304C74.3756 10.1304 74.2004 10.1462 74.0883 10.2607C73.9738 10.3761 73.958 10.4035 73.8269 10.4741C73.699 10.5463 73.5579 10.704 73.4276 10.792C73.2972 10.8792 73.0382 11.1066 73.0382 11.1066C73.0382 11.1066 72.7086 11.3665 72.5683 11.4238C72.4222 11.4777 72.365 11.7118 72.2521 11.7525C72.135 11.7965 72.091 11.7791 71.7631 12.0563C71.4285 12.3295 71.2044 12.5544 71.2044 12.5544C71.2044 12.5544 71.0716 12.63 70.8566 12.8027C70.6382 12.9753 70.4423 13.1588 70.3253 13.0857C70.2115 13.016 70.224 12.9313 70.2663 12.884C70.312 12.8442 70.3693 12.8027 70.3394 12.7163C70.312 12.63 70.2663 12.63 70.2663 12.63C70.2663 12.63 69.9102 12.6997 69.8388 12.8442C69.7657 12.9861 69.7068 13.2152 69.5765 13.2717C69.4494 13.3306 69.0775 13.632 69.0078 13.7416C68.9331 13.8611 68.9895 14.0902 69.2635 14.233C69.5374 14.3808 69.4494 14.321 69.6927 14.2073C69.9376 14.0902 70.1526 14.0064 70.312 13.8511C70.4689 13.6917 70.7852 13.4593 70.8283 13.3912C70.8723 13.3173 71.1729 13.0293 71.2874 12.8981C71.4045 12.7736 71.4045 12.586 71.5448 12.5428C71.6892 12.4988 71.9474 12.3295 72.0503 12.1983C72.1508 12.0671 72.3201 11.7965 72.3201 11.7965C72.3201 11.7965 72.3923 11.6944 72.4936 11.6678C72.5941 11.6379 72.8796 11.4927 72.966 11.3931C73.0548 11.2951 73.2665 11.1066 73.4533 11.0062C73.6401 10.9041 74.1008 10.7762 74.2868 10.7762C74.4752 10.7762 74.6446 10.9232 74.4752 11.0494C74.3 11.178 74.2743 11.1639 74.1307 11.3225C73.9879 11.4777 74.0004 11.6238 73.7995 11.7118C73.5994 11.7965 73.4533 11.9102 73.4691 12.0563C73.4832 12.1983 73.5836 12.3726 73.6284 12.5428C73.6683 12.7163 73.7289 12.9861 73.5106 13.1746C73.2972 13.358 72.966 13.578 72.7618 13.632C72.5683 13.6918 72.4347 13.7191 72.3052 13.7797C72.1798 13.8337 72.1084 13.8511 71.9474 13.8611C71.7905 13.8752 71.7324 14.0512 71.7324 14.1957C71.7324 14.3343 71.5323 14.4688 71.5323 14.5833C71.5323 14.6946 71.4916 14.9835 71.6635 15.0134C71.832 15.0383 72.1508 14.9528 72.521 14.9528C72.8938 14.9528 73.5106 14.8681 73.7115 14.8847C73.914 14.8996 74.0709 14.9528 74.2195 14.9129C74.3615 14.8681 74.6603 14.7402 74.8338 14.6821C75.0048 14.6248 75.1642 14.7693 75.2215 14.595C75.278 14.4256 75.4232 14.4796 75.278 14.277C75.1352 14.0744 74.9193 13.9632 74.9193 13.7905C74.9193 13.6145 75.1202 13.4327 75.1933 13.3912C75.2672 13.3447 75.41 13.2592 75.322 13.0293C75.2348 12.8027 75.1642 12.615 74.9193 12.5544C74.6761 12.4988 74.4337 12.5428 74.3756 12.4009C74.3142 12.2531 74.3 12.1128 74.574 11.8538C74.8463 11.5939 74.8753 11.5201 75.048 11.4644C75.2215 11.4113 75.6964 11.2951 75.8524 11.1639C76.0093 11.0344 76.0658 10.8327 75.9969 10.6642C75.9263 10.4915 75.8524 10.4035 75.6217 10.2474Z" fill="#213F9A"/>
<path fill-rule="evenodd" clip-rule="evenodd" d="M71.6896 11.5689C71.7901 11.5523 71.8913 11.4776 71.9627 11.4236C72.0358 11.3664 72.2666 11.0791 72.2666 11.0791C72.2666 11.0791 72.3803 10.904 72.235 10.9637C72.0914 11.016 72.0059 11.2244 71.8772 11.295C71.7469 11.3664 71.6498 11.3373 71.5443 11.4652C71.4439 11.5938 71.3891 11.6835 71.3459 11.7117C71.3019 11.7391 71.1276 11.9525 71.1276 11.9525C71.1276 11.9525 71.2048 11.9251 71.3891 11.8263C71.5726 11.7283 71.5892 11.5805 71.6896 11.5689Z" fill="#213F9A"/>
<path fill-rule="evenodd" clip-rule="evenodd" d="M75.2019 8.57333C75.1554 8.57333 75.1355 8.54095 75.1222 8.45545C75.1114 8.36745 75.2426 8.38986 75.2426 8.38986L75.3298 8.47786C75.3298 8.47786 75.2426 8.57333 75.2019 8.57333ZM74.7387 9.09052C74.7254 9.1204 74.63 9.2001 74.4905 9.2001C74.3494 9.2001 74.3494 9.04984 74.3494 9.04984C74.3494 9.04984 74.434 8.86637 74.4905 8.77589C74.5444 8.69287 74.6839 8.61899 74.6839 8.61899L74.7802 8.69287C74.7802 8.69287 74.8342 8.78917 74.8342 8.87385C74.8342 8.96101 74.7495 9.0598 74.7387 9.09052ZM74.0273 8.83317C73.9617 8.89377 73.8961 8.82238 73.8961 8.73521C73.8961 8.65219 73.9617 8.54095 74.0463 8.46707C74.1352 8.38986 74.3369 8.30187 74.3369 8.30187L74.434 8.34089C74.434 8.34089 74.4664 8.38986 74.4232 8.47786C74.3834 8.56503 74.2622 8.59408 74.2622 8.59408C74.2622 8.59408 74.092 8.76426 74.0273 8.83317ZM73.7118 8.49945C73.608 8.55341 73.4636 8.59408 73.3291 8.61899C73.1855 8.63642 73.0045 8.90871 72.9381 8.91618C72.8775 8.92947 72.7887 8.83317 72.7023 8.76427C72.6168 8.70366 72.7131 8.56503 72.8094 8.49945C72.9057 8.43469 73.2071 8.5202 73.3797 8.47786C73.5541 8.43469 73.8305 8.16572 73.9384 8.0666C74.0464 7.97114 74.2539 7.88646 74.2539 7.88646L74.2946 7.98276C74.2946 7.98276 74.2946 8.02592 74.234 8.12969C74.1651 8.23795 73.9849 8.41062 73.9085 8.41062C73.8305 8.41062 73.8239 8.44466 73.7118 8.49945ZM73.6686 9.83433C73.608 9.87833 73.5649 9.93063 73.4993 9.93063C73.4345 9.93063 73.4021 9.89992 73.4345 9.80113C73.4636 9.70317 73.6686 9.64008 73.6686 9.64008C73.6686 9.64008 73.75 9.62929 73.7699 9.68075C73.7873 9.73887 73.7384 9.79034 73.6686 9.83433ZM73.0045 8.0666C73.0045 8.0666 73.1091 7.94872 73.1971 7.85325C73.2818 7.75446 73.4993 7.81175 73.4993 7.81175C73.4993 7.81175 73.5416 7.81756 73.6288 7.81756C73.7118 7.81756 73.691 7.92714 73.691 7.98276C73.691 8.0334 73.5649 8.1106 73.4545 8.15493C73.349 8.1981 73.1971 8.21553 73.0892 8.18814C72.9829 8.15493 73.0045 8.0666 73.0045 8.0666ZM77.4168 6.84628C77.2591 6.64206 77.2159 6.58395 77.0723 6.51338C76.9286 6.44116 76.7701 6.2386 76.5866 6.35482C76.3998 6.46939 75.8968 6.8139 75.6378 6.97246C75.3746 7.13102 75.1936 7.37757 75.0052 7.30037C74.8192 7.22898 74.9197 7.07042 75.0334 6.92763C75.1505 6.7865 75.3954 6.68772 75.4651 6.46939C75.5357 6.25521 75.5514 6.04186 75.622 5.86669C75.6967 5.69568 75.6967 5.53629 75.4784 5.34619C75.2675 5.16106 74.8342 4.75014 74.5743 4.86304C74.3145 4.97511 74.2008 5.1951 74.1011 5.29306C74.0007 5.39351 73.9144 5.51139 73.9584 5.66995C74.0007 5.82602 74.1178 5.99869 74.234 5.88081C74.3469 5.76624 74.434 5.53629 74.5602 5.55206C74.6906 5.56618 74.8466 5.72391 74.8192 5.91069C74.791 6.09665 74.7619 6.31332 74.6764 6.48599C74.5884 6.65617 74.4755 6.84378 74.4465 6.94506C74.4158 7.04385 74.3618 7.20241 74.131 7.30037C73.9019 7.40414 73.5109 7.37757 73.2818 7.4747C73.0552 7.57764 72.8094 7.71628 72.8094 7.83084C72.8094 7.94872 72.841 8.0334 72.7239 8.0334C72.6094 8.0334 72.494 7.91884 72.5081 7.79016C72.5214 7.66232 72.5214 7.02725 72.435 6.71511C72.352 6.40131 72.1511 6.01031 71.9477 6.01031C71.7477 6.01031 71.6032 6.21121 71.5451 6.50176C71.492 6.7865 71.5177 6.96167 71.5899 7.10113C71.6638 7.24558 71.7775 7.19162 71.8323 7.19162C71.8921 7.19162 72.0797 7.38754 72.0507 7.51953C72.0191 7.64738 71.9759 8.14995 72.0797 8.37907C72.1802 8.6082 72.2358 8.92282 72.1187 9.05648C72.0067 9.18017 71.9195 9.21338 71.8772 9.0681C71.8323 8.92282 71.7908 8.52352 71.5899 8.39235C71.389 8.26368 71.2728 8.05083 71.1591 8.28028C71.0437 8.50443 71.1001 8.65219 71.1001 8.73936C71.1001 8.82404 71.2454 8.92282 71.2454 9.0681C71.2454 9.21338 71.2454 9.41261 71.2878 9.48401C71.3301 9.5554 71.4289 9.6434 71.2878 9.86173C71.145 10.0734 71.0014 9.98874 71.1134 10.261C71.2305 10.5358 71.3027 10.8056 71.4164 10.8911C71.5326 10.9783 71.6032 11.0646 71.7477 10.9509C71.8921 10.833 72.0067 10.6911 72.0191 10.5209C72.0357 10.344 71.8473 9.93063 72.0191 9.82935C72.191 9.72724 72.3205 9.96052 72.45 9.87252C72.5811 9.78785 72.6683 9.5554 72.7621 9.5114C72.8667 9.47073 72.88 9.58778 72.9663 9.5114C73.0552 9.44084 73.1838 9.18017 73.2668 9.22749C73.354 9.27066 73.442 9.39601 73.3416 9.45661C73.2394 9.5114 73.1398 9.5114 72.9937 9.62929C72.8542 9.748 72.7497 9.748 72.7621 9.90407C72.782 10.0585 72.8941 10.1307 72.8941 10.1747C72.8941 10.217 72.9522 10.261 72.8667 10.3756C72.826 10.4304 72.8094 10.4528 72.8061 10.4578C72.7887 10.4636 72.572 10.5458 72.5214 10.6172C72.4284 10.7583 72.352 10.8911 72.352 10.8911C72.352 10.8911 72.6094 10.8056 72.6799 10.7317C72.7497 10.6637 72.8094 10.491 72.8941 10.491C72.9829 10.491 73.0244 10.4744 73.2129 10.3756C73.398 10.2785 73.4852 10.1598 73.8571 9.97463C74.234 9.78784 74.0588 9.81275 74.1451 9.80113C74.234 9.78785 74.3469 9.65668 74.4465 9.61185C74.5461 9.57201 74.6764 9.41261 74.8026 9.48401C74.9379 9.5554 75.0932 9.86173 75.2783 9.86173C75.4651 9.86173 75.7092 9.78785 75.9524 9.52801C76.1989 9.27066 76.4106 8.75098 76.4106 8.75098C76.4106 8.75098 76.5866 8.32262 76.8016 8.16572C77.0158 8.006 77.2591 7.5353 77.3911 7.31697C77.5181 7.10113 77.5778 7.04385 77.4168 6.84628Z" fill="#213F9A"/>
<path fill-rule="evenodd" clip-rule="evenodd" d="M57.8433 11.3046C57.8433 11.3046 58.1712 11.2125 58.3331 11.1643C58.4775 11.1187 58.6784 11.0714 58.8594 11.0215C59.0362 10.9734 59.2786 10.868 59.3832 10.8314C59.453 10.8024 59.9187 10.6222 60.1835 10.4363C60.3994 10.2835 60.5679 10.3068 60.5679 10.3068L60.7198 9.87261L60.924 9.08479L61.0759 8.41984L61.2818 7.81092L61.4063 7.34852L61.5342 6.89028L61.5873 6.71013L61.6637 6.37724L61.6878 6.22532C61.6878 6.22532 61.8422 5.9439 62.0206 6.17385C62.1991 6.40713 62.1726 6.63459 62.1726 6.63459C62.1726 6.63459 62.2182 6.73255 62.2182 7.08785C62.2182 7.44399 62.1991 8.21977 62.1659 8.37916C62.1286 8.52942 62.0912 8.88721 62.0638 8.95612C62.0397 9.00759 61.8754 9.64349 62.2846 9.43097L62.3535 9.32886L62.4216 9.23339L62.4822 9.18026L62.703 9.07981C62.703 9.07981 63.2858 8.59749 63.3721 8.34678C63.456 8.08902 63.627 8.05166 63.5241 7.62912C63.4211 7.20574 63.407 7.08785 63.407 7.08785C63.407 7.08785 63.456 6.99903 63.5241 7.03389C63.5946 7.06627 63.7017 7.21155 63.7308 7.29124C63.7631 7.39418 63.8229 7.52036 63.8229 7.64157C63.8229 7.7553 63.8985 7.82918 63.7474 8.204C63.5946 8.58172 63.2044 9.16117 63.2044 9.16117L63.0675 9.37119L63.016 9.45172L62.9388 9.5173L62.894 9.59368L62.8633 9.66424L62.8184 9.76303L62.7421 9.93819L62.6565 10.1125L62.5893 10.3134L62.5046 10.4861L62.4075 10.6878L62.234 10.9452L62.0638 11.1187L61.8579 11.337L61.657 11.5412L61.5035 11.6765L61.4171 11.7521L61.3839 11.9057L61.3358 12.0343L61.2461 12.1406L61.1291 12.2535L61.0261 12.4228L60.9049 12.6744L60.7713 12.8487L60.7198 12.9683L60.67 13.0679V13.1716L60.7389 13.243H61.0685L61.2469 13.2248L61.3515 13.2057L61.4512 13.1716L61.6736 13.1235C61.6736 13.1235 62.8483 13.0496 63.0492 13.1235C63.2617 13.1999 63.4734 13.3252 63.4734 13.3252L63.6121 13.4589L63.7308 13.6C63.7308 13.6 63.8553 13.7851 63.6959 13.9047C63.6594 13.9304 63.3256 14.1188 63.3256 14.1188L63.0982 14.2317L62.9305 14.3206L62.8226 14.3762L62.6491 14.4825L62.5561 14.5837L62.4864 14.6825L62.4191 14.7157L62.3353 14.7049L62.268 14.6767L62.2298 14.6252L62.2182 14.5455L62.2846 14.4152L62.3793 14.338L62.4698 14.2533C62.4698 14.2533 62.6972 14.0748 62.7097 14.0068C62.7329 13.8897 62.8948 13.7195 62.6931 13.7337C62.4864 13.7461 62.3004 13.7195 62.3004 13.7195L62.1991 13.6963L62.0796 13.6149H61.9277L60.924 13.5303L60.67 13.512L60.5181 13.4946C60.5181 13.4946 60.1254 14.0649 60.0416 14.1139C59.9669 14.162 59.79 14.1836 59.7585 14.2259C59.7153 14.2857 59.6506 14.3422 59.6506 14.3422L59.4596 14.5148C59.4596 14.5148 58.8976 14.9233 58.9491 14.2259C58.9491 14.2259 59.0719 13.9047 59.174 13.82C59.2737 13.7337 59.3426 13.5626 59.3426 13.5626L59.5136 13.2248L59.5983 13.0347L59.6821 12.8138L59.7319 12.5756L59.8033 12.4071L59.8423 12.2444L59.9038 12.1431C59.9038 12.1431 60.1254 11.9455 59.697 12.0011C59.2737 12.0501 58.8777 12.0584 58.8777 12.0584C58.8777 12.0584 58.3074 12.1356 58.1023 12.0177C57.8964 11.8974 57.7769 11.8451 57.7769 11.8451L57.6798 11.777L57.61 11.6765V11.5595L57.6416 11.4208L57.8433 11.3046Z" fill="#213F9A"/>
</svg>
