<svg width="204" height="208" xmlns="http://www.w3.org/2000/svg" xmlns:xlink="http://www.w3.org/1999/xlink" overflow="hidden"><defs><clipPath id="clip0"><rect x="538" y="256" width="204" height="208"/></clipPath></defs><g clip-path="url(#clip0)" transform="translate(-538 -256)"><path d="M19.8408 72.3783 29.7478 71.8957 29.8147 73.2514 22.2955 78.8909 30.0697 78.5101 30.1345 79.7777 20.2274 80.2684 20.1607 78.9086 27.6895 73.2711 19.9075 73.6537 19.8408 72.3783Z" fill="#693403" fill-rule="evenodd" transform="matrix(1.00358 0 0 1 538 256)"/><path d="M24.1876 87.0437C23.9855 86.6121 23.799 85.9508 23.6264 85.0658 23.5322 84.5617 23.4301 84.2142 23.3301 84.0081 23.2261 83.806 23.0868 83.6512 22.9102 83.5392 22.7277 83.4352 22.5354 83.39 22.3215 83.4059 21.9977 83.4215 21.7329 83.5531 21.5307 83.8178 21.3267 84.0769 21.2384 84.4459 21.2639 84.9226 21.2855 85.3956 21.4091 85.8095 21.6367 86.1647 21.8584 86.5278 22.1528 86.7866 22.5197 86.9416 22.8003 87.0556 23.2064 87.0986 23.7441 87.0693L24.1876 87.0437ZM21.4817 87.2891C21.0716 86.8572 20.7792 86.4316 20.6026 86.0234 20.4221 85.6074 20.3201 85.158 20.2926 84.6773 20.2553 83.8826 20.4143 83.2548 20.7792 82.8171 21.1403 82.3659 21.621 82.1323 22.2214 82.0912 22.5746 82.0794 22.8964 82.1423 23.1966 82.2855 23.4949 82.4347 23.7401 82.6346 23.9285 82.8878 24.1169 83.139 24.266 83.4215 24.3719 83.7472 24.4485 83.9866 24.5251 84.3478 24.6114 84.8342 24.7801 85.8175 24.9548 86.5393 25.1411 87.0005 25.3079 86.9946 25.4159 86.9946 25.459 86.9946 25.9534 86.9672 26.2969 86.8338 26.4893 86.5944 26.7481 86.2647 26.8601 85.7898 26.8266 85.1699 26.7991 84.5891 26.6777 84.175 26.4637 83.9022 26.2517 83.6432 25.8849 83.4548 25.3668 83.347L25.467 82.1423C25.983 82.2207 26.4009 82.3836 26.7306 82.615 27.0563 82.8485 27.3113 83.1979 27.5094 83.6628 27.7018 84.128 27.8136 84.6714 27.8432 85.2994 27.8746 85.9135 27.8295 86.4257 27.7096 86.8102 27.5822 87.2085 27.4172 87.4971 27.2073 87.6933 26.9975 87.8854 26.7306 88.0287 26.399 88.119 26.1948 88.17 25.8201 88.2093 25.2805 88.2348L23.6598 88.3251C22.5275 88.3761 21.8153 88.4409 21.5209 88.5094 21.2207 88.5782 20.9421 88.6997 20.6713 88.8666L20.6085 87.5834C20.8518 87.446 21.1442 87.342 21.4817 87.2891Z" fill="#693403" fill-rule="evenodd" transform="matrix(1.00358 0 0 1 538 256)"/><path d="M20.7568 90.4739 27.9306 90.0775 27.9914 91.1822 26.9691 91.2371C27.7874 91.7256 28.2228 92.4773 28.2778 93.4799 28.3015 93.9115 28.2445 94.3275 28.111 94.7003 27.9736 95.0711 27.7874 95.3635 27.5439 95.554 27.3007 95.7502 27.0064 95.8934 26.6649 95.9816 26.4413 96.0386 26.0487 96.0856 25.4895 96.1111L21.0766 96.3565 21.0099 95.13 25.3717 94.8886C25.8683 94.8631 26.2352 94.7906 26.4765 94.6866 26.7159 94.5788 26.9062 94.3982 27.0376 94.1469 27.1712 93.9018 27.226 93.6035 27.2085 93.2778 27.183 92.7559 26.9906 92.3104 26.6434 91.9455 26.294 91.5864 25.6582 91.4314 24.7421 91.4824L20.8215 91.7001 20.7568 90.4739Z" fill="#693403" fill-rule="evenodd" transform="matrix(1.00358 0 0 1 538 256)"/><path d="M29.6835 97.8827 31.0922 97.8042 31.1648 99.0345 29.752 99.1129 29.6835 97.8827ZM18.3224 96.9781 19.3702 97.145C19.3211 97.4059 19.2995 97.5962 19.3074 97.7335 19.3211 97.9867 19.4153 98.1673 19.586 98.2831 19.7567 98.3949 20.1688 98.4322 20.8281 98.3949L28.3648 97.963 28.4336 99.1895 20.8732 99.6233C19.9902 99.6741 19.3702 99.5918 19.0072 99.3857 18.5421 99.1129 18.289 98.6343 18.2478 97.9493 18.2321 97.6139 18.2517 97.2882 18.3224 96.9781Z" fill="#693403" fill-rule="evenodd" transform="matrix(1.00358 0 0 1 538 256)"/><path d="M29.8721 100.962 31.2711 100.872 31.3418 102.1 29.9447 102.184 29.8721 100.962ZM21.3719 101.466 28.5416 101.039 28.6182 102.267 21.4445 102.693 21.3719 101.466Z" fill="#693403" fill-rule="evenodd" transform="matrix(1.00358 0 0 1 538 256)"/><path d="M21.5654 104.725 28.7333 104.26 28.804 105.366 27.7874 105.429C28.6057 105.914 29.0512 106.653 29.1198 107.66 29.1434 108.096 29.0923 108.502 28.9628 108.875 28.8295 109.252 28.6489 109.536 28.4036 109.738 28.1641 109.936 27.8739 110.078 27.5345 110.182 27.3087 110.236 26.9183 110.287 26.359 110.325L21.9461 110.611 21.8695 109.381 26.2295 109.096C26.724 109.073 27.0908 108.992 27.3303 108.884 27.5716 108.773 27.7541 108.592 27.8836 108.333 28.0131 108.088 28.0661 107.79 28.0505 107.468 28.0131 106.948 27.8188 106.502 27.4657 106.147 27.1126 105.784 26.4767 105.645 25.5585 105.696L21.6439 105.955 21.5654 104.725Z" fill="#693403" fill-rule="evenodd" transform="matrix(1.00358 0 0 1 538 256)"/><path d="M25.8615 113.169C24.9236 113.25 24.2507 113.493 23.8522 113.901 23.452 114.317 23.2754 114.8 23.3185 115.369 23.3676 115.94 23.6207 116.391 24.0798 116.74 24.5428 117.084 25.2316 117.219 26.1499 117.143 27.0251 117.068 27.6687 116.819 28.0847 116.391 28.4948 115.964 28.6792 115.473 28.6321 114.918 28.587 114.372 28.332 113.927 27.8609 113.583 27.3919 113.234 26.7249 113.101 25.8615 113.169ZM21.478 112.51 21.3975 113.713C21.0404 113.791 20.7873 113.952 20.6401 114.192 20.44 114.517 20.3615 114.943 20.4047 115.467 20.4478 116.036 20.597 116.47 20.8501 116.754 21.0993 117.045 21.4329 117.231 21.8469 117.302 22.098 117.349 22.618 117.335 23.4088 117.264 22.7417 116.778 22.3728 116.138 22.308 115.343 22.2256 114.348 22.5199 113.544 23.1851 112.946 23.8463 112.343 24.6783 111.994 25.6712 111.917 26.3541 111.865 26.9977 111.931 27.594 112.137 28.1887 112.335 28.6674 112.665 29.0207 113.112 29.3739 113.558 29.5778 114.101 29.6289 114.749 29.6977 115.6 29.4171 116.326 28.7794 116.941L29.6407 116.87 29.7348 117.994 23.5481 118.514C22.4297 118.603 21.633 118.551 21.1484 118.357 20.6637 118.163 20.2634 117.833 19.9554 117.36 19.6453 116.882 19.4589 116.285 19.402 115.555 19.3294 114.694 19.4628 113.986 19.8082 113.415 20.1457 112.859 20.7049 112.549 21.478 112.51Z" fill="#693403" fill-rule="evenodd" transform="matrix(1.00358 0 0 1 538 256)"/><path d="M34.1779 128.716 34.4486 130.015 28.8465 131.2C27.8713 131.406 27.0707 131.457 26.4507 131.353 25.8289 131.252 25.2812 130.953 24.7948 130.449 24.3159 129.941 23.9746 129.213 23.7723 128.271 23.582 127.352 23.582 126.57 23.7685 125.916 23.9588 125.265 24.3237 124.759 24.8652 124.384 25.407 124.009 26.1917 123.711 27.218 123.491L32.8259 122.31 33.0987 123.607 27.4967 124.786C26.6547 124.967 26.0485 125.171 25.6854 125.42 25.3205 125.663 25.0694 126.001 24.9359 126.428 24.7986 126.862 24.7908 127.361 24.9085 127.914 25.1106 128.865 25.4696 129.497 25.9837 129.815 26.4919 130.125 27.3593 130.156 28.5759 129.905L34.1779 128.716Z" fill="#693403" fill-rule="evenodd" transform="matrix(1.00358 0 0 1 538 256)"/><path d="M25.4514 133.935 32.115 131.245 32.5251 132.271 31.5794 132.656C32.5095 132.856 33.1668 133.419 33.5414 134.355 33.7045 134.755 33.783 135.158 33.779 135.56 33.7712 135.96 33.6828 136.284 33.5161 136.553 33.3511 136.814 33.1216 137.045 32.8274 137.241 32.635 137.369 32.2778 137.536 31.7559 137.746L27.6588 139.4 27.1998 138.262 31.2518 136.625C31.7089 136.437 32.0365 136.256 32.2289 136.076 32.4232 135.895 32.5388 135.66 32.5839 135.385 32.6291 135.107 32.5898 134.806 32.4662 134.51 32.27 134.02 31.9462 133.664 31.5009 133.437 31.0516 133.205 30.4001 133.262 29.5485 133.607L25.9085 135.079 25.4514 133.935Z" fill="#693403" fill-rule="evenodd" transform="matrix(1.00358 0 0 1 538 256)"/><path d="M36.1856 137.408 37.4471 136.794 37.9829 137.9 36.7212 138.507 36.1856 137.408ZM28.5192 141.113 34.9847 137.983 35.5224 139.09 29.0588 142.217 28.5192 141.113Z" fill="#693403" fill-rule="evenodd" transform="matrix(1.00358 0 0 1 538 256)"/><path d="M30.7786 145.555 35.7252 139.657 36.357 140.797 33.345 144.239C33.0212 144.612 32.6721 144.98 32.3031 145.347 32.6896 145.259 33.1606 145.169 33.7218 145.09L38.3368 144.372 38.9489 145.477 31.3338 146.55 30.7786 145.555Z" fill="#693403" fill-rule="evenodd" transform="matrix(1.00358 0 0 1 538 256)"/><path d="M37.3005 148.234 39.5649 151.597C40.0398 151.208 40.3243 150.834 40.4324 150.449 40.6011 149.862 40.5146 149.305 40.1655 148.791 39.8495 148.322 39.4276 148.041 38.9038 147.922 38.3779 147.818 37.8423 147.922 37.3005 148.234ZM37.9267 152.684 38.5034 153.82C37.7834 154.065 37.1044 154.081 36.4667 153.859 35.823 153.632 35.2697 153.172 34.7989 152.474 34.2042 151.597 34.0021 150.716 34.1945 149.835 34.3829 148.958 34.9655 148.194 35.9292 147.547 36.9318 146.87 37.8853 146.603 38.7899 146.752 39.6944 146.899 40.4265 147.392 40.9895 148.22 41.5291 149.03 41.7019 149.868 41.5057 150.741 41.3015 151.62 40.7129 152.384 39.7299 153.049 39.667 153.09 39.5786 153.149 39.4531 153.223L36.4352 148.74C35.8055 149.215 35.4288 149.741 35.3052 150.31 35.1853 150.885 35.2933 151.414 35.6328 151.918 35.884 152.293 36.196 152.548 36.5707 152.684 36.9415 152.811 37.3967 152.811 37.9267 152.684Z" fill="#693403" fill-rule="evenodd" transform="matrix(1.00358 0 0 1 538 256)"/><path d="M37.7418 156.315 43.3772 151.859 44.066 152.728 43.2106 153.407C43.7854 153.307 44.2113 153.303 44.486 153.393 44.7625 153.478 44.9864 153.641 45.1667 153.858 45.4239 154.186 45.5808 154.596 45.6437 155.094L44.4938 155.462C44.4468 155.114 44.3291 154.828 44.1407 154.596 43.9757 154.382 43.7639 154.243 43.5048 154.17 43.2458 154.104 42.9771 154.117 42.6984 154.229 42.2727 154.388 41.8586 154.63 41.4563 154.947L38.5053 157.278 37.7418 156.315Z" fill="#693403" fill-rule="evenodd" transform="matrix(1.00358 0 0 1 538 256)"/><path d="M41.8002 158.03 42.7598 158.799C42.4478 159.174 42.3006 159.562 42.3202 159.969 42.3398 160.379 42.54 160.779 42.9128 161.199 43.2954 161.617 43.6604 161.85 44.0156 161.898 44.3669 161.946 44.6552 161.864 44.881 161.664 45.0831 161.476 45.1653 161.242 45.1202 160.958 45.0868 160.767 44.9065 160.357 44.5808 159.749 44.1393 158.929 43.8665 158.334 43.7526 157.973 43.6389 157.596 43.6289 157.245 43.7233 156.925 43.8195 156.596 43.9979 156.309 44.257 156.068 44.4924 155.864 44.7651 155.715 45.0653 155.644 45.3636 155.566 45.6697 155.566 45.9739 155.628 46.2053 155.683 46.4644 155.793 46.7608 155.976 47.0569 156.15 47.3316 156.384 47.5847 156.659 47.9674 157.08 48.2421 157.504 48.4148 157.93 48.5815 158.36 48.6347 158.748 48.5659 159.084 48.4971 159.419 48.3186 159.774 48.0263 160.145L47.0981 159.368C47.3356 159.07 47.4415 158.76 47.4181 158.43 47.3963 158.101 47.2257 157.751 46.9019 157.402 46.5213 156.982 46.1819 156.745 45.8874 156.692 45.5853 156.641 45.3459 156.692 45.1615 156.859 45.0438 156.963 44.9731 157.1 44.9476 157.263 44.9162 157.416 44.9417 157.608 45.0221 157.822 45.0712 157.946 45.24 158.281 45.5225 158.838 45.9366 159.639 46.2053 160.208 46.3311 160.567 46.4507 160.92 46.4743 161.256 46.3996 161.593 46.327 161.931 46.1346 162.237 45.8285 162.51 45.5246 162.781 45.1615 162.951 44.7396 163.016 44.3118 163.081 43.8762 163.016 43.425 162.808 42.9756 162.608 42.5615 162.3 42.1751 161.876 41.5433 161.177 41.2039 160.522 41.1587 159.884 41.1136 159.264 41.3275 158.642 41.8002 158.03Z" fill="#693403" fill-rule="evenodd" transform="matrix(1.00358 0 0 1 538 256)"/><path d="M51.2696 158.826 52.247 157.822 53.1279 158.681 52.1487 159.684 51.2696 158.826ZM45.3244 164.923 50.3377 159.782 51.2167 160.637 46.2013 165.78 45.3244 164.923Z" fill="#693403" fill-rule="evenodd" transform="matrix(1.00358 0 0 1 538 256)"/><path d="M50.3521 168.099 49.7673 169.021C49.4593 168.848 49.2024 168.668 49.0003 168.485 48.6687 168.189 48.4567 167.904 48.3683 167.636 48.2801 167.367 48.2723 167.118 48.3487 166.874 48.4271 166.637 48.7079 166.248 49.1984 165.707L51.9532 162.626 51.2822 162.026 51.9121 161.321 52.5871 161.924 53.7723 160.597 55.1694 160.866 53.4955 162.738 54.4159 163.558 53.786 164.27 52.8658 163.44 50.0597 166.574C49.8321 166.831 49.6988 167.012 49.6614 167.118 49.6321 167.218 49.6321 167.322 49.6614 167.431 49.6947 167.541 49.7831 167.657 49.9186 167.775 50.0186 167.867 50.1637 167.983 50.3521 168.099Z" fill="#693403" fill-rule="evenodd" transform="matrix(1.00358 0 0 1 538 256)"/><path d="M48.7869 171.862 49.3834 170.879C49.5541 171.101 49.7129 171.271 49.872 171.395 50.0838 171.564 50.288 171.668 50.4684 171.693 50.6567 171.725 50.8373 171.707 51.0198 171.648 51.1571 171.607 51.4436 171.442 51.8773 171.164 51.9343 171.124 52.0243 171.071 52.148 171.003L54.4319 163.643 55.476 164.463 54.0887 168.668C53.9179 169.195 53.7099 169.739 53.4744 170.296 53.9318 169.947 54.3986 169.625 54.8853 169.327L58.6938 166.994 59.6594 167.749 52.9741 171.784C52.2541 172.221 51.7341 172.508 51.4221 172.639 51.0002 172.82 50.6234 172.898 50.288 172.871 49.9484 172.843 49.6248 172.71 49.3166 172.471 49.1303 172.321 48.9537 172.121 48.7869 171.862Z" fill="#693403" fill-rule="evenodd" transform="matrix(1.00358 0 0 1 538 256)"/><path d="M61.8263 173.501C61.3555 174.287 61.173 174.98 61.2808 175.58 61.3947 176.183 61.7164 176.642 62.2442 176.958 62.7664 177.27 63.3197 177.335 63.9042 177.15 64.4871 176.964 65.0248 176.465 65.5094 175.665 65.9627 174.902 66.1353 174.217 66.0235 173.616 65.9098 173.014 65.5937 172.555 65.07 172.245 64.5478 171.927 63.9926 171.862 63.4097 172.043 62.829 172.221 62.3012 172.71 61.8263 173.501ZM60.7433 172.845C61.4281 171.707 62.2561 171.052 63.2273 170.891 64.0359 170.751 64.8206 170.918 65.5937 171.383 66.4454 171.89 66.9772 172.586 67.189 173.465 67.3991 174.352 67.2107 175.276 66.6238 176.261 66.1511 177.048 65.6545 177.603 65.1404 177.914 64.6263 178.225 64.0671 178.367 63.457 178.343 62.8467 178.316 62.2698 178.143 61.7301 177.819 60.8551 177.297 60.3195 176.595 60.1115 175.714 59.9094 174.843 60.1172 173.887 60.7433 172.845Z" fill="#693403" fill-rule="evenodd" transform="matrix(1.00358 0 0 1 538 256)"/><path d="M66.3565 180.24 69.2231 174.707 68.2618 174.201 68.6953 173.361 69.6609 173.865 70.014 173.182C70.2338 172.753 70.4378 172.458 70.6203 172.288 70.8734 172.068 71.1736 171.935 71.5288 171.893 71.886 171.862 72.302 171.966 72.7787 172.211 73.0886 172.366 73.4065 172.586 73.7402 172.843L73.0926 173.702C72.8846 173.54 72.6825 173.416 72.4764 173.312 72.1469 173.141 71.8761 173.09 71.6662 173.157 71.4563 173.226 71.2502 173.453 71.05 173.842L70.7458 174.423 72.0016 175.076 71.564 175.916 70.3083 175.264 67.4435 180.806 66.3565 180.24Z" fill="#693403" fill-rule="evenodd" transform="matrix(1.00358 0 0 1 538 256)"/><path d="M76.995 179.499 79.4123 180.426C80.2109 180.73 80.8349 180.8 81.2862 180.63 81.7336 180.463 82.0612 180.112 82.2614 179.582 82.4124 179.197 82.4398 178.82 82.3496 178.473 82.2555 178.124 82.0631 177.837 81.7766 177.631 81.5882 177.488 81.2155 177.32 80.6503 177.1L78.2586 176.189 76.995 179.499ZM73.9005 183.891 77.4363 174.621 80.9664 175.975C81.5882 176.207 82.0494 176.415 82.3555 176.601 82.7873 176.854 83.1168 177.145 83.3484 177.474 83.572 177.812 83.7134 178.199 83.7545 178.662 83.7978 179.111 83.7311 179.57 83.5545 180.031 83.2541 180.818 82.7459 181.387 82.0319 181.744 81.3157 182.093 80.2991 182.017 78.9767 181.509L76.579 180.592 75.1367 184.356 73.9005 183.891Z" fill="#693403" fill-rule="evenodd" transform="matrix(1.00358 0 0 1 538 256)"/><path d="M83.9793 183.734C83.7202 184.613 83.7221 185.339 83.9812 185.888 84.2442 186.446 84.6659 186.807 85.2566 186.983 85.8432 187.15 86.3966 187.071 86.9128 186.748 87.4307 186.418 87.8233 185.802 88.088 184.897 88.3392 184.046 88.3352 183.339 88.0684 182.792 87.8055 182.233 87.3855 181.872 86.8029 181.705 86.2122 181.523 85.6608 181.601 85.1408 181.925 84.6267 182.248 84.2362 182.857 83.9793 183.734ZM82.7646 183.381C83.1395 182.107 83.7732 181.265 84.674 180.859 85.4213 180.528 86.2259 180.484 87.0835 180.734 88.0469 181.018 88.7335 181.548 89.1635 182.351 89.5873 183.153 89.6402 184.097 89.3183 185.198 89.0554 186.082 88.7219 186.738 88.3019 187.168 87.8859 187.601 87.3777 187.88 86.7833 188.009 86.1867 188.145 85.5844 188.117 84.9779 187.941 83.9989 187.654 83.3023 187.111 82.8863 186.322 82.4644 185.519 82.4252 184.544 82.7646 183.381Z" fill="#693403" fill-rule="evenodd" transform="matrix(1.00358 0 0 1 538 256)"/><path d="M89.5395 186.839 90.7679 186.91C90.7346 187.396 90.8404 187.795 91.0917 188.114 91.3448 188.43 91.7431 188.648 92.2927 188.766 92.842 188.882 93.2757 188.864 93.5877 188.701 93.9075 188.535 94.0938 188.301 94.1585 188.003 94.2174 187.73 94.1488 187.493 93.9446 187.291 93.8035 187.151 93.4208 186.923 92.8046 186.619 91.9688 186.207 91.3959 185.889 91.0917 185.646 90.7837 185.417 90.5757 185.146 90.4618 184.822 90.3441 184.498 90.3245 184.163 90.4011 183.819 90.4677 183.501 90.6012 183.231 90.8052 182.997 91.0054 182.766 91.2505 182.585 91.5391 182.454 91.7568 182.365 92.0336 182.299 92.3808 182.275 92.7224 182.248 93.0774 182.281 93.4464 182.357 94.0016 182.479 94.4745 182.662 94.861 182.911 95.2477 183.166 95.5124 183.444 95.6538 183.76 95.7951 184.072 95.854 184.463 95.8343 184.94L94.6216 184.838C94.6492 184.473 94.553 184.149 94.3431 183.89 94.1311 183.633 93.7917 183.454 93.3227 183.362 92.7694 183.235 92.3572 183.242 92.0807 183.372 91.8079 183.501 91.645 183.688 91.5902 183.929 91.5588 184.084 91.5763 184.239 91.6491 184.383 91.7195 184.522 91.849 184.669 92.0433 184.795 92.1532 184.867 92.4808 185.042 93.04 185.326 93.8387 185.74 94.3942 186.05 94.6963 186.264 95.0023 186.476 95.2222 186.749 95.3536 187.059 95.489 187.377 95.5124 187.73 95.4242 188.136 95.3399 188.535 95.1397 188.882 94.8296 189.186 94.5235 189.488 94.1252 189.684 93.6444 189.78 93.1618 189.877 92.6437 189.865 92.0847 189.747 91.1643 189.549 90.5032 189.207 90.1047 188.727 89.7005 188.234 89.5102 187.614 89.5395 186.839Z" fill="#693403" fill-rule="evenodd" transform="matrix(1.00358 0 0 1 538 256)"/><path d="M99.2772 189.748 99.2909 190.835C98.9378 190.861 98.6237 190.849 98.3589 190.809 97.9134 190.745 97.5837 190.617 97.3582 190.445 97.1384 190.266 96.9951 190.058 96.9304 189.821 96.8656 189.583 96.8871 189.102 96.9951 188.378L97.6151 184.293 96.7224 184.156 96.8656 183.216 97.7583 183.353 98.0214 181.593 99.3399 181.057 98.9671 183.542 100.19 183.722 100.048 184.66 98.8258 184.474 98.194 188.624C98.141 188.973 98.1313 189.195 98.1587 189.295 98.1862 189.401 98.2469 189.489 98.3334 189.569 98.4216 189.64 98.557 189.685 98.7336 189.717 98.869 189.736 99.0515 189.748 99.2772 189.748Z" fill="#693403" fill-rule="evenodd" transform="matrix(1.00358 0 0 1 538 256)"/><path d="M100.551 189.076 101.762 188.872C101.84 189.349 102.034 189.716 102.35 189.969 102.668 190.22 103.108 190.346 103.667 190.33 104.234 190.326 104.65 190.198 104.917 189.969 105.186 189.735 105.317 189.466 105.317 189.16 105.307 188.88 105.186 188.674 104.94 188.519 104.772 188.419 104.35 188.281 103.677 188.126 102.772 187.912 102.144 187.728 101.793 187.575 101.444 187.414 101.171 187.188 100.99 186.904 100.804 186.619 100.71 186.296 100.702 185.946 100.7 185.625 100.767 185.326 100.91 185.054 101.057 184.775 101.252 184.547 101.503 184.361 101.691 184.212 101.948 184.096 102.278 183.994 102.607 183.89 102.96 183.837 103.339 183.825 103.908 183.819 104.411 183.89 104.844 184.045 105.276 184.2 105.598 184.42 105.808 184.692 106.018 184.963 106.163 185.34 106.251 185.799L105.05 185.978C104.989 185.611 104.823 185.326 104.56 185.116 104.295 184.918 103.922 184.822 103.443 184.826 102.88 184.834 102.48 184.94 102.241 185.126 102.001 185.313 101.885 185.532 101.887 185.778 101.891 185.94 101.942 186.084 102.046 186.207 102.15 186.333 102.309 186.437 102.521 186.521 102.648 186.568 103.01 186.664 103.616 186.812 104.489 187.031 105.097 187.206 105.445 187.349 105.788 187.49 106.065 187.698 106.263 187.975 106.465 188.248 106.571 188.597 106.575 189.011 106.583 189.419 106.471 189.8 106.237 190.163 106.004 190.524 105.66 190.809 105.215 191.017 104.764 191.217 104.26 191.325 103.69 191.334 102.749 191.35 102.024 191.172 101.526 190.783 101.026 190.408 100.7 189.839 100.551 189.076Z" fill="#693403" fill-rule="evenodd" transform="matrix(1.00358 0 0 1 538 256)"/><path d="M115.462 185.396C115.078 185.689 114.469 185.999 113.635 186.348 113.166 186.548 112.839 186.723 112.662 186.858 112.48 186.994 112.358 187.168 112.295 187.36 112.226 187.563 112.219 187.759 112.274 187.965 112.356 188.281 112.542 188.506 112.839 188.661 113.135 188.807 113.514 188.818 113.975 188.695 114.434 188.573 114.816 188.365 115.121 188.081 115.425 187.784 115.619 187.445 115.694 187.058 115.751 186.76 115.711 186.348 115.576 185.832L115.462 185.396ZM116.253 188.004C115.909 188.487 115.552 188.856 115.184 189.119 114.819 189.382 114.399 189.568 113.932 189.697 113.165 189.892 112.521 189.864 112.009 189.599 111.497 189.334 111.167 188.909 111.012 188.334 110.922 187.988 110.92 187.661 111.004 187.337 111.088 187.021 111.232 186.738 111.442 186.505 111.65 186.264 111.903 186.061 112.197 185.889 112.415 185.763 112.75 185.614 113.208 185.437 114.136 185.069 114.809 184.751 115.223 184.474 115.184 184.309 115.16 184.211 115.148 184.164 115.023 183.681 114.822 183.373 114.544 183.244 114.173 183.048 113.682 183.036 113.084 183.191 112.525 183.34 112.138 183.546 111.922 183.813 111.706 184.072 111.599 184.474 111.602 184.996L110.394 185.145C110.374 184.627 110.445 184.176 110.602 183.813 110.769 183.45 111.055 183.122 111.475 182.838 111.889 182.557 112.399 182.331 113.001 182.17 113.6 182.016 114.108 181.965 114.52 182.002 114.929 182.041 115.254 182.143 115.482 182.312 115.713 182.479 115.909 182.712 116.063 183.018 116.153 183.204 116.269 183.568 116.406 184.086L116.816 185.661C117.104 186.748 117.311 187.441 117.436 187.72 117.562 187.988 117.738 188.247 117.956 188.469L116.712 188.799C116.526 188.585 116.373 188.318 116.253 188.004Z" fill="#693403" fill-rule="evenodd" transform="matrix(1.00358 0 0 1 538 256)"/><path d="M119.426 187.989 117.03 181.212 118.076 180.849 118.416 181.806C118.655 180.89 119.249 180.256 120.197 179.926 120.611 179.777 121.015 179.718 121.414 179.744 121.81 179.765 122.136 179.866 122.395 180.048 122.646 180.223 122.87 180.464 123.05 180.766 123.172 180.968 123.325 181.329 123.509 181.859L124.981 186.025 123.827 186.437 122.367 182.31C122.2 181.847 122.036 181.51 121.863 181.318 121.689 181.11 121.467 180.986 121.188 180.929 120.908 180.87 120.613 180.896 120.305 181.006 119.807 181.178 119.44 181.484 119.191 181.924 118.943 182.365 118.973 183.009 119.275 183.878L120.586 187.577 119.426 187.989Z" fill="#693403" fill-rule="evenodd" transform="matrix(1.00358 0 0 1 538 256)"/><path d="M125.968 181.75C126.34 182.598 126.796 183.141 127.337 183.398 127.879 183.659 128.393 183.683 128.882 183.471 129.372 183.257 129.704 182.87 129.874 182.325 130.041 181.77 129.945 181.085 129.586 180.268 129.191 179.37 128.725 178.787 128.189 178.522 127.655 178.251 127.133 178.234 126.621 178.459 126.119 178.679 125.793 179.066 125.634 179.615 125.475 180.164 125.587 180.877 125.968 181.75ZM130.971 183.463 130.606 182.635C130.473 183.477 129.994 184.073 129.18 184.434 128.65 184.669 128.101 184.73 127.525 184.64 126.955 184.548 126.435 184.293 125.964 183.885 125.489 183.477 125.108 182.935 124.812 182.26 124.523 181.601 124.372 180.955 124.359 180.325 124.345 179.695 124.494 179.144 124.812 178.661 125.128 178.181 125.559 177.823 126.107 177.58 126.509 177.406 126.901 177.335 127.288 177.359 127.671 177.392 128.022 177.5 128.336 177.684L126.906 174.423 128.026 173.932 132.017 183.01 130.971 183.463Z" fill="#693403" fill-rule="evenodd" transform="matrix(1.00358 0 0 1 538 256)"/><path d="M139.525 179.034 135.106 171.487 132.259 173.157 131.668 172.148 138.516 168.13 139.107 169.144 136.248 170.814 140.669 178.367 139.525 179.034Z" fill="#693403" fill-rule="evenodd" transform="matrix(1.00358 0 0 1 538 256)"/><path d="M142.634 172.095 145.954 169.782C145.567 169.315 145.179 169.03 144.796 168.926 144.209 168.773 143.656 168.863 143.144 169.224 142.683 169.548 142.398 169.974 142.298 170.498 142.198 171.022 142.308 171.559 142.634 172.095ZM147.072 171.396 148.2 170.8C148.457 171.514 148.479 172.199 148.271 172.845 148.055 173.484 147.602 174.045 146.915 174.528 146.044 175.135 145.171 175.354 144.286 175.172 143.409 175.005 142.634 174.436 141.964 173.478 141.274 172.484 140.997 171.54 141.127 170.633 141.258 169.729 141.739 168.985 142.559 168.41 143.356 167.851 144.191 167.67 145.071 167.851 145.95 168.033 146.727 168.616 147.408 169.585 147.447 169.648 147.51 169.741 147.588 169.854L143.152 172.956C143.642 173.573 144.17 173.945 144.743 174.053 145.314 174.163 145.848 174.045 146.346 173.704 146.713 173.447 146.964 173.127 147.092 172.753 147.217 172.382 147.211 171.926 147.072 171.396Z" fill="#693403" fill-rule="evenodd" transform="matrix(1.00358 0 0 1 538 256)"/><path d="M145.424 163.065 151.553 170.869 150.584 171.63 144.455 163.826 145.424 163.065Z" fill="#693403" fill-rule="evenodd" transform="matrix(1.00358 0 0 1 538 256)"/><path d="M150.989 165.823 154.019 163.133C153.579 162.718 153.161 162.479 152.771 162.422 152.166 162.332 151.629 162.493 151.164 162.911 150.742 163.287 150.512 163.741 150.471 164.271 150.43 164.814 150.607 165.324 150.989 165.823ZM155.318 164.612 156.369 163.882C156.711 164.569 156.809 165.24 156.672 165.899 156.538 166.574 156.154 167.18 155.528 167.738 154.733 168.448 153.887 168.758 152.993 168.685 152.096 168.617 151.26 168.144 150.489 167.273 149.682 166.364 149.298 165.46 149.325 164.541 149.351 163.623 149.739 162.838 150.489 162.169 151.215 161.529 152.023 161.243 152.92 161.323 153.813 161.406 154.655 161.89 155.441 162.777 155.488 162.83 155.559 162.911 155.651 163.024L151.603 166.609C152.159 167.175 152.733 167.479 153.316 167.524 153.891 167.569 154.409 167.387 154.866 166.988 155.202 166.69 155.412 166.341 155.496 165.952 155.579 165.572 155.518 165.122 155.318 164.612Z" fill="#693403" fill-rule="evenodd" transform="matrix(1.00358 0 0 1 538 256)"/><path d="M160.2 159.226 161.148 158.464C161.656 159.124 161.888 159.818 161.85 160.535 161.809 161.249 161.517 161.889 160.969 162.471 160.285 163.184 159.504 163.539 158.619 163.533 157.738 163.529 156.864 163.107 155.995 162.275 155.434 161.741 155.032 161.178 154.792 160.593 154.553 160.003 154.51 159.414 154.667 158.825 154.822 158.245 155.114 157.725 155.544 157.273 156.091 156.704 156.68 156.382 157.308 156.29 157.94 156.198 158.566 156.355 159.192 156.759L158.499 157.738C158.069 157.493 157.667 157.387 157.29 157.428 156.915 157.466 156.586 157.633 156.305 157.931 155.874 158.38 155.687 158.896 155.736 159.485 155.787 160.068 156.154 160.688 156.845 161.341 157.541 162.004 158.179 162.355 158.752 162.389 159.329 162.422 159.822 162.22 160.238 161.788 160.569 161.439 160.744 161.043 160.752 160.611 160.767 160.172 160.581 159.712 160.2 159.226Z" fill="#693403" fill-rule="evenodd" transform="matrix(1.00358 0 0 1 538 256)"/><path d="M161.263 156.56C161.981 157.129 162.643 157.41 163.257 157.377 163.867 157.351 164.363 157.1 164.75 156.611 165.135 156.14 165.272 155.607 165.166 154.996 165.064 154.394 164.644 153.794 163.908 153.207 163.218 152.648 162.564 152.385 161.952 152.418 161.342 152.447 160.843 152.693 160.467 153.172 160.08 153.654 159.939 154.196 160.039 154.79 160.141 155.399 160.549 155.981 161.263 156.56ZM160.472 157.545C159.436 156.711 158.903 155.799 158.869 154.816 158.85 154 159.117 153.236 159.678 152.54 160.304 151.765 161.067 151.329 161.968 151.247 162.872 151.156 163.765 151.464 164.656 152.185 165.374 152.759 165.855 153.329 166.088 153.878 166.328 154.429 166.392 155.004 166.287 155.607 166.179 156.207 165.928 156.758 165.533 157.245 164.895 158.038 164.13 158.477 163.233 158.562 162.337 158.644 161.42 158.31 160.472 157.545Z" fill="#693403" fill-rule="evenodd" transform="matrix(1.00358 0 0 1 538 256)"/><path d="M168.404 153.444 162.319 149.617 162.906 148.685 163.76 149.221C163.585 148.841 163.509 148.44 163.528 148.001 163.544 147.575 163.683 147.147 163.944 146.739 164.229 146.282 164.554 145.97 164.927 145.795 165.298 145.621 165.689 145.581 166.099 145.674 165.694 144.74 165.736 143.888 166.228 143.113 166.609 142.499 167.07 142.134 167.612 142.014 168.151 141.896 168.771 142.065 169.464 142.499L173.637 145.124 172.988 146.156 169.158 143.747C168.742 143.488 168.424 143.333 168.204 143.291 167.98 143.24 167.757 143.274 167.535 143.382 167.311 143.488 167.127 143.662 166.972 143.9 166.703 144.326 166.619 144.781 166.725 145.246 166.829 145.711 167.192 146.137 167.821 146.533L171.353 148.75 170.696 149.798 166.748 147.31C166.289 147.016 165.895 146.89 165.557 146.912 165.22 146.939 164.933 147.147 164.688 147.534 164.505 147.826 164.409 148.144 164.405 148.491 164.403 148.835 164.515 149.15 164.737 149.449 164.961 149.745 165.351 150.071 165.904 150.418L169.056 152.402 168.404 153.444Z" fill="#693403" fill-rule="evenodd" transform="matrix(1.00358 0 0 1 538 256)"/><path d="M174.457 143.615 167.888 140.693 168.333 139.694 169.258 140.098C169.026 139.749 168.891 139.359 168.849 138.927 168.808 138.493 168.887 138.056 169.081 137.614 169.301 137.124 169.579 136.767 169.921 136.541 170.262 136.321 170.643 136.219 171.063 136.256 170.529 135.389 170.451 134.536 170.821 133.694 171.114 133.034 171.52 132.611 172.038 132.414 172.554 132.22 173.19 132.293 173.939 132.622L178.445 134.626 177.948 135.746 173.812 133.91C173.368 133.708 173.033 133.605 172.803 133.59 172.574 133.58 172.362 133.645 172.154 133.772 171.952 133.916 171.793 134.11 171.677 134.367 171.467 134.832 171.449 135.293 171.622 135.738 171.793 136.178 172.215 136.553 172.89 136.853L176.706 138.546 176.206 139.671 171.942 137.785C171.445 137.561 171.029 137.485 170.706 137.561 170.372 137.634 170.121 137.873 169.936 138.293 169.795 138.609 169.744 138.941 169.795 139.282 169.838 139.622 169.991 139.924 170.256 140.187 170.521 140.448 170.951 140.712 171.549 140.973L174.954 142.49 174.457 143.615Z" fill="#693403" fill-rule="evenodd" transform="matrix(1.00358 0 0 1 538 256)"/><path d="M179.697 128.407 178.667 128.187C179.344 128.909 179.583 129.739 179.389 130.689 179.299 131.109 179.14 131.484 178.906 131.813 178.671 132.143 178.416 132.376 178.137 132.5 177.859 132.622 177.537 132.687 177.174 132.687 176.929 132.687 176.556 132.635 176.05 132.533L171.69 131.621 171.943 130.41 175.84 131.226C176.468 131.352 176.887 131.421 177.115 131.421 177.445 131.407 177.727 131.297 177.955 131.087 178.184 130.877 178.338 130.593 178.41 130.238 178.487 129.874 178.467 129.518 178.349 129.164 178.234 128.807 178.03 128.529 177.741 128.328 177.453 128.136 177.007 127.979 176.407 127.85L172.637 127.061 172.891 125.86 179.923 127.326 179.697 128.407Z" fill="#693403" fill-rule="evenodd" transform="matrix(1.00358 0 0 1 538 256)"/><path d="M180.383 125.554 173.23 124.875 173.334 123.775 174.353 123.875C173.615 123.268 173.295 122.464 173.389 121.461 173.43 121.026 173.548 120.631 173.735 120.282 173.925 119.935 174.154 119.674 174.423 119.523 174.694 119.366 175.002 119.262 175.355 119.223 175.585 119.195 175.977 119.218 176.539 119.268L180.936 119.689 180.824 120.902 176.47 120.498C175.973 120.451 175.604 120.464 175.348 120.535 175.096 120.608 174.886 120.763 174.714 120.982 174.547 121.216 174.447 121.495 174.415 121.824 174.366 122.338 174.49 122.805 174.778 123.219 175.075 123.628 175.675 123.875 176.593 123.959L180.498 124.334 180.383 125.554Z" fill="#693403" fill-rule="evenodd" transform="matrix(1.00358 0 0 1 538 256)"/><path d="M181.012 117.761 173.846 117.32 173.921 116.094 181.09 116.535 181.012 117.761ZM172.512 117.245 171.115 117.153 171.189 115.931 172.59 116.017 172.512 117.245Z" fill="#693403" fill-rule="evenodd" transform="matrix(1.00358 0 0 1 538 256)"/><path d="M178.839 109.602 179.057 108.397C179.875 108.58 180.503 108.947 180.941 109.518 181.376 110.087 181.574 110.766 181.533 111.554 181.478 112.549 181.113 113.324 180.438 113.895 179.763 114.462 178.829 114.716 177.628 114.645 176.857 114.608 176.182 114.437 175.617 114.152 175.054 113.856 174.636 113.44 174.377 112.9 174.114 112.347 173.996 111.768 174.032 111.141 174.075 110.357 174.31 109.724 174.73 109.245 175.148 108.766 175.729 108.476 176.459 108.372L176.577 109.577C176.09 109.665 175.713 109.847 175.456 110.118 175.197 110.399 175.058 110.74 175.034 111.154 175.001 111.768 175.195 112.276 175.611 112.693 176.033 113.104 176.714 113.338 177.666 113.389 178.629 113.44 179.339 113.287 179.794 112.938 180.25 112.589 180.499 112.118 180.53 111.517 180.556 111.037 180.432 110.622 180.156 110.289 179.883 109.951 179.443 109.718 178.839 109.602Z" fill="#693403" fill-rule="evenodd" transform="matrix(1.00358 0 0 1 538 256)"/><path d="M178.21 102.714C178.371 103.171 178.486 103.844 178.571 104.743 178.618 105.255 178.679 105.616 178.761 105.822 178.84 106.042 178.965 106.215 179.134 106.328 179.301 106.458 179.487 106.521 179.701 106.535 180.025 106.548 180.299 106.438 180.531 106.197 180.759 105.967 180.884 105.606 180.908 105.128 180.935 104.653 180.849 104.233 180.665 103.852 180.478 103.47 180.213 103.187 179.864 102.993 179.595 102.85 179.195 102.763 178.657 102.734L178.21 102.714ZM180.935 102.748C181.292 103.224 181.544 103.678 181.679 104.104 181.812 104.529 181.871 104.984 181.846 105.469 181.806 106.266 181.585 106.874 181.177 107.272 180.772 107.688 180.266 107.875 179.67 107.841 179.314 107.83 178.999 107.726 178.718 107.557 178.433 107.376 178.216 107.157 178.049 106.884 177.888 106.613 177.772 106.315 177.698 105.979 177.645 105.734 177.603 105.371 177.568 104.88 177.499 103.886 177.397 103.148 177.26 102.667 177.093 102.655 176.985 102.644 176.942 102.644 176.446 102.62 176.089 102.718 175.877 102.942 175.586 103.236 175.429 103.701 175.396 104.319 175.366 104.894 175.445 105.332 175.631 105.616 175.818 105.903 176.165 106.123 176.664 106.278L176.444 107.466C175.939 107.335 175.535 107.133 175.237 106.874 174.935 106.599 174.711 106.227 174.566 105.746 174.421 105.267 174.368 104.712 174.401 104.09 174.429 103.47 174.527 102.971 174.689 102.592 174.852 102.216 175.049 101.937 175.274 101.763 175.506 101.596 175.786 101.48 176.124 101.425 176.334 101.401 176.709 101.396 177.248 101.421L178.867 101.504C179.999 101.558 180.715 101.57 181.018 101.529 181.318 101.492 181.614 101.401 181.893 101.266L181.83 102.551C181.571 102.663 181.275 102.734 180.935 102.748Z" fill="#693403" fill-rule="evenodd" transform="matrix(1.00358 0 0 1 538 256)"/><path d="M181.019 96.7562 182.104 96.6285C182.159 96.9779 182.181 97.2877 182.167 97.5626 182.146 98.012 182.055 98.3495 181.906 98.5946 181.755 98.8262 181.565 98.9969 181.331 99.0853 181.102 99.1756 180.619 99.203 179.887 99.1638L175.759 98.9695 175.717 99.8622 174.768 99.823 174.813 98.9203 173.037 98.834 172.366 97.5801 174.874 97.7019 174.929 96.4598 175.877 96.5108 175.818 97.7411 180.013 97.9491C180.364 97.9628 180.586 97.9491 180.686 97.9099 180.788 97.8706 180.872 97.804 180.933 97.7156 181 97.6194 181.031 97.4842 181.043 97.3017 181.049 97.1603 181.043 96.9779 181.019 96.7562Z" fill="#693403" fill-rule="evenodd" transform="matrix(1.00358 0 0 1 538 256)"/><path d="M182.164 95.5928 174.986 95.2515 175.043 94.0231 182.221 94.3665 182.164 95.5928ZM173.658 95.1945 172.257 95.1198 172.314 93.8936 173.711 93.9642 173.658 95.1945Z" fill="#693403" fill-rule="evenodd" transform="matrix(1.00358 0 0 1 538 256)"/><path d="M178.773 91.3262C179.69 91.3654 180.39 91.1966 180.863 90.8081 181.34 90.4275 181.591 89.929 181.62 89.3091 181.65 88.6988 181.444 88.1847 181 87.755 180.561 87.3271 179.868 87.0976 178.926 87.0565 178.041 87.0114 177.359 87.186 176.886 87.5744 176.405 87.963 176.152 88.4555 176.126 89.0637 176.099 89.6702 176.301 90.194 176.737 90.6218 177.174 91.0416 177.855 91.2791 178.773 91.3262ZM178.715 92.5801C177.384 92.5231 176.417 92.1012 175.814 91.3262 175.31 90.6788 175.08 89.9094 175.118 89.0108 175.167 88.0159 175.524 87.2134 176.203 86.619 176.88 86.0087 177.786 85.74 178.926 85.7889 179.847 85.8321 180.571 86.0047 181.085 86.307 181.603 86.619 181.995 87.0369 182.26 87.5883 182.529 88.1317 182.651 88.7262 182.619 89.3601 182.574 90.3706 182.213 91.177 181.542 91.7795 180.867 92.3721 179.927 92.6449 178.715 92.5801Z" fill="#693403" fill-rule="evenodd" transform="matrix(1.00358 0 0 1 538 256)"/><path d="M182.675 84.6449 175.498 84.323 175.552 83.2163 176.569 83.2633C175.806 82.7003 175.445 81.9116 175.492 80.903 175.511 80.4615 175.605 80.067 175.776 79.7139 175.953 79.3508 176.171 79.084 176.426 78.9093 176.689 78.7427 176.991 78.6268 177.34 78.5758 177.571 78.5347 177.966 78.5347 178.529 78.5621L182.942 78.7564 182.885 79.9847 178.519 79.7905C178.023 79.7628 177.65 79.7964 177.405 79.8826 177.154 79.9649 176.95 80.1258 176.791 80.3556 176.634 80.6047 176.549 80.8834 176.536 81.211 176.51 81.731 176.653 82.1959 176.967 82.5845 177.277 82.9828 177.891 83.2026 178.812 83.2437L182.73 83.4184 182.675 84.6449Z" fill="#693403" fill-rule="evenodd" transform="matrix(1.00358 0 0 1 538 256)"/><path d="M180.869 77.0794 180.734 75.8569C181.218 75.8058 181.597 75.6371 181.868 75.335 182.139 75.0308 182.284 74.603 182.311 74.0478 182.337 73.4767 182.239 73.0567 182.025 72.7723 181.809 72.4956 181.546 72.3386 181.242 72.3289 180.967 72.3131 180.747 72.4289 180.579 72.6643 180.461 72.8272 180.306 73.2373 180.108 73.8986 179.845 74.7914 179.621 75.4035 179.443 75.7451 179.264 76.0904 179.023 76.3433 178.726 76.5043 178.428 76.6712 178.1 76.7515 177.751 76.7359 177.427 76.7241 177.137 76.6357 176.872 76.4769 176.603 76.31 176.385 76.106 176.219 75.8432 176.087 75.643 175.979 75.3799 175.901 75.0405 175.814 74.707 175.781 74.3576 175.799 73.9771 175.824 73.4079 175.928 72.9097 176.111 72.4896 176.289 72.0659 176.523 71.7598 176.813 71.5617 177.096 71.3712 177.472 71.2457 177.939 71.1887L178.049 72.4053C177.677 72.4367 177.382 72.5859 177.164 72.8312 176.945 73.0902 176.823 73.4512 176.803 73.9319 176.78 74.499 176.852 74.9013 177.027 75.1523 177.202 75.4035 177.41 75.535 177.663 75.5409 177.82 75.5468 177.963 75.5094 178.091 75.4113 178.226 75.3151 178.342 75.1662 178.438 74.9523 178.487 74.8365 178.609 74.4734 178.797 73.8769 179.062 73.0274 179.282 72.4289 179.443 72.0874 179.604 71.752 179.827 71.491 180.115 71.3045 180.404 71.1239 180.755 71.0476 181.169 71.0613 181.573 71.0769 181.952 71.2142 182.299 71.4733 182.649 71.7245 182.91 72.0817 183.082 72.5407 183.261 73 183.335 73.5178 183.312 74.0849 183.267 75.0249 183.043 75.7333 182.635 76.206 182.225 76.6849 181.638 76.9791 180.869 77.0794Z" fill="#693403" fill-rule="evenodd" transform="matrix(1.00358 0 0 1 538 256)"/><path d="M1.65039 0 201.624 0.221347 201.517 2.70783C200.322 30.5892 199.461 51.6249 198.802 67.7352 197.205 106.789 196.791 116.899 195.661 125.422 194.776 132.048 193.905 138.117 188.934 148.274 176.904 172.896 156.005 187.853 137.825 196.613 128.723 200.999 120.255 203.855 113.828 205.607 110.614 206.483 107.9 207.085 105.86 207.466 104.841 207.655 103.979 207.792 103.299 207.878 102.735 207.951 102.164 208.007 101.723 207.999 101.313 208.007 100.783 207.952 100.309 207.894 99.679 207.817 98.8579 207.695 97.8716 207.522 95.8965 207.177 93.2178 206.621 90.0165 205.798 83.6162 204.152 75.0875 201.427 65.8913 197.142 47.5228 188.585 26.2971 173.713 14.2385 148.621 9.96225 139.72 9.23392 135.648 7.69832 127.061 7.64275 126.75 7.58614 126.434 7.52825 126.11M1.65039 0 1.74905 2.48447 1.65039 0ZM1.74905 2.48447 4.13417 2.38975 1.74905 2.48447ZM196.641 4.98983 6.61849 4.77949C6.64711 5.49434 6.68157 6.35357 6.72143 7.34413 6.85086 10.5618 7.03697 15.1653 7.26369 20.7084 7.71715 31.7949 8.33307 46.639 8.98295 61.6713 9.63286 76.7047 10.3165 91.9221 10.9055 103.756 11.2001 109.675 11.4706 114.74 11.7011 118.51 11.9375 122.377 12.1224 124.685 12.2267 125.264 12.2856 125.593 12.3434 125.916 12.3997 126.231 13.9086 134.669 14.547 138.239 18.5414 146.553 29.9525 170.298 50.1162 184.526 67.9073 192.815 76.7908 196.954 85.0347 199.588 91.2054 201.175 94.2899 201.968 96.8465 202.496 98.6948 202.82 99.6199 202.982 100.358 203.091 100.888 203.155 101.244 203.199 101.447 203.215 101.534 203.221 101.6 203.226 101.602 203.227 101.556 203.23L101.697 203.22 101.838 203.227C101.836 203.227 101.839 203.227 101.848 203.226 101.902 203.224 102.156 203.212 102.694 203.143 103.263 203.07 104.033 202.95 104.986 202.772 106.89 202.418 109.477 201.845 112.573 201.001 118.767 199.313 126.955 196.551 135.753 192.312 153.374 183.821 173.252 169.497 184.645 146.177 189.297 136.673 190.076 131.174 190.929 124.795 192.028 116.499 192.43 106.695 194.012 68.0162 194.653 52.3503 195.488 31.9476 196.641 4.98983ZM4.13417 2.38975C1.74905 2.48447 1.74901 2.48357 1.74905 2.48447L4.13417 2.38975ZM1.80163 3.8034C1.836 4.6639 1.88656 5.9267 1.95129 7.53598L1.80163 3.8034ZM1.95129 7.53598C2.08075 10.7546 2.26691 15.3592 2.49368 20.9035L1.95129 7.53598ZM2.49368 20.9035C2.94724 31.9921 3.56332 46.8402 4.21339 61.8776L2.49368 20.9035ZM4.21339 61.8776C4.86344 76.9139 5.54764 92.1435 6.13744 103.994L4.21339 61.8776ZM6.13744 103.994C6.43228 109.918 6.70386 115.004 6.93604 118.802L6.13744 103.994ZM6.93604 118.802C7.16217 122.501 7.36088 125.179 7.52825 126.11L6.93604 118.802Z" fill="#693403" fill-rule="evenodd" transform="matrix(1.00358 0 0 1 538 256)"/><path d="M109.192 115.085C109.159 122.508 109.135 129.899 109.118 137.008L118.587 115.189C119.411 113.282 118.476 112.232 116.498 112.836L109.322 115.057C109.281 115.071 109.234 115.085 109.192 115.085Z" fill="#693403" transform="matrix(1.00358 0 0 1 538 256)"/><path d="M98.7653 52.0853C98.6516 52.1267 98.4454 52.1638 98.1434 52.203L94.2365 52.203C94.0817 52.203 93.907 52.1638 93.7049 52.0756 93.5088 51.9891 93.4126 51.8676 93.4282 51.7126 93.44 51.5556 93.4596 51.4535 93.491 51.4025 93.5225 51.3495 93.595 51.2966 93.7049 51.2555 93.8148 51.2082 93.9148 51.1749 94.0032 51.1689 94.0914 51.1552 94.4426 51.1552 95.0451 51.1552L98.1079 51.1552C98.3433 51.1552 98.5594 51.1886 98.7515 51.2614 98.9458 51.3358 99.0262 51.4772 98.991 51.6967 98.9536 51.9128 98.8773 52.0402 98.7653 52.0853Z" fill="#693403" transform="matrix(1.00358 0 0 1 538 256)"/><path d="M106.041 53.426 110.321 53.426 110.321 51.4285 106.041 53.426Z" fill="#693403" transform="matrix(1.00358 0 0 1 538 256)"/><path d="M161.199 119.7C160.636 123.879 160.096 127.582 156.976 133.89 141.754 164.618 103.974 171.435 101.694 171.325 100.032 171.435 61.4808 165.434 46.2268 134.114 43.5658 128.638 43.1191 126.185 42.1413 120.818L42.0061 120.077C41.2977 116.195 38.2741 41.0124 38.2741 41.0124L164.998 41.1459C164.206 59.3228 163.64 72.9562 163.21 83.3411 162.187 107.986 161.924 114.335 161.199 119.7ZM90.1623 132.365C91.2867 133.024 92.2168 131.931 92.2147 129.92L92.2147 122.629C92.2147 120.621 90.7745 118.204 89.0065 117.246L84.5132 114.815C82.7471 113.858 81.3029 114.717 81.3029 116.722L81.3029 133.917C81.3029 135.936 82.6512 138.514 84.2993 139.658L96.9396 148.472C98.584 149.618 99.93 148.908 99.93 146.901L99.93 113.663C99.93 113.565 99.9282 113.457 99.9163 113.355 99.9163 113.32 99.9194 113.287 99.9225 113.255 99.9253 113.225 99.9282 113.197 99.9282 113.171L99.9282 80.826C99.9282 78.8206 98.3778 76.621 96.4924 75.9618L84.7427 71.7921C82.8492 71.1211 81.3029 72.2063 81.3029 74.2175L81.3029 92.2459C81.3029 94.2592 82.7885 96.5902 84.6035 97.44L88.9084 99.4353C90.7275 100.289 92.2088 99.3394 92.2088 97.336L92.2088 90.0444C92.2088 88.0351 91.2787 86.0082 90.1623 85.5471 89.0242 85.08 88.0922 86.3495 88.0922 88.3374L88.0922 88.3844C88.0922 90.3838 87.7862 91.6906 86.7559 91.4415 85.765 91.2099 85.4178 89.2065 85.4178 87.2012L85.4178 82.0602C85.4178 80.0568 86.9482 79.009 88.8044 79.7389L91.7476 80.8907C93.6156 81.6265 95.1442 83.8656 95.1442 85.8688L95.1442 104.551C95.1442 105.877 94.4968 106.711 93.543 106.894L78.2931 99.4216 78.3675 62.3834 73.9605 60.9159 73.8721 97.2516C73.8721 97.2516 59.9328 90.4055 59.2932 90.0935 58.5083 89.6088 57.2957 87.9017 57.2584 85.9023L57.2584 71.5468C57.2584 69.5474 58.8125 68.4622 60.7001 69.1472L64.0181 70.3498C65.9039 71.0426 67.2459 72.9872 67.3677 75.3319L67.3677 79.4487C67.1674 81.9366 66.7437 82.702 65.8802 82.3389 64.5282 81.7837 64.3105 80.1864 64.3105 78.3928 64.3105 76.5818 63.3845 74.7668 62.2582 74.3078 61.126 73.8781 60.1938 75.1457 60.1938 77.1548L60.1938 82.4566C60.1938 84.466 61.689 86.793 63.5059 87.6408L68.2585 89.8522C70.0832 90.7076 71.3194 89.9307 71.0859 87.7448L71.0859 70.8287C71.2428 68.8352 70.0048 66.6649 68.0975 66.049L57.3527 62.5267C55.4492 61.9027 53.8874 63.0448 53.3988 65.0461L53.4832 115.247C53.864 117.854 55.3237 119.832 56.6129 121.094L68.2093 129.157C70.2147 130.179 71.1606 129.559 71.0918 127.469L71.0918 111.389C71.1606 109.195 70.1324 106.939 68.384 105.948L63.3785 103.14C61.6361 102.165 60.1938 103.008 60.1938 105.012L60.1938 110.308C60.1938 112.307 61.126 114.536 62.2582 115.253 63.3863 115.965 64.3242 114.945 64.3242 112.979 64.3242 110.998 64.3694 109.433 65.888 110.326 66.7437 110.842 67.4558 112.902 67.4558 114.905L67.4558 119.652C67.4558 121.655 66.0863 122.395 64.4027 121.286L60.3214 118.59C58.6397 117.49 57.2721 114.945 57.2721 112.939L57.2721 98.5818C57.2721 96.5784 58.7262 95.6954 60.5098 96.6158L73.8525 103.576 73.7722 138.302C73.8662 140.951 74.0449 143.163 76.9156 145.529L100.009 161.97 99.8986 155.656C99.8986 155.656 80.8988 142.662 79.8784 141.756 78.5245 140.798 78.2224 137.109 78.2224 135.92L78.2794 105.877 91.9126 112.97C93.6863 113.887 95.1501 116.3 95.1501 118.3L95.1501 136.984C95.1501 138.987 93.7354 139.774 92.0166 138.742L88.5416 136.646C86.8246 135.598 85.4216 133.114 85.4216 131.097L85.4216 125.334C85.4216 123.325 85.7021 121.812 86.7639 122.444 87.4898 122.885 88.1001 124.844 88.1001 126.849L88.1001 127.514C88.1001 129.52 89.0261 131.705 90.1623 132.365ZM124.953 105.611C126.929 104.995 127.882 106.059 127.078 107.972L115.059 136.27C114.255 138.178 112.138 140.589 110.368 141.651L109.188 142.349 109.11 142.387C109.09 148.493 109.09 154.324 109.11 159.693L104.232 163.25C104.245 159.778 104.256 146.368 104.268 130.909 104.285 110.673 104.304 86.9232 104.334 77.3578 104.344 74.6422 104.354 71.9266 104.368 69.2226 104.369 67.5768 106.265 67.1093 108.013 66.6782 108.463 66.5669 108.904 66.4581 109.3 66.3324 109.346 78.3212 109.286 92.5943 109.226 107.134L118.803 82.3966C119.541 80.4738 121.48 78.3919 123.1 77.7738 124.717 77.1538 125.412 78.2113 124.643 80.1266L114.38 105.784C113.615 107.699 114.604 108.772 116.576 108.168L124.953 105.611ZM143.645 84.6591 153.844 81.0841C155.777 80.3972 156.699 81.3783 155.873 83.2759L134.74 131.353C133.91 133.245 131.848 135.689 130.178 136.786 128.494 137.874 127.77 137.214 128.565 135.315L146.943 91.5091C147.74 89.6078 146.788 88.5834 144.841 89.2429L134.509 92.7472C132.548 93.4145 131.646 92.4255 132.501 90.5379L141.651 70.3959C142.51 68.5124 141.643 67.6078 139.72 68.3828L113.637 78.9216C111.718 79.6987 110.158 79.2357 110.158 77.9014 110.158 76.5553 111.735 74.862 113.662 74.1203 113.662 74.1203 147.32 61.1915 147.814 61.0227 148.595 60.74 150.483 61.264 150.161 62.8867 150.114 63.132 141.612 82.4694 141.612 82.4694 140.78 84.3707 141.698 85.3519 143.645 84.6591ZM128.938 97.0816 138.621 94.3582C140.609 93.7971 141.559 94.8842 140.737 96.7855L121.817 140.383C120.995 142.271 118.946 144.794 117.261 145.997L115.801 147.017C114.119 148.226 113.417 147.651 114.225 145.758L132.287 104.014C133.113 102.113 132.154 101.024 130.168 101.583L121.688 103.975C119.702 104.53 118.723 103.439 119.518 101.538L128.999 78.9178C129.797 77.0085 131.824 74.7736 133.492 73.9457 135.17 73.1037 135.868 73.9828 135.034 75.8588L126.825 94.6643C125.996 96.5519 126.954 97.639 128.938 97.0816ZM83.2329 51.2602 80.8626 51.2602 80.8626 50.2105 86.2075 50.2105 86.2075 55.3396 83.2329 55.3396 83.2329 51.2602ZM99.246 50.1193C98.9654 50.1015 98.5043 50.0897 97.8548 50.08L93.8226 50.08 92.9219 50.1152C92.7356 50.1193 92.4803 50.1526 92.1646 50.2114 91.8426 50.2703 91.5661 50.3488 91.3307 50.445 91.0952 50.5393 90.9107 50.6511 90.7792 50.7688 90.6438 50.8905 90.5575 51.0375 90.5124 51.2278 90.4653 51.4143 90.4417 51.5949 90.4417 51.7773 90.4417 51.9558 90.4653 52.1127 90.5027 52.2364 90.5457 52.3581 90.6164 52.4817 90.7104 52.6053 90.8088 52.733 90.9912 52.8429 91.2581 52.941 91.525 53.0313 91.7878 53.1057 92.0469 53.1468 92.3078 53.192 92.608 53.2253 92.9514 53.239 93.2986 53.2667 93.8364 53.2667 94.5741 53.2489L97.2211 53.2489 98.3906 53.192 99.0557 53.0821C99.0654 53.0821 99.0557 53.1234 99.0262 53.1861 98.9969 53.2489 98.995 53.3411 99.0146 53.4551 99.0321 53.5728 99.0184 53.6905 98.9654 53.7945 98.9144 53.8907 98.8399 53.9691 98.7437 54.0162 98.6416 54.0573 98.4729 54.1065 98.2315 54.1495 97.9864 54.1946 97.6527 54.2183 97.2211 54.2183L95.1099 54.2183C94.5407 54.2183 94.1503 54.1731 93.9363 54.0906 93.7224 54.0162 93.595 53.9415 93.5518 53.8966 93.527 53.8618 93.5028 53.8252 93.4813 53.7791 93.4724 53.76 93.4639 53.7389 93.4556 53.716L93.4085 53.5728 90.4575 53.5491 90.4417 53.8063C90.428 54.1299 90.4928 54.3438 90.632 54.4674 90.7714 54.5832 90.9069 54.6794 91.0343 54.7501 91.1579 54.8286 91.2581 54.8737 91.3248 54.9011L91.3597 54.9132 91.4673 54.9501C91.5321 54.9716 91.6119 54.9966 91.7074 55.0229 91.7599 55.0415 91.8072 55.0571 91.8497 55.0704 91.9235 55.0933 91.9823 55.1089 92.0261 55.1205L92.0783 55.1347C92.1244 55.1479 92.2192 55.1614 92.3626 55.1817L92.5139 55.2032 92.7332 55.2285C92.8153 55.2384 92.8926 55.2474 92.9644 55.255 93.0157 55.2602 93.0644 55.2647 93.1103 55.268L93.1249 55.2691C93.2939 55.281 93.6102 55.3036 94.0621 55.3131L97.743 55.3131 98.5357 55.2935C98.6546 55.2935 98.774 55.2888 98.8945 55.2824 98.9489 55.2793 99.0033 55.2762 99.0581 55.2729L99.1441 55.268C99.312 55.258 99.4925 55.2368 99.6774 55.215L99.7778 55.2032 99.8239 55.1973C100.026 55.1708 100.185 55.1503 100.294 55.1247 100.417 55.1072 100.571 55.064 100.749 55.007 100.936 54.9441 101.085 54.8874 101.198 54.8286 101.32 54.7775 101.424 54.7127 101.516 54.6343 101.611 54.5577 101.687 54.4792 101.742 54.4007 101.797 54.3242 101.852 54.2476 101.899 54.1575 101.946 54.0632 101.995 53.8966 102.042 53.6512L102.07 51.9853 101.96 51.2555C101.942 51.1179 101.891 51.012 101.801 50.9238 101.712 50.8314 101.581 50.7433 101.406 50.6511 101.23 50.549 101.032 50.4705 100.804 50.392 100.578 50.3154 100.333 50.2625 100.064 50.2251 99.7956 50.18 99.5247 50.1467 99.246 50.1193ZM113.209 50.0961 113.209 53.426 114.484 53.426 114.484 54.5501 113.209 54.566 113.209 55.3036 110.321 55.3136 110.321 54.5501 102.908 54.5501 102.908 53.114 109.991 50.0961 113.209 50.0961ZM115.447 51.7629 115.447 52.0747 118.267 52.0747 118.267 51.9511C118.259 51.8922 118.273 51.7882 118.316 51.6412 118.351 51.4921 118.424 51.4018 118.526 51.3644 118.63 51.3233 118.763 51.2919 118.938 51.2604 119.112 51.233 119.35 51.2212 119.652 51.2212L122.325 51.2212C122.638 51.2212 122.886 51.2212 123.064 51.233 123.241 51.2389 123.418 51.2722 123.584 51.337 123.755 51.3881 123.818 51.5509 123.773 51.8022L123.731 51.9846C123.7 52.0865 123.627 52.1631 123.522 52.2141 123.412 52.2671 123.245 52.3063 123.027 52.3319 122.809 52.3593 122.513 52.3711 122.138 52.3848L121.316 52.4103 119.762 52.4477C119.305 52.4633 118.871 52.4888 118.453 52.5261 118.037 52.5536 117.706 52.5909 117.47 52.6301 117.25 52.6665 117.038 52.7148 116.836 52.7606L116.789 52.7713C116.577 52.8381 116.367 52.9147 116.173 53.0147 115.973 53.1069 115.832 53.2187 115.753 53.3326 115.669 53.4444 115.602 53.5484 115.543 53.6446 115.488 53.7427 115.459 53.8585 115.459 53.9977L115.459 55.3084 126.71 55.3084 126.71 54.2076 118.785 54.2076C118.732 54.1998 118.667 54.1958 118.599 54.1821 118.572 54.179 118.547 54.175 118.525 54.1701 118.491 54.1627 118.461 54.1535 118.435 54.1429 118.396 54.1233 118.375 54.0918 118.375 54.0292 118.367 53.9977 118.371 53.9722 118.381 53.9408 118.388 53.9233 118.396 53.9075 118.406 53.8893 118.415 53.8732 118.424 53.8552 118.435 53.833 118.459 53.7819 118.514 53.7309 118.604 53.6839 118.693 53.6387 118.818 53.5995 118.981 53.5661 119.142 53.5444 119.409 53.5229 119.774 53.5073L122.311 53.4248C123.182 53.4052 123.755 53.3815 124.03 53.3619 124.298 53.3423 124.589 53.3071 124.885 53.2657 125.187 53.2187 125.423 53.1598 125.597 53.0972 125.772 53.0303 125.923 52.954 126.051 52.8774 126.182 52.8008 126.288 52.7223 126.371 52.6439 126.459 52.5654 126.524 52.4732 126.573 52.3515 126.626 52.2375 126.649 52.0747 126.659 51.8551 126.659 51.6923 126.653 51.5823 126.643 51.5313 126.628 51.4783 126.606 51.3881 126.571 51.2604 126.529 51.129 126.486 51.0387 126.441 50.9877 126.394 50.9425 126.304 50.8721 126.172 50.7896 126.043 50.7052 125.908 50.6267 125.768 50.5601 125.625 50.5031 125.464 50.4443 125.28 50.3991 125.099 50.3481 124.881 50.3029 124.63 50.2715 124.381 50.2363 124.067 50.2029 123.69 50.1715 123.315 50.146 123.004 50.1341 122.762 50.1341L119.297 50.1341C119.022 50.1341 118.699 50.146 118.332 50.1656 117.963 50.1852 117.663 50.2126 117.425 50.2363 117.194 50.2618 116.94 50.3166 116.674 50.3795 116.409 50.4443 116.154 50.5405 115.924 50.6778 115.687 50.8189 115.547 50.9761 115.508 51.1427 115.467 51.3193 115.447 51.5254 115.447 51.7629Z" fill="#693403" fill-rule="evenodd" transform="matrix(1.00358 0 0 1 538 256)"/><path d="M22.6176 28.8756C22.6176 28.8756 22.335 29.0403 22.3174 29.2327 22.2977 29.427 22.2447 29.5762 22.0839 29.6977 21.923 29.8527 21.7248 30.0489 21.6208 30.5708 21.5109 31.083 21.2696 31.8325 21.0478 32.1937 20.8339 32.5546 20.3375 33.0472 20.155 33.1904 19.9784 33.3318 19.9608 33.7341 20.1236 33.9421 20.2865 34.1479 20.5808 34.5994 20.8575 34.8915 21.1165 35.1702 21.3206 35.39 21.3206 35.5333 21.3206 35.6746 21.2696 35.9944 21.5109 36.3475 21.7601 36.7028 21.9799 36.9538 22.4194 36.9422 22.8707 36.9186 23.6888 36.379 23.8165 35.9355 23.9401 35.4921 24.1011 35.4411 24.1207 35.131 24.1382 34.8327 24.4386 34.2441 24.4778 33.8633 24.5111 33.4965 24.5719 32.7626 24.4268 32.388 24.2599 32.0112 24.0618 31.1792 24.0618 30.8868 24.0618 30.6022 23.8165 29.8017 23.6006 29.4389 23.3848 29.0758 23.3122 28.9815 23.0728 28.8756 22.8158 28.7657 22.6176 28.8756 22.6176 28.8756Z" fill="#693403" fill-rule="evenodd" transform="matrix(1.00358 0 0 1 538 256)"/><path d="M31.3945 11.7395C31.3945 11.7395 30.6843 11.9142 30.3997 12.2242 30.1229 12.5284 30.017 12.8344 30.2505 13.2112 30.4781 13.5958 31.0863 14.0118 31.1924 14.3061 31.2943 14.6043 31.3416 15.2499 31.1924 15.4716 31.0315 15.7051 31.0078 16.2212 30.9138 16.3683 30.8039 16.5234 29.9149 17.1513 29.3557 17.3593 28.7967 17.5653 28.0391 17.4377 27.6054 18.0264 27.1641 18.6072 27.478 19.3454 28.0883 19.5789 28.6964 19.8045 28.6435 19.777 28.8496 19.728 29.0496 19.673 29.7679 19.4415 29.9149 19.52 30.0681 19.5965 30.3505 19.7025 30.282 19.8791 30.1976 20.0557 29.8679 20.5933 29.7894 20.8249 29.7128 21.0583 29.2027 21.8864 29.2301 22.0159 29.2538 22.1454 29.0791 22.1238 29.0006 22.3259 28.9222 22.5221 27.5801 23.98 27.1111 24.3842 26.6637 24.7846 24.8272 26.1423 24.5208 26.2463 24.2207 26.3366 23.8127 26.5956 24.0148 26.8251 24.2207 27.0606 24.2658 27.2019 24.2658 27.2019 24.2658 27.2019 25.3117 27.2293 25.6885 27.1116 26.0711 26.9821 26.9169 26.4897 27.1641 26.1168 27.4269 25.7343 28.0587 25.0456 28.3119 25.0945 28.5631 25.1474 28.7967 25.3535 28.8496 25.5556 28.8947 25.7539 29.1339 26.5956 29.8423 26.7996 30.5526 27.0057 30.8823 27.0057 31.265 26.472 31.6496 25.9423 32.4404 24.0859 32.8191 23.4189 33.1996 22.7537 33.9395 21.4606 34.1945 21.4606 34.4457 21.4606 34.5987 21.5764 34.5772 21.7647 34.5497 21.9394 34.0631 22.7262 33.8355 23.0402 33.6059 23.3423 33.1996 23.7564 33.1722 24.0996 33.1526 24.4589 33.2233 25.1966 33.4332 25.4301 33.6293 25.6499 33.6589 25.8128 33.5057 26.0638 33.3528 26.321 31.9263 28.0065 31.62 28.2967 31.312 28.6069 31.165 29.011 31.3671 29.4507 31.5711 29.8804 31.5985 29.8804 31.9008 29.7823 32.2069 29.6743 32.5659 29.3249 32.9427 28.9345 33.3292 28.552 33.6844 28.1987 33.8355 28.3773 33.9884 28.552 34.0631 28.6912 33.9884 29.2446 33.9061 29.8019 33.7355 30.7202 33.6059 30.8752 33.4783 31.0322 33.2703 31.2891 33.3055 31.7169 33.3292 32.1507 33.3292 33.4221 33.2233 33.8969 33.1271 34.3817 32.8425 34.7603 32.7895 35.143 32.7385 35.5314 32.613 36.0887 32.8917 36.3478 33.1722 36.6047 33.4332 36.6931 33.6589 36.5007 33.8884 36.2889 34.7242 35.6079 35.001 34.9683 35.2834 34.3344 35.2619 34.2559 35.3874 34.0579 35.511 33.8499 35.6701 33.6771 35.6701 33.4731 35.6701 33.267 35.6701 32.9295 35.8467 32.6863 36.0251 32.4272 36.0507 32.1507 36.0507 32.0211 36.0507 31.8954 36.1017 31.3794 36.1017 30.9771 36.1017 30.571 36.2272 29.5821 36.1017 29.2209 35.9743 28.8697 35.7642 28.6383 35.8977 28.0065 36.0251 27.3707 36.1272 26.7741 36.3804 26.421 36.6276 26.0638 36.9651 25.7147 36.8415 25.3006 36.708 24.9023 36.1528 24.7846 36.1528 24.5353 36.1528 24.2783 36.4863 23.9016 36.4863 23.5935 36.4863 23.2913 36.2272 22.6085 36.2272 22.3966 36.2272 22.1905 37.2909 21.3743 37.4497 21.2075 37.601 21.0211 37.4752 20.7679 37.2909 20.5678 37.1181 20.3598 36.4099 19.7025 35.5699 19.9026 34.7244 20.1028 34.4457 20.5423 33.7825 21.0976 33.1271 21.6686 32.1322 22.636 31.9261 22.7262 31.7221 22.8322 31.3416 22.8832 31.3416 22.6497 31.3416 22.4299 32.2324 21.7392 32.5893 21.4331 32.9427 21.1231 33.9884 20.5246 34.6223 19.9595 35.2619 19.3905 36.0251 18.9368 36.6846 18.6072 37.3497 18.2775 37.705 18.3286 38.0129 18.0951 38.3112 17.8635 38.368 17.7203 38.3112 17.2356 38.2543 16.7529 37.7539 16.855 37.5225 16.855 37.2909 16.855 36.3804 17.1768 36.0251 17.4181 35.6701 17.632 35.0324 18.2775 34.8282 18.305 34.6223 18.3286 34.0924 18.719 33.965 18.8073 33.8355 18.9133 33.2448 19.5514 33.1526 19.2629 33.0505 18.9879 33.3292 18.4345 33.6589 18.0009 33.9884 17.5653 34.9284 16.6941 35.4129 16.1898 35.8977 15.6796 36.0251 15.2989 35.6916 14.5396 35.364 13.7763 35.001 13.4231 34.7027 13.3368 34.3966 13.2583 34.1456 13.2112 33.965 12.9286 33.7825 12.652 33.4332 12.2242 32.768 11.9927 32.1088 11.7592 31.3945 11.7395 31.3945 11.7395Z" fill="#693403" fill-rule="evenodd" transform="matrix(1.00358 0 0 1 538 256)"/><path d="M39.5368 17.2831C39.5368 17.2831 39.1307 17.3852 39.1307 17.8365 39.1307 18.3054 39.1543 19.0667 39.1307 19.9603 39.0993 20.8531 39.0797 22.1246 39.0797 22.7015 39.0797 23.2921 38.9972 25.5289 39.0541 25.9882 39.0993 26.4472 39.1307 27.9287 38.905 28.2762 38.6755 28.639 38.0319 29.3906 37.6003 29.3906 37.1684 29.3906 36.7073 29.8007 36.8623 30.0813 37.0155 30.3697 37.7317 30.5914 38.0122 30.6954 38.2909 30.7975 38.7795 31.031 38.905 31.3272 39.0248 31.6373 38.9972 31.9689 39.2543 32.175 39.5134 32.3731 39.7684 32.4811 40.0197 32.271 40.2726 32.067 41.0143 31.4843 41.2655 30.8759 41.5168 30.2597 41.5953 29.3436 41.5953 29.0413 41.5953 28.7411 41.7777 28.431 41.7777 28.1526 41.7777 27.8621 41.4676 27.0849 41.4676 26.6455 41.4676 26.2217 41.3655 23.9299 41.3204 23.4903 41.2655 23.0645 41.1911 21.74 41.1911 21.1239 41.1911 20.5235 41.3362 19.8799 41.085 19.2638 40.8318 18.6606 40.7555 18.2269 40.4239 17.8188 40.0941 17.4185 39.5368 17.2831 39.5368 17.2831Z" fill="#693403" fill-rule="evenodd" transform="matrix(1.00358 0 0 1 538 256)"/><path d="M62.0613 16.4174C62.2026 16.5253 62.4125 16.8314 62.5872 17.2572 62.7581 17.6771 62.8621 18.203 62.6893 18.409 62.5224 18.6131 62.344 19.0683 62.5501 19.3538 62.7581 19.6226 63.1445 19.6226 63.5291 19.4951 63.9099 19.3538 64.2001 19.5324 64.4337 19.3322 64.6769 19.1311 65.0813 18.5503 65.2498 18.3815 65.4167 18.2167 65.5226 17.9126 65.2754 17.7105 65.0477 17.5025 64.571 17.0257 64.571 17.0257 64.571 17.0257 64.4984 16.6803 64.1276 16.3507 63.7607 16.0014 63.3133 15.7699 63.3133 15.4991 63.3133 15.2264 63.3133 14.8241 63.1819 14.5474 63.0446 14.2825 62.803 14.3218 62.803 14.3218 62.803 14.3218 61.8887 14.883 61.9653 15.5756 62.032 16.2761 61.924 16.3193 62.0613 16.4174Z" fill="#693403" fill-rule="evenodd" transform="matrix(1.00358 0 0 1 538 256)"/><path d="M61.988 26.5311C61.8566 26.3467 61.6583 26.1465 61.6583 25.8837 61.6583 25.605 62.0625 25.342 62.0625 25.342 62.0625 25.342 62.6002 25.1675 62.9122 25.1321 63.2143 25.0947 62.9377 25.7717 62.9377 25.7717L62.3962 26.4212C62.3962 26.4212 62.1272 26.698 61.988 26.5311ZM67.1838 30.2219C66.8484 29.6745 66.2343 29.2722 66.2343 29.2722 66.2343 29.2722 66.0301 28.8955 65.5219 28.8955 65.0097 28.8955 62.5061 28.8702 62.5061 28.8702 62.5061 28.8702 62.2312 28.6307 62.2627 28.5227 62.2922 28.4246 63.1809 27.842 63.3811 27.7477 63.5891 27.6397 63.7931 27.265 63.9933 27.0747 64.1994 26.8646 64.8409 26.117 65.0489 25.9877 65.251 25.8445 65.3886 25.5403 65.6219 25.238 65.8594 24.9281 65.8594 24.6927 65.6866 24.5199 65.5219 24.3511 65.5552 23.833 65.147 23.6094 64.7369 23.3583 64.3408 23.3583 63.6225 23.6449 62.9122 23.9117 62.0979 24.1509 62.0979 24.1509 62.0979 24.1509 61.8937 23.9451 61.9273 23.7389 61.9644 23.5447 62.8396 22.6951 63.3145 22.1829 63.7931 21.6669 64.0973 21.6669 64.268 21.5393 64.4349 21.4059 64.6036 20.9311 64.4701 20.6564 64.3408 20.3875 63.7598 20.2168 63.7598 20.2168 63.7598 20.2168 62.1646 20.8251 61.9644 20.8899 61.7545 20.9644 60.7067 21.2666 60.4654 21.4059 60.2318 21.5393 59.6549 21.6669 59.3136 21.6669 58.972 21.6669 58.4326 21.5688 58.0559 21.9396 57.6888 22.3144 57.5829 22.385 57.6477 22.6244 57.7202 22.8579 58.0244 23.1935 58.2305 23.4093 58.4326 23.6094 58.5012 23.8096 59.0016 23.8096 59.5079 23.8096 59.8532 23.4387 59.8532 23.4387 59.8532 23.4387 60.532 22.9914 60.8695 22.9914 61.2071 22.9914 61.3444 23.1935 61.1168 23.4721 60.8695 23.7389 60.4301 24.253 60.1553 24.6142 59.8905 24.9907 59.4469 25.7717 59.2802 25.9149 59.1134 26.0385 58.876 26.5959 59.1134 26.9294 59.3488 27.265 59.7865 27.0747 60.0886 27.577 60.4006 28.0812 60.5634 28.4561 60.6046 28.7915 60.6379 29.1427 60.5634 30.5654 60.5634 30.9658 60.5634 31.3678 60.74 32.4804 60.0593 32.5314 59.3861 32.5707 57.8145 32.5314 57.8145 32.5314 57.8145 32.5314 57.2435 32.4274 57.2728 32.6983 57.3142 32.9711 57.6162 33.1065 57.889 33.1713 58.1618 33.2438 59.0016 33.6813 59.1134 33.8815 59.2115 34.0955 59.5804 34.0562 59.8532 34.0562 60.1238 34.0562 60.0004 33.8815 60.3673 33.9168 60.74 33.956 60.9754 33.956 60.9754 33.956 60.9754 33.956 61.5191 33.5814 61.5191 33.3478 61.5191 33.1065 61.6583 31.4111 61.6583 31.001 61.6583 30.5909 61.7545 30.0808 62.2312 29.9433 62.7023 29.8177 63.9248 29.7452 64.2975 29.9846 64.6781 30.2219 65.1862 30.2593 64.9804 30.6949 64.7724 31.1324 64.7724 31.3012 64.4349 31.4444 64.0973 31.572 63.5891 32.1254 63.4164 32.2608 63.2516 32.3882 62.5061 32.7631 62.5061 33.0025 62.5061 33.2438 62.1272 33.4105 62.2312 33.5814 62.3293 33.7461 62.3293 33.9168 62.7709 33.8482 63.2143 33.7872 63.7598 33.5814 64.2347 33.3478 64.7076 33.1065 65.5552 32.7394 65.932 32.7394 66.3028 32.7394 66.5404 32.8297 66.8484 32.6983 67.1526 32.5707 67.5842 32.0214 67.6253 31.6073 67.6567 31.213 67.5234 30.7656 67.1838 30.2219Z" fill="#693403" fill-rule="evenodd" transform="matrix(1.00358 0 0 1 538 256)"/><path d="M58.803 30.7651C59.003 30.5925 59.1462 30.5278 59.003 30.2865 58.8775 30.0489 58.6009 30.0803 58.6009 30.0803 58.6009 30.0803 57.8552 30.359 57.347 30.6299 56.8388 30.8946 56.4935 31.0674 56.1912 31.0379 55.8851 31.0026 55.3809 31.2125 55.0708 31.4127 54.7688 31.607 54.2584 31.7169 53.9545 31.8521 53.6463 31.9876 53.2735 32.388 52.7594 32.5312 52.255 32.6645 51.3389 32.5312 51.0051 32.596 50.6579 32.6645 50.3911 33.106 50.3911 33.4476 50.3911 33.787 50.3559 34.3304 50.0143 34.5679 49.673 34.8074 49.9829 35.343 50.1871 35.6176 50.3911 35.8944 50.864 36.1258 51.272 35.8944 51.6821 35.651 52.2886 35.078 52.5633 35.078 52.828 35.078 52.7947 34.8719 53.1735 34.5679 53.5463 34.2656 53.6463 34.2656 54.2584 33.787 54.8728 33.3043 55.2082 33.0039 55.4457 32.9451 55.683 32.8666 56.0657 32.7626 56.3678 32.388 56.6682 32.0209 57.2097 31.7169 57.6179 31.3695 58.0259 31.0379 58.6009 30.9279 58.803 30.7651Z" fill="#693403" fill-rule="evenodd" transform="matrix(1.00358 0 0 1 538 256)"/><path d="M96.317 21.978C96.317 22.4686 95.8795 22.7531 95.7244 23.1848 95.5675 23.6184 95.4751 24.8664 95.4751 25.3923 95.4751 25.9142 95.7871 26.3479 96.0991 26.8403 96.4073 27.3447 96.3758 27.9391 96.7545 29.0106 97.1213 30.0995 97.0292 30.5703 96.9703 31.1532 96.9096 31.7477 96.1579 31.9616 95.5398 31.9949 94.9139 32.0282 94.6097 31.5025 94.2115 31.2239 93.7955 30.9393 93.8661 30.229 93.8661 30.229 93.8661 30.229 93.925 28.1767 93.8661 27.435 93.7955 26.6892 94.0212 25.3609 93.9898 24.7976 93.9604 24.2405 94.2665 23.1553 94.7962 22.288 95.3181 21.4208 96.0639 21.2658 96.0639 21.2658 96.0639 21.2658 96.1934 21.2324 96.2837 21.3913 96.3758 21.5385 96.317 21.4816 96.317 21.978ZM92.3317 23.585C92.3317 23.585 92.1237 23.7891 91.957 23.3103 91.7902 22.8355 92.4338 22.5726 92.4338 22.5726 92.4338 22.5726 92.7025 22.8355 92.7399 23.1808 92.7732 23.5164 92.3317 23.585 92.3317 23.585ZM92.6085 27.4879C92.5633 27.7567 92.369 27.7567 92.269 27.6605 92.1572 27.5505 91.9982 27.2151 91.957 26.8147 91.9256 26.4028 92.0944 26.0889 92.0944 26.0889L92.3317 26.0241C92.3317 26.0241 92.3886 25.9986 92.6044 26.2791 92.8065 26.5557 92.6437 27.2151 92.6085 27.4879ZM91.2172 23.9167C91.0447 24.2346 91.078 25.4178 91.078 25.8239 91.078 26.0064 90.8934 26.1477 90.7582 26.4321 90.5991 26.7618 90.4618 27.2407 90.2675 27.5153 89.887 28.0294 88.9647 29.2734 88.6253 29.4381 88.2837 29.609 88.0228 29.762 87.9228 29.1831 87.8188 28.6064 88.5997 28.1649 88.737 28.0294 88.8744 27.8902 89.0058 27.4879 89.21 27.2151 89.4159 26.9424 89.8888 26.5361 90.0616 26.2654 90.2302 25.9946 90.0281 25.6866 89.7889 25.4549 89.5494 25.2098 89.4159 25.4549 89.1412 25.2843 88.8744 25.1058 88.9077 24.9075 89.1412 24.6014 89.3767 24.3053 89.9222 23.6832 90.1616 23.4457 90.4011 23.2044 90.6738 23.0455 90.6738 23.0455 90.6738 23.0455 90.8367 22.967 91.1465 23.1416 91.4548 23.3103 91.382 23.6184 91.2172 23.9167ZM88.4662 23.0749C88.4995 22.8041 89.21 22.5333 89.21 22.5333 89.21 22.5333 89.3452 22.6746 89.3452 22.8041 89.3452 22.9336 89.21 23.0749 89.0765 23.3476 88.9491 23.6184 88.6704 23.8834 88.6704 23.8834L88.2995 23.6832C88.2995 23.6832 88.4269 23.3476 88.4662 23.0749ZM86.5334 22.9336C86.5668 23.379 86.5668 23.7243 86.4294 23.9167 86.2942 24.1247 85.9175 24.5074 85.6152 24.466 85.311 24.4327 85.2717 24.2032 85.107 23.9893 84.9344 23.7891 84.7009 24.0599 84.43 23.9893 84.1535 23.9167 84.1887 23.5497 84.322 23.3103 84.4634 23.0749 85.107 22.4391 85.4426 22.2252 85.7858 22.0271 86.1647 21.7563 86.1647 21.7563 86.1647 21.7563 86.2942 21.7563 86.4609 21.9898 86.6315 22.2252 86.4982 22.496 86.5334 22.9336ZM97.5177 22.2625C97.8652 21.6798 98.6107 21.1735 98.6107 21.1735 98.6107 21.1735 98.9837 21.0067 98.5107 20.3592 98.0318 19.7196 97.2941 19.2408 96.6368 19.5842 95.9972 19.9216 94.9787 20.7987 94.6412 20.6575 94.3036 20.5339 94.237 20.2572 94.3036 19.9864 94.3646 19.7196 94.7059 19.2408 94.7059 18.4639 94.7059 17.685 94.3313 17.0041 93.9271 16.9354 93.5189 16.8687 93.3502 17.1022 93.1814 17.267 93.0067 17.4436 92.7732 17.7203 92.7732 17.7203 92.7732 17.7203 92.7399 18.4639 92.8831 18.564 93.0067 18.668 92.9812 19.3781 92.8831 19.6214 92.7732 19.8569 92.6437 20.3926 92.369 20.2572 92.0944 20.114 92.2298 19.9216 92.2298 19.6489 92.2298 19.3781 92.4985 19.1723 91.9256 18.7956 91.3467 18.4267 91.0447 18.3187 90.8031 18.9368 90.5717 19.5469 90.4658 19.9216 90.4658 19.9216 90.4658 19.9216 90.3283 21.2442 89.8574 21.3737 89.3767 21.511 89.0765 21.511 89.0765 21.2442 89.0765 20.9734 89.4159 20.2572 89.4435 19.9216 89.4847 19.5842 89.3767 19.1723 89.8201 18.7681 90.2675 18.3639 91.278 17.9538 91.6547 17.5417 92.0277 17.1414 92.7025 16.7333 92.7025 16.7333 92.7025 16.7333 93.4856 16.4586 93.4856 16.1172 93.4856 15.7816 93.4208 15.5501 92.677 15.7816 91.9256 16.0151 91.178 16.3919 90.7405 16.8687 90.293 17.3475 89.887 17.7478 89.3452 17.7811 88.7978 17.8105 88.5643 17.577 88.6704 17.2042 88.7704 16.8294 89.7201 16.4292 90.1616 16.1584 90.605 15.8856 91.0447 15.4088 91.078 14.8653 91.1151 14.3218 91.1465 14.049 90.5717 13.5075 89.9888 12.9541 89.31 12.5617 88.9077 12.3537 88.4995 12.1457 87.6833 11.8808 87.5087 12.2222 87.3477 12.5617 87.2773 12.5617 87.4772 12.86 87.6833 13.17 87.8561 13.947 87.5812 14.4238 87.3085 14.8987 86.6689 16.3252 86.0607 17.0041 85.4426 17.685 84.5321 18.3874 84.5321 18.7053 84.5321 19.0075 84.3967 19.2741 84.903 19.1448 85.415 19.0075 85.782 18.4639 86.0959 18.4639 86.3961 18.4639 86.6689 18.7386 86.6689 19.1448 86.6689 19.5469 86.0607 20.2964 85.6877 20.3219 85.311 20.3592 84.795 20.9734 84.3594 21.4149 83.9219 21.8485 82.0499 23.7597 82.0499 23.7597 82.0499 23.7597 80.2525 25.7925 79.8465 26.0633 79.4364 26.338 79.1596 26.5027 78.9653 26.5027 78.7651 26.5027 78.259 26.5675 78.259 26.5675 78.259 26.5675 77.7428 26.6401 77.7428 26.9816 77.7428 27.321 77.7821 27.6605 77.684 27.7567 77.5722 27.8566 77.4348 27.9902 77.7428 28.3256 78.0451 28.6768 78.4238 28.7652 78.8946 28.7397 79.3754 28.7023 79.711 28.4769 79.9543 28.2315 80.1878 27.9902 80.3584 27.4879 80.6253 27.1759 80.8981 26.8658 81.9165 25.5552 81.9165 25.5552 81.9165 25.5552 82.156 25.4549 82.4599 25.2176 82.7641 24.9763 82.9681 24.4327 83.2016 24.5074 83.443 24.57 83.7805 24.7388 83.5136 25.2176 83.2312 25.6866 83.1742 26.1614 83.1742 26.4321 83.1742 26.7048 83.6139 26.8147 83.3116 27.113 83.0017 27.4153 82.3247 28.2944 82.3247 28.2944 82.3247 28.2944 81.6438 28.8456 81.2651 28.8751 80.8981 28.9085 80.4624 29.3892 80.6607 29.6601 80.8647 29.9248 81.5712 30.0995 81.9165 30.1309 82.256 30.1643 82.4599 29.9955 82.87 29.6854 83.2782 29.3892 83.3508 28.9751 83.5451 28.7023 83.7453 28.4317 84.5321 27.9273 84.5321 27.9273 84.5321 27.9273 84.8342 27.8902 85.107 27.4153 85.3778 26.9424 85.6152 25.8946 85.9546 25.9279 86.2942 25.9612 86.4982 26.2988 86.3235 26.9069 86.1647 27.5153 85.8527 27.8902 85.5112 27.9902 85.1736 28.102 85.2464 28.5336 85.3778 28.7023 85.5112 28.8751 86.2588 29.0498 86.2295 29.5284 86.1959 29.9955 85.9782 30.1995 85.6877 30.2349 85.3778 30.2683 84.9344 30.2683 84.6262 30.4999 84.322 30.7509 84.4634 30.8764 84.6262 31.2886 84.795 31.6928 85.1424 32.6071 85.1424 32.6071 85.1424 32.6071 85.0718 32.9446 85.4426 32.9446 85.8173 32.9446 86.4767 32.7132 86.8572 32.3109 87.23 31.8968 87.9913 31.6262 87.9913 31.6262 87.9913 31.6262 88.7978 31.0747 89.0412 30.7509 89.2767 30.4096 89.3767 30.645 89.618 30.4999 89.8574 30.3704 90.4011 30.0995 90.605 29.6601 90.8031 29.2127 90.7719 28.4769 90.7719 28.4769 90.7719 28.4769 90.7405 27.6605 91.078 27.6938 91.4193 27.7233 91.6117 28.1334 91.6117 28.4317 91.6117 28.7397 91.5469 28.9399 91.8589 29.4521 92.1572 29.9563 92.4985 30.4763 92.4985 31.0237L92.4985 35.156C92.4985 36.3726 92.6437 39.0511 92.6437 39.8398L92.6437 42.2434C92.6437 42.7497 92.4338 43.1931 92.0589 43.6013 91.6902 44.0095 91.2172 44.1428 91.4548 44.5137 91.6902 44.8944 91.8589 45.0887 92.269 44.9925 92.677 44.8944 92.9145 44.6864 93.15 44.7257 93.3875 44.7512 93.825 44.3841 93.9271 44.1428 94.033 43.9055 94.1585 43.1617 94.1585 43.1617L94.033 40.3165C94.033 40.3165 94.1311 39.3198 94.0623 38.7842 93.9997 38.2446 93.825 37.3911 93.825 37.3911L93.8898 33.1252C93.8898 33.1252 94.033 32.6071 94.3313 32.6877 94.6412 32.7387 94.6412 32.9819 95.7244 33.1252 96.8153 33.2566 96.984 33.5256 97.2157 33.3842 97.453 33.2566 97.9004 32.7387 98.0318 32.2972 98.1635 31.8654 98.2065 31.426 98.3734 31.114 98.5381 30.8098 98.8128 30.645 98.4381 29.9563 98.0654 29.2852 96.4385 27.4879 96.3347 26.338 96.2364 25.1784 96.3347 24.362 96.6368 23.7243 96.9507 23.0749 97.1802 22.8355 97.5177 22.2625Z" fill="#693403" fill-rule="evenodd" transform="matrix(1.00358 0 0 1 538 256)"/><path d="M117.235 30.5713C117.198 30.6949 116.982 30.9147 116.731 30.8499 116.49 30.7831 116.521 30.5398 116.521 30.1964 116.521 29.8511 116.766 29.7785 116.766 29.7785L117.082 29.8255C117.082 29.8255 117.357 30.1002 117.357 30.1964 117.357 30.2926 117.265 30.4495 117.235 30.5713ZM122.482 32.6983C122.072 32.6983 122.258 33.2358 122.009 33.5223 121.76 33.805 121.328 33.9168 120.587 34.3309 119.843 34.731 119.127 35.1059 118.595 35.1059 118.075 35.1059 118.046 34.7939 117.912 34.4583 117.793 34.107 118.222 33.6773 118.417 33.1495 118.595 32.6118 118.783 32.1254 118.783 32.1254 118.783 32.1254 119.254 31.4033 120.092 31.152 120.922 30.9147 121.356 30.165 121.854 29.8511 122.349 29.5431 122.633 29.0113 122.602 28.6248 122.567 28.2107 122.284 27.777 121.854 27.3709 121.423 26.9726 120.897 27.0667 120.618 27.2787 120.333 27.5004 120.587 28.1519 120.587 28.5149 120.587 28.8955 120.153 29.4509 119.992 29.8255 119.843 30.1964 119.307 30.7831 119.001 30.9147 118.691 31.0362 118.817 30.3593 118.817 30.2278 118.817 30.1002 119.093 29.1819 119.093 29.1819 119.093 29.1819 119.598 28.7659 119.843 28.297 120.092 27.8358 119.525 27.5907 119.254 27.5907 118.974 27.5907 118.752 27.8358 118.566 27.777 118.379 27.7203 118.222 27.3435 117.977 27.2159 117.732 27.0981 117.486 27.5907 117.294 27.7477 117.11 27.8928 116.423 28.4657 116.021 28.8014 115.62 29.1408 115.336 29.8511 115.155 30.1316 114.973 30.4221 114.627 30.5006 114.286 30.6027 113.943 30.6949 113.66 31.2246 113.478 31.5602 113.293 31.9115 113.23 32.2116 113.23 32.2116 113.23 32.2116 113.66 32.8042 113.852 32.9827 114.039 33.1769 114.318 33.0867 114.318 33.0867 114.318 33.0867 114.724 32.9827 115 32.4333 115.283 31.8701 115.56 31.8701 116.18 31.8701 116.802 31.8701 117.049 32.027 117.049 32.4608 117.049 32.8945 116.213 33.1122 116.213 33.1122 116.213 33.1122 115.989 33.332 115.899 33.6951 115.807 34.0777 116.49 34.1345 116.641 34.3798 116.802 34.6389 116.452 34.9431 116.862 35.7495 117.265 36.5676 117.912 36.5931 118.507 36.6227 119.093 36.656 119.28 36.5009 120.027 36.2497 120.765 36.0046 120.12 36.3341 121.544 35.5061 122.979 34.6644 123.004 34.5741 123.561 34.1345 124.124 33.6951 123.964 33.4223 123.779 33.0533 123.597 32.6865 122.88 32.6983 122.482 32.6983Z" fill="#693403" fill-rule="evenodd" transform="matrix(1.00358 0 0 1 538 256)"/><path d="M118.222 15.5247C118.752 15.7386 118.844 15.6522 119.407 15.4599 119.962 15.2715 120.92 14.9282 121.238 14.9086 121.542 14.8673 122.227 14.7143 122.227 14.7143 122.227 14.7143 122.537 14.3964 122.391 13.9059 122.227 13.4232 122.227 13.5703 121.722 13.2878 121.238 13.0151 120.861 12.9778 120.743 12.8345 120.618 12.6717 120.274 12.9169 119.992 13.0464 119.713 13.1563 119.556 13.2603 119.16 13.2603 118.752 13.2603 117.884 13.2289 117.884 13.2289 117.884 13.2289 117.417 13.7587 117.235 13.9981 117.047 14.2571 117.264 14.2571 117.357 14.5907 117.453 14.9282 117.702 15.3049 118.222 15.5247Z" fill="#693403" fill-rule="evenodd" transform="matrix(1.00358 0 0 1 538 256)"/><path d="M125.698 17.3182C125.579 16.7649 125.579 16.6668 125.045 16.1448 124.529 15.6209 124.123 15.5876 124.123 15.5876 124.123 15.5876 123.66 15.4071 123.467 15.9251 123.275 16.4549 123.595 16.7923 123.275 17.1926 122.977 17.6067 122.81 17.8186 122.81 18.0697 122.81 18.3189 122.349 18.7173 122.166 18.9959 121.982 19.2753 121.266 19.9601 120.92 20.1465 120.587 20.331 120.302 20.4506 120.275 20.1799 120.243 19.8953 120.055 19.4283 120.394 19.094 120.744 18.7486 121.266 18.4994 121.635 18.1855 122.007 17.8912 122.48 17.695 122.284 17.3516 122.1 17.0101 121.89 17.1671 121.574 17.3849 121.266 17.6067 120.961 18.0305 120.677 17.7617 120.394 17.4752 120.026 16.5117 119.254 16.3567 118.479 16.2076 118.073 16.4294 118.26 16.7649 118.45 17.1004 118.999 17.9442 118.66 18.4445 118.318 18.937 118.163 19.2478 117.392 19.8051 116.611 20.3584 115.964 21.0138 115.281 21.6024 114.598 22.1891 114.068 22.9093 113.421 23.127 112.76 23.3488 112.511 23.1271 112.511 22.8681 112.511 22.6365 113.078 21.2669 113.113 20.9569 113.136 20.6469 113.046 20.0896 112.458 20.8254 111.861 21.5691 111.251 22.4442 111.19 22.9093 111.115 23.3762 110.688 24.4279 110.279 24.7969 109.877 25.1715 109.285 25.5464 109.508 26.1685 109.726 26.7826 109.944 26.971 110.379 27.2201 110.811 27.4595 110.841 27.6831 111.396 27.4595 111.961 27.2556 112.208 26.9062 112.638 26.2981 113.078 25.6778 113.509 25.6778 113.627 25.2933 113.76 24.9186 114.068 24.4279 114.561 24.0845 115.057 23.7491 115.493 23.6196 115.929 23.0054 116.362 22.3854 117.485 21.316 117.702 20.9883 117.91 20.6469 118.318 20.6155 118.532 20.8647 118.752 21.1099 118.727 21.6025 118.26 22.1008 117.791 22.5992 117.453 22.7189 117.453 22.7189 117.453 22.7189 117.02 23.2173 117.357 23.3488 117.702 23.4724 118.073 23.1545 118.128 23.5548 118.191 23.9609 118.417 23.8335 117.95 23.9609 117.485 24.0845 116.245 24.214 115.866 24.4279 115.493 24.6437 115.057 25.7034 115.254 26.0369 115.428 26.3881 115.742 26.7826 116.142 26.6335 116.549 26.4784 116.892 25.9487 117.08 25.7937 117.265 25.6289 117.761 25.3621 117.761 25.6289 117.761 25.9154 117.818 26.5373 118.26 26.4136 118.691 26.2981 119.093 25.8584 119.376 25.3914 119.651 24.9186 120.055 24.2396 120.424 24.3613 120.807 24.4868 120.861 24.7399 120.587 24.9853 120.302 25.2285 119.688 26.0057 119.598 26.1941 119.494 26.3881 119.376 26.6609 119.743 26.6335 120.118 26.5961 121.354 25.7937 122.39 25.5719 123.405 25.3621 123.561 25.0167 123.838 24.8676 124.123 24.7066 124.427 24.1769 123.748 23.3488 123.069 22.4992 122.759 22.0616 122.39 22.0616 122.007 22.0616 121.825 22.3147 121.423 22.6365 121.017 22.9348 120.463 23.4901 120.118 23.1545 119.776 22.8111 119.651 22.2578 120.118 21.7241 120.587 21.208 122.447 19.9287 123.004 19.6501 123.561 19.3636 125.145 18.6603 125.52 18.3189 125.891 17.9697 125.826 17.8912 125.698 17.3182Z" fill="#693403" fill-rule="evenodd" transform="matrix(1.00358 0 0 1 538 256)"/><path d="M175.047 33.1394C174.741 33.3474 173.485 33.722 173.175 33.8241 172.875 33.9163 172.465 33.991 171.761 34.199 171.045 34.3952 170.701 34.3304 170.438 34.199 170.161 34.0576 170.369 33.7456 170.538 33.5535 170.701 33.3474 171.18 33.2119 171.18 33.2119 171.18 33.2119 171.655 33.2668 172.432 33.1786 173.211 33.0746 173.352 32.9706 173.797 32.739 174.227 32.4801 174.608 32.3622 175.077 32.5702 175.557 32.7626 175.351 32.9451 175.047 33.1394ZM178.742 24.2211C178.206 23.8328 177.351 23.3108 176.88 23.5757 176.405 23.8328 176.134 23.9446 175.964 23.9446 175.797 23.9446 175.383 23.9819 175.118 24.2526 174.847 24.5253 174.81 24.5901 174.5 24.757 174.198 24.9276 173.864 25.3004 173.556 25.5084 173.248 25.7145 172.636 26.252 172.636 26.252 172.636 26.252 171.857 26.8663 171.525 27.0017 171.18 27.1291 171.045 27.6824 170.778 27.7786 170.501 27.8826 170.397 27.8415 169.622 28.4967 168.831 29.1425 168.301 29.674 168.301 29.674 168.301 29.674 167.987 29.8527 167.479 30.2609 166.963 30.6689 166.5 31.1026 166.223 30.9298 165.954 30.7651 165.984 30.5649 166.084 30.4531 166.192 30.359 166.327 30.2609 166.257 30.0567 166.192 29.8527 166.084 29.8527 166.084 29.8527 166.084 29.8527 165.242 30.0175 165.074 30.359 164.901 30.6944 164.762 31.2359 164.454 31.3695 164.153 31.5087 163.274 32.2211 163.109 32.4801 162.933 32.7626 163.066 33.3041 163.714 33.6416 164.361 33.991 164.153 33.8496 164.728 33.5809 165.307 33.3041 165.815 33.106 166.192 32.739 166.563 32.3622 167.31 31.8129 167.412 31.6519 167.516 31.4773 168.227 30.7965 168.497 30.4864 168.774 30.1921 168.774 29.7487 169.106 29.6466 169.447 29.5426 170.057 29.1425 170.301 28.8323 170.538 28.5222 170.938 27.8826 170.938 27.8826 170.938 27.8826 171.109 27.6413 171.348 27.5784 171.586 27.5078 172.261 27.1646 172.465 26.9291 172.675 26.6975 173.175 26.252 173.617 26.0147 174.058 25.7733 175.147 25.471 175.587 25.471 176.032 25.471 176.433 25.8185 176.032 26.1168 175.618 26.4207 175.557 26.3874 175.218 26.7623 174.88 27.1291 174.91 27.4744 174.435 27.6824 173.962 27.8826 173.617 28.1514 173.654 28.4967 173.688 28.8323 173.925 29.2443 174.031 29.6466 174.125 30.0567 174.268 30.6944 173.752 31.14 173.248 31.5735 172.465 32.0935 171.982 32.2211 171.525 32.3624 171.209 32.427 170.903 32.5702 170.607 32.6978 170.438 32.739 170.057 32.7626 169.687 32.7959 169.549 33.2119 169.549 33.5535 169.549 33.8811 169.076 34.199 169.076 34.4696 169.076 34.7327 168.98 35.4155 169.386 35.4862 169.785 35.5451 170.538 35.343 171.413 35.343 172.294 35.343 173.752 35.1428 174.227 35.182 174.706 35.2172 175.077 35.343 175.428 35.2487 175.764 35.1428 176.47 34.8405 176.88 34.7031 177.284 34.5677 177.661 34.9093 177.796 34.4973 177.93 34.0969 178.273 34.2245 177.93 33.7456 177.592 33.2668 177.082 33.0039 177.082 32.5957 177.082 32.1797 177.557 31.75 177.73 31.6519 177.904 31.542 178.242 31.3399 178.034 30.7965 177.828 30.2609 177.661 29.8173 177.082 29.674 176.507 29.5426 175.934 29.6466 175.797 29.3112 175.652 28.9619 175.618 28.6303 176.266 28.0181 176.909 27.4038 176.978 27.2293 177.386 27.0977 177.796 26.9722 178.919 26.6975 179.287 26.3874 179.658 26.0813 179.792 25.6046 179.629 25.2063 179.462 24.7981 179.287 24.5901 178.742 24.2211Z" fill="#693403" fill-rule="evenodd" transform="matrix(1.00358 0 0 1 538 256)"/><path d="M169.448 27.3447C169.686 27.3054 169.925 27.1289 170.094 27.0012 170.266 26.866 170.812 26.187 170.812 26.187 170.812 26.187 171.081 25.7731 170.737 25.9142 170.398 26.0378 170.196 26.5304 169.892 26.6973 169.584 26.866 169.354 26.7973 169.105 27.0996 168.867 27.4035 168.738 27.6155 168.636 27.6822 168.532 27.747 168.12 28.2514 168.12 28.2514 168.12 28.2514 168.302 28.1866 168.738 27.9531 169.172 27.7214 169.211 27.3721 169.448 27.3447Z" fill="#693403" fill-rule="evenodd" transform="matrix(1.00358 0 0 1 538 256)"/><path d="M177.75 20.2642C177.64 20.2642 177.593 20.1877 177.562 19.9856 177.536 19.7776 177.846 19.8306 177.846 19.8306L178.052 20.0386C178.052 20.0386 177.846 20.2642 177.75 20.2642ZM176.655 21.4867C176.624 21.5573 176.398 21.7457 176.068 21.7457 175.735 21.7457 175.735 21.3905 175.735 21.3905 175.735 21.3905 175.935 20.9569 176.068 20.743 176.196 20.5468 176.526 20.3722 176.526 20.3722L176.753 20.5468C176.753 20.5468 176.881 20.7744 176.881 20.9746 176.881 21.1806 176.681 21.4141 176.655 21.4867ZM174.974 20.8784C174.819 21.0216 174.664 20.8529 174.664 20.6469 174.664 20.4506 174.819 20.1877 175.019 20.0131 175.229 19.8306 175.705 19.6226 175.705 19.6226L175.935 19.7148C175.935 19.7148 176.011 19.8306 175.909 20.0386 175.815 20.2446 175.529 20.3133 175.529 20.3133 175.529 20.3133 175.127 20.7155 174.974 20.8784ZM174.228 20.0896C173.983 20.2171 173.641 20.3133 173.323 20.3722 172.984 20.4134 172.556 21.0569 172.399 21.0746 172.256 21.106 172.046 20.8784 171.842 20.7155 171.64 20.5723 171.867 20.2446 172.095 20.0896 172.323 19.9365 173.035 20.1387 173.443 20.0386 173.855 19.9365 174.508 19.3008 174.763 19.0665 175.019 18.8409 175.509 18.6407 175.509 18.6407L175.605 18.8683C175.605 18.8683 175.605 18.9704 175.462 19.2156 175.299 19.4715 174.873 19.8796 174.693 19.8796 174.508 19.8796 174.493 19.9601 174.228 20.0896ZM174.126 23.2448C173.983 23.3488 173.881 23.4724 173.726 23.4724 173.572 23.4724 173.496 23.3998 173.572 23.1663 173.641 22.9348 174.126 22.7856 174.126 22.7856 174.126 22.7856 174.318 22.7601 174.365 22.8818 174.406 23.0191 174.291 23.1408 174.126 23.2448ZM172.556 19.0665C172.556 19.0665 172.803 18.7879 173.011 18.5622 173.212 18.3287 173.726 18.4641 173.726 18.4641 173.726 18.4641 173.826 18.4779 174.032 18.4779 174.228 18.4779 174.179 18.7369 174.179 18.8683 174.179 18.988 173.881 19.1705 173.62 19.2753 173.37 19.3773 173.011 19.4185 172.756 19.3538 172.505 19.2753 172.556 19.0665 172.556 19.0665ZM182.985 16.1821C182.612 15.6994 182.51 15.5621 182.171 15.3953 181.831 15.2246 181.457 14.7458 181.023 15.0205 180.581 15.2913 179.392 16.1056 178.78 16.4804 178.158 16.8551 177.73 17.4379 177.285 17.2554 176.845 17.0867 177.083 16.7119 177.352 16.3744 177.628 16.0408 178.207 15.8073 178.372 15.2913 178.539 14.785 178.576 14.2808 178.743 13.8667 178.919 13.4625 178.919 13.0858 178.403 12.6364 177.905 12.1989 176.881 11.2276 176.267 11.4945 175.652 11.7594 175.384 12.2793 175.148 12.5109 174.911 12.7483 174.707 13.0269 174.811 13.4017 174.911 13.7706 175.188 14.1787 175.462 13.9001 175.729 13.6293 175.935 13.0858 176.233 13.1231 176.541 13.1564 176.91 13.5292 176.845 13.9707 176.779 14.4103 176.71 14.9224 176.508 15.3305 176.3 15.7328 176.033 16.1762 175.964 16.4156 175.892 16.6491 175.764 17.0239 175.219 17.2554 174.677 17.5007 173.753 17.4379 173.212 17.6675 172.676 17.9108 172.095 18.2385 172.095 18.5093 172.095 18.7879 172.17 18.988 171.893 18.988 171.622 18.988 171.349 18.7173 171.383 18.4131 171.414 18.1109 171.414 16.6099 171.21 15.8721 171.014 15.1304 170.539 14.2062 170.058 14.2062 169.585 14.2062 169.244 14.681 169.107 15.3678 168.981 16.0408 169.042 16.4549 169.212 16.7845 169.387 17.1259 169.656 16.9984 169.785 16.9984 169.927 16.9984 170.37 17.4615 170.302 17.7734 170.227 18.0756 170.125 19.2635 170.37 19.8051 170.608 20.3467 170.739 21.0903 170.462 21.4062 170.198 21.6986 169.992 21.7771 169.892 21.4337 169.785 21.0903 169.687 20.1465 169.212 19.8365 168.738 19.5323 168.463 19.0292 168.194 19.5716 167.921 20.1014 168.055 20.4506 168.055 20.6567 168.055 20.8568 168.398 21.0903 168.398 21.4337 168.398 21.7771 168.398 22.248 168.498 22.4167 168.598 22.5855 168.832 22.7935 168.498 23.3095 168.161 23.8099 167.821 23.6097 168.086 24.2533 168.363 24.9028 168.534 25.5405 168.802 25.7426 169.077 25.9487 169.244 26.1527 169.585 25.8839 169.927 25.6053 170.198 25.2699 170.227 24.8676 170.266 24.4495 169.821 23.4724 170.227 23.233 170.633 22.9917 170.939 23.543 171.245 23.335 171.555 23.1349 171.761 22.5855 171.983 22.4815 172.23 22.3854 172.262 22.662 172.466 22.4815 172.676 22.3147 172.98 21.6986 173.176 21.8104 173.382 21.9125 173.59 22.2088 173.353 22.352 173.111 22.4815 172.876 22.4815 172.531 22.7601 172.201 23.0407 171.954 23.0407 171.983 23.4096 172.03 23.7746 172.295 23.9453 172.295 24.0493 172.295 24.1493 172.432 24.2533 172.23 24.5241 172.134 24.6537 172.095 24.7066 172.087 24.7184 172.046 24.7321 171.534 24.9264 171.414 25.0952 171.194 25.4287 171.014 25.7426 171.014 25.7426 171.014 25.7426 171.622 25.5405 171.789 25.3658 171.954 25.2051 172.095 24.7969 172.295 24.7969 172.505 24.7969 172.603 24.7577 173.049 24.5241 173.486 24.2946 173.692 24.0141 174.571 23.5764 175.462 23.1349 175.048 23.1938 175.252 23.1663 175.462 23.1349 175.729 22.8249 175.964 22.7189 176.2 22.6248 176.508 22.248 176.806 22.4167 177.126 22.5855 177.493 23.3095 177.931 23.3095 178.372 23.3095 178.949 23.1349 179.524 22.5208 180.106 21.9125 180.607 20.6841 180.607 20.6841 180.607 20.6841 181.023 19.6716 181.531 19.3008 182.037 18.9233 182.612 17.8107 182.924 17.2947 183.225 16.7845 183.366 16.6491 182.985 16.1821Z" fill="#693403" fill-rule="evenodd" transform="matrix(1.00358 0 0 1 538 256)"/><path d="M136.721 26.72C136.721 26.72 137.496 26.5023 137.878 26.3883 138.22 26.2806 138.694 26.1688 139.122 26.0508 139.54 25.9371 140.113 25.688 140.36 25.6015 140.525 25.5329 141.626 25.107 142.252 24.6676 142.762 24.3065 143.16 24.3615 143.16 24.3615L143.52 23.3353 144.002 21.4731 144.361 19.9014 144.848 18.4622 145.142 17.3692 145.444 16.2861 145.57 15.8603 145.751 15.0735 145.808 14.7144C145.808 14.7144 146.172 14.0492 146.594 14.5927 147.016 15.1441 146.953 15.6818 146.953 15.6818 146.953 15.6818 147.061 15.9133 147.061 16.7531 147.061 17.5949 147.016 19.4285 146.938 19.8053 146.849 20.1604 146.761 21.0061 146.696 21.169 146.639 21.2907 146.251 22.7937 147.218 22.2914L147.381 22.05 147.542 21.8244 147.685 21.6988 148.207 21.4614C148.207 21.4614 149.585 20.3213 149.789 19.7288 149.987 19.1195 150.391 19.0312 150.148 18.0325 149.904 17.0317 149.871 16.7531 149.871 16.7531 149.871 16.7531 149.987 16.5432 150.148 16.6256 150.314 16.7021 150.568 17.0455 150.636 17.2338 150.713 17.4772 150.854 17.7754 150.854 18.0619 150.854 18.3307 151.033 18.5053 150.676 19.3913 150.314 20.2841 149.392 21.6537 149.392 21.6537L149.069 22.1501 148.947 22.3404 148.764 22.4954 148.659 22.676 148.586 22.8427 148.48 23.0763 148.299 23.4903 148.097 23.9023 147.938 24.3771 147.738 24.7853 147.509 25.2621 147.099 25.8705 146.696 26.2806 146.21 26.7965 145.735 27.2792 145.372 27.599 145.168 27.7777 145.089 28.1407 144.976 28.4447 144.764 28.696 144.487 28.9628 144.243 29.363 143.957 29.9577 143.641 30.3697 143.52 30.6523 143.402 30.8878 143.402 31.1329 143.565 31.3016 144.344 31.3016 144.765 31.2586 145.013 31.2135 145.248 31.1329 145.774 31.0192C145.774 31.0192 148.551 30.8445 149.025 31.0192 149.528 31.1998 150.028 31.4959 150.028 31.4959L150.356 31.8119 150.636 32.1455C150.636 32.1455 150.931 32.583 150.554 32.8657 150.468 32.9264 149.679 33.3717 149.679 33.3717L149.141 33.6386 148.745 33.8487 148.49 33.9801 148.08 34.2314 147.86 34.4706 147.695 34.7041 147.536 34.7826 147.338 34.757 147.179 34.6904 147.089 34.5687 147.061 34.3803 147.218 34.0723 147.442 33.8898 147.656 33.6896C147.656 33.6896 148.193 33.2677 148.223 33.107 148.278 32.8302 148.66 32.4279 148.184 32.4615 147.695 32.4908 147.255 32.4279 147.255 32.4279L147.016 32.3731 146.734 32.1807 146.375 32.1807 144.002 31.9807 143.402 31.9375 143.043 31.8963C143.043 31.8963 142.115 33.2443 141.917 33.3601 141.74 33.4738 141.322 33.5249 141.247 33.6249 141.145 33.7662 140.992 33.8997 140.992 33.8997L140.541 34.3077C140.541 34.3077 139.212 35.2733 139.334 33.6249 139.334 33.6249 139.624 32.8657 139.866 32.6655 140.101 32.4615 140.264 32.0571 140.264 32.0571L140.669 31.2586 140.869 30.8093 141.067 30.2872 141.184 29.7241 141.353 29.3259 141.445 28.9413 141.591 28.7019C141.591 28.7019 142.115 28.2348 141.102 28.3662 140.101 28.4821 139.165 28.5017 139.165 28.5017 139.165 28.5017 137.817 28.6841 137.333 28.4055 136.846 28.1211 136.564 27.9975 136.564 27.9975L136.334 27.8365 136.169 27.599 136.169 27.3225 136.244 26.9946 136.721 26.72Z" fill="#693403" fill-rule="evenodd" transform="matrix(1.00358 0 0 1 538 256)"/></g></svg>